<svg width="68" height="68" viewBox="0 0 68 68" fill="none" xmlns="http://www.w3.org/2000/svg">
<path d="M34.0001 13.0615C34.8122 13.0615 35.5918 13.3839 36.1661 13.958L38.9152 16.707V16.708C39.3686 17.1622 39.6678 17.7474 39.7706 18.3809C39.8734 19.0145 39.775 19.6649 39.4884 20.2393L39.3673 20.4805L47.5177 28.6309L47.7599 28.5107C48.3343 28.2244 48.9847 28.1255 49.6183 28.2285C50.1725 28.3187 50.6896 28.5594 51.1144 28.9219L51.2911 29.085L53.4005 31.1943H53.3937L54.0343 31.835C54.3187 32.1193 54.5444 32.4576 54.6984 32.8291C54.8522 33.2006 54.9308 33.5989 54.9308 34.001C54.9308 34.4031 54.8522 34.8013 54.6984 35.1729C54.5444 35.5444 54.3187 35.8826 54.0343 36.167H54.0333L43.0333 47.167C42.749 47.4514 42.4116 47.6771 42.0402 47.8311C41.6685 47.985 41.2696 48.0645 40.8673 48.0645C40.4652 48.0644 40.0669 47.985 39.6954 47.8311C39.3239 47.6771 38.9866 47.4514 38.7023 47.167H38.7013L35.9523 44.417C35.501 43.9654 35.2014 43.3837 35.0968 42.7539C34.9923 42.1242 35.0873 41.4775 35.3683 40.9043L34.7667 40.4746L24.5607 50.6885C23.5995 51.6496 22.2959 52.1894 20.9366 52.1895C19.5772 52.1895 18.2729 51.6497 17.3116 50.6885C16.3506 49.7273 15.8107 48.4237 15.8107 47.0645C15.8107 45.7053 16.3497 44.4007 17.3107 43.4395L17.3116 43.4404L27.5382 33.2207L27.1075 32.6191C26.5335 32.9027 25.8848 32.9986 25.2531 32.8945C24.6213 32.7904 24.0378 32.4908 23.5851 32.0381L20.8351 29.2881C20.2612 28.7138 19.9386 27.9349 19.9386 27.123C19.9387 26.3111 20.2611 25.5322 20.8351 24.958L31.8351 13.958C32.4093 13.384 33.1882 13.0616 34.0001 13.0615ZM19.6984 45.8262C19.37 46.1542 19.1859 46.5993 19.1857 47.0635C19.1855 47.5275 19.3694 47.9724 19.6974 48.3008C20.0255 48.6291 20.4705 48.8142 20.9347 48.8145C21.3987 48.8147 21.8437 48.6305 22.172 48.3027L32.4025 38.0723L32.6681 37.8076L32.4025 37.542L30.4591 35.5967L30.1935 35.3311L19.6984 45.8262ZM48.8605 31.958L38.8312 41.9844L38.5665 42.249L38.8312 42.5146L40.6085 44.2988L40.8732 44.5654L41.1388 44.2988L51.1681 34.2646L51.4327 34L51.1681 33.7344L49.3907 31.958L49.1251 31.6924L48.8605 31.958ZM30.0607 29.8955L29.795 30.1602L30.0607 30.4258L37.5753 37.9395L37.84 38.2051L45.0734 30.9717L44.8087 30.7061L37.2941 23.1924L37.0294 22.9268L30.0607 29.8955ZM33.7355 16.8311L23.7052 26.8594L23.4396 27.125L23.7052 27.3906L25.4855 29.168L25.7511 29.4326L26.0157 29.167L36.0431 19.1406L36.3077 18.875L36.0431 18.6104L34.2657 16.8311L34.0011 16.5654L33.7355 16.8311Z" fill="white" stroke="#0B0B0B" stroke-width="0.75"/>
<path d="M30.459 35.5967L32.4033 37.542L32.668 37.8066L22.1729 48.3018C21.8445 48.6298 21.3987 48.8147 20.9346 48.8145C20.4705 48.8142 20.0253 48.6291 19.6973 48.3008C19.3694 47.9725 19.1854 47.5274 19.1855 47.0635C19.1858 46.5994 19.3701 46.1542 19.6982 45.8262L29.9287 35.5957L30.1943 35.3311L30.459 35.5967Z" fill="#FFB01E" stroke="#FFB01E" stroke-width="0.75"/>
</svg>
