<svg preserveAspectRatio="none" width="100%" height="100%" overflow="visible" style="display: block;" viewBox="0 0 40 40" fill="none" xmlns="http://www.w3.org/2000/svg">
<g id="CurrencyBtc">
<path id="Vector" d="M27.8875 18.0781C28.8362 17.1646 29.5026 15.9978 29.8074 14.7166C30.1121 13.4353 30.0425 12.0934 29.6066 10.8506C29.1708 9.60774 28.3871 8.51625 27.3489 7.70593C26.3106 6.89561 25.0615 6.40057 23.75 6.27969V3.75C23.75 3.41848 23.6183 3.10054 23.3839 2.86612C23.1495 2.6317 22.8315 2.5 22.5 2.5C22.1685 2.5 21.8505 2.6317 21.6161 2.86612C21.3817 3.10054 21.25 3.41848 21.25 3.75V6.25H18.75V3.75C18.75 3.41848 18.6183 3.10054 18.3839 2.86612C18.1495 2.6317 17.8315 2.5 17.5 2.5C17.1685 2.5 16.8505 2.6317 16.6161 2.86612C16.3817 3.10054 16.25 3.41848 16.25 3.75V6.25H11.25C10.9185 6.25 10.6005 6.3817 10.3661 6.61612C10.1317 6.85054 10 7.16848 10 7.5C10 7.83152 10.1317 8.14946 10.3661 8.38388C10.6005 8.6183 10.9185 8.75 11.25 8.75H12.5V30H11.25C10.9185 30 10.6005 30.1317 10.3661 30.3661C10.1317 30.6005 10 30.9185 10 31.25C10 31.5815 10.1317 31.8995 10.3661 32.1339C10.6005 32.3683 10.9185 32.5 11.25 32.5H16.25V35C16.25 35.3315 16.3817 35.6495 16.6161 35.8839C16.8505 36.1183 17.1685 36.25 17.5 36.25C17.8315 36.25 18.1495 36.1183 18.3839 35.8839C18.6183 35.6495 18.75 35.3315 18.75 35V32.5H21.25V35C21.25 35.3315 21.3817 35.6495 21.6161 35.8839C21.8505 36.1183 22.1685 36.25 22.5 36.25C22.8315 36.25 23.1495 36.1183 23.3839 35.8839C23.6183 35.6495 23.75 35.3315 23.75 35V32.5H25C26.7335 32.5 28.4136 31.8995 29.7543 30.8006C31.0951 29.7017 32.0137 28.1722 32.354 26.4724C32.6944 24.7726 32.4354 23.0074 31.6211 21.477C30.8067 19.9466 29.4874 18.7455 27.8875 18.0781ZM27.5 13.125C27.5 14.2853 27.0391 15.3981 26.2186 16.2186C25.3981 17.0391 24.2853 17.5 23.125 17.5H15V8.75H23.125C24.2853 8.75 25.3981 9.21094 26.2186 10.0314C27.0391 10.8519 27.5 11.9647 27.5 13.125ZM25 30H15V20H25C26.3261 20 27.5979 20.5268 28.5355 21.4645C29.4732 22.4021 30 23.6739 30 25C30 26.3261 29.4732 27.5979 28.5355 28.5355C27.5979 29.4732 26.3261 30 25 30Z" fill="var(--fill-0, #0B0B0B)"/>
<path id="Vector_2" d="M23.75 3.75V6.27969L21.25 6.25H18.75H16.25V3.75C16.25 3.41848 16.3817 3.10054 16.6161 2.86612C16.8505 2.6317 17.1685 2.5 17.5 2.5C17.8315 2.5 18.1495 2.6317 18.3839 2.86612C18.6183 3.10054 18.75 3.41848 18.75 3.75V6.25H21.25V3.75C21.25 3.41848 21.3817 3.10054 21.6161 2.86612C21.8505 2.6317 22.1685 2.5 22.5 2.5C22.8315 2.5 23.1495 2.6317 23.3839 2.86612C23.6183 3.10054 23.75 3.41848 23.75 3.75Z" fill="var(--fill-0, #FFB01E)"/>
<path id="Vector_3" d="M23.75 35.5293V32.5H21.25H18.75H16.25V35.5293C16.25 35.8608 16.3817 36.1788 16.6161 36.4132C16.8505 36.6476 17.1685 36.7793 17.5 36.7793C17.8315 36.7793 18.1495 36.6476 18.3839 36.4132C18.6183 36.1788 18.75 35.8608 18.75 35.5293V32.5H21.25V35.5293C21.25 35.8608 21.3817 36.1788 21.6161 36.4132C21.8505 36.6476 22.1685 36.7793 22.5 36.7793C22.8315 36.7793 23.1495 36.6476 23.3839 36.4132C23.6183 36.1788 23.75 35.8608 23.75 35.5293Z" fill="var(--fill-0, #FFB01E)"/>
</g>
</svg>
