<svg preserveAspectRatio="none" width="100%" height="100%" overflow="visible" style="display: block;" viewBox="0 0 40 40" fill="none" xmlns="http://www.w3.org/2000/svg">
<g id="Exam">
<path id="Vector" d="M33.75 6.25H6.25C5.58696 6.25 4.95107 6.51339 4.48223 6.98223C4.01339 7.45107 3.75 8.08696 3.75 8.75V33.75C3.74985 33.9632 3.80422 34.1729 3.90794 34.3591C4.01167 34.5453 4.16131 34.702 4.34263 34.8141C4.52395 34.9262 4.73093 34.9901 4.94389 34.9996C5.15686 35.0092 5.36873 34.9642 5.55938 34.8688L10 32.6469L14.4406 34.8688C14.6143 34.9557 14.8058 35.0009 15 35.0009C15.1942 35.0009 15.3857 34.9557 15.5594 34.8688L20 32.6469L24.4406 34.8688C24.6143 34.9557 24.8058 35.0009 25 35.0009C25.1942 35.0009 25.3857 34.9557 25.5594 34.8688L30 32.6469L34.4406 34.8688C34.6313 34.9642 34.8431 35.0092 35.0561 34.9996C35.2691 34.9901 35.4761 34.9262 35.6574 34.8141C35.8387 34.702 35.9883 34.5453 36.0921 34.3591C36.1958 34.1729 36.2502 33.9632 36.25 33.75V8.75C36.25 8.08696 35.9866 7.45107 35.5178 6.98223C35.0489 6.51339 34.413 6.25 33.75 6.25ZM33.75 31.7281L30.5594 30.1313C30.3857 30.0444 30.1942 29.9991 30 29.9991C29.8058 29.9991 29.6143 30.0444 29.4406 30.1313L25 32.3531L20.5594 30.1313C20.3857 30.0444 20.1942 29.9991 20 29.9991C19.8058 29.9991 19.6143 30.0444 19.4406 30.1313L15 32.3531L10.5594 30.1313C10.3857 30.0444 10.1942 29.9991 10 29.9991C9.80581 29.9991 9.61429 30.0444 9.44063 30.1313L6.25 31.7281V8.75H33.75V31.7281Z" fill="var(--fill-0, #0B0B0B)"/>
<path id="Vector_2" d="M9.43975 26.1186C9.58664 26.1922 9.7466 26.236 9.91047 26.2477C10.0743 26.2594 10.2389 26.2387 10.3948 26.1868C10.5506 26.1348 10.6947 26.0527 10.8188 25.945C10.9429 25.8373 11.0445 25.7062 11.1179 25.5592L12.021 23.7498H17.9772L18.8804 25.5592C18.9538 25.7061 19.0555 25.8371 19.1796 25.9448C19.3037 26.0524 19.4478 26.1345 19.6036 26.1865C19.7594 26.2384 19.9239 26.2591 20.0878 26.2475C20.2516 26.2359 20.4116 26.1921 20.5585 26.1186C20.7054 26.0451 20.8364 25.9435 20.944 25.8194C21.0517 25.6953 21.1338 25.5512 21.1857 25.3954C21.2377 25.2396 21.2584 25.075 21.2468 24.9112C21.2351 24.7473 21.1913 24.5874 21.1179 24.4405L16.1179 14.4405C16.0142 14.2325 15.8546 14.0575 15.657 13.9352C15.4593 13.8128 15.2315 13.748 14.9991 13.748C14.7667 13.748 14.5389 13.8128 14.3413 13.9352C14.1437 14.0575 13.984 14.2325 13.8804 14.4405L8.88037 24.4405C8.80681 24.5874 8.76292 24.7473 8.75122 24.9112C8.73952 25.0751 8.76024 25.2396 8.81219 25.3955C8.86414 25.5513 8.94631 25.6954 9.05399 25.8195C9.16167 25.9436 9.29276 26.0452 9.43975 26.1186ZM14.9991 17.7952L16.7272 21.2498H13.271L14.9991 17.7952ZM21.2491 19.9998C21.2491 19.6683 21.3808 19.3504 21.6152 19.116C21.8497 18.8815 22.1676 18.7498 22.4991 18.7498H24.9991V16.2498C24.9991 15.9183 25.1308 15.6004 25.3652 15.366C25.5997 15.1315 25.9176 14.9998 26.2491 14.9998C26.5806 14.9998 26.8986 15.1315 27.133 15.366C27.3674 15.6004 27.4991 15.9183 27.4991 16.2498V18.7498H29.9991C30.3306 18.7498 30.6486 18.8815 30.883 19.116C31.1174 19.3504 31.2491 19.6683 31.2491 19.9998C31.2491 20.3314 31.1174 20.6493 30.883 20.8837C30.6486 21.1181 30.3306 21.2498 29.9991 21.2498H27.4991V23.7498C27.4991 24.0814 27.3674 24.3993 27.133 24.6337C26.8986 24.8681 26.5806 24.9998 26.2491 24.9998C25.9176 24.9998 25.5997 24.8681 25.3652 24.6337C25.1308 24.3993 24.9991 24.0814 24.9991 23.7498V21.2498H22.4991C22.1676 21.2498 21.8497 21.1181 21.6152 20.8837C21.3808 20.6493 21.2491 20.3314 21.2491 19.9998Z" fill="var(--fill-0, #FFB01E)"/>
</g>
</svg>
