<svg width="68" height="68" viewBox="0 0 68 68" fill="none" xmlns="http://www.w3.org/2000/svg">
<path d="M34 14.4375C35.8964 14.4375 37.3058 15.7667 38.5439 16.9541C38.8574 17.2547 39.1872 17.5709 39.501 17.8369C39.8087 18.0977 40.1318 18.3379 40.4355 18.4639C40.7166 18.5802 41.1079 18.6314 41.4902 18.6592C41.8836 18.6878 42.32 18.6932 42.7158 18.6992V18.7002C44.4638 18.7317 46.4365 18.7741 47.832 20.168C49.2273 21.5617 49.2736 23.5367 49.2998 25.2832C49.3058 25.6793 49.3122 26.1161 49.3408 26.5098C49.3686 26.8921 49.4198 27.2834 49.5361 27.5645C49.6621 27.8682 49.9023 28.1913 50.1631 28.499C50.4291 28.8128 50.7453 29.1426 51.0459 29.4561C52.2333 30.6942 53.5625 32.1036 53.5625 34C53.5625 35.8964 52.2333 37.3058 51.0459 38.5439C50.7453 38.8574 50.4291 39.1872 50.1631 39.501C49.9023 39.8087 49.6621 40.1318 49.5361 40.4355C49.4198 40.7166 49.3686 41.1079 49.3408 41.4902C49.3122 41.8836 49.3058 42.32 49.2998 42.7158C49.2683 44.4638 49.2259 46.4365 47.832 47.832C46.4383 49.2273 44.4633 49.2736 42.7168 49.2998C42.3207 49.3058 41.8839 49.3122 41.4902 49.3408C41.1079 49.3686 40.7166 49.4198 40.4355 49.5361C40.1318 49.6621 39.8087 49.9023 39.501 50.1631C39.1872 50.4291 38.8574 50.7453 38.5439 51.0459C37.3062 52.233 35.888 53.5625 34 53.5625C32.3474 53.5625 31.0549 52.5446 29.9277 51.5L29.4551 51.0537C29.1418 50.7532 28.8126 50.4377 28.499 50.1719C28.1913 49.911 27.8682 49.6709 27.5645 49.5449C27.2834 49.4286 26.8921 49.3774 26.5098 49.3496C26.1161 49.321 25.6793 49.3146 25.2832 49.3086H25.2842C23.5362 49.2771 21.5635 49.2346 20.168 47.8408C18.7727 46.4471 18.7264 44.4721 18.7002 42.7256C18.6942 42.3293 18.6878 41.8919 18.6592 41.498C18.6314 41.1158 18.5802 40.7253 18.4639 40.4443C18.338 40.1407 18.0977 39.8175 17.8369 39.5098C17.5709 39.196 17.2547 38.8662 16.9541 38.5527C15.7664 37.3055 14.4375 35.8879 14.4375 34C14.4375 32.112 15.767 30.6938 16.9541 29.4561C17.2547 29.1426 17.5709 28.8128 17.8369 28.499C18.0977 28.1913 18.3379 27.8682 18.4639 27.5645C18.5802 27.2834 18.6314 26.8921 18.6592 26.5098C18.6877 26.1167 18.6942 25.6807 18.7002 25.2852C18.7351 23.5376 18.7805 21.5704 20.1719 20.1709C21.5618 18.7731 23.5342 18.7342 25.2842 18.6992C25.68 18.6932 26.1164 18.6878 26.5098 18.6592C26.8921 18.6314 27.2834 18.5802 27.5645 18.4639C27.8682 18.3379 28.1913 18.0977 28.499 17.8369C28.8128 17.5709 29.1426 17.2547 29.4561 16.9541C30.6942 15.7667 32.1036 14.4375 34 14.4375ZM34 17.8125C33.7874 17.8125 33.5764 17.9168 33.415 18.0137C33.2379 18.12 33.0479 18.2631 32.8623 18.417C32.4919 18.7241 32.1014 19.1047 31.7998 19.4053C30.9273 20.2413 29.9919 21.1267 28.8652 21.5957C27.7728 22.0423 26.5799 22.0649 25.3418 22.084C24.8832 22.0908 24.323 22.1014 23.832 22.1533C23.5867 22.1792 23.347 22.2163 23.1396 22.2725C22.9434 22.3256 22.7257 22.409 22.5703 22.5566C22.4091 22.7098 22.32 22.9313 22.2646 23.127C22.206 23.3344 22.168 23.575 22.1416 23.8203C22.0888 24.3113 22.0786 24.8756 22.0684 25.3311V25.3359C22.0562 26.572 22.0334 27.7636 21.5811 28.8545V28.8555C21.1123 29.9893 20.2266 30.9239 19.3906 31.791L19.3896 31.792C19.0989 32.0955 18.7197 32.4901 18.4141 32.8623C18.2615 33.0481 18.1196 33.238 18.0137 33.415C17.9172 33.5763 17.8125 33.7873 17.8125 34C17.8125 34.2126 17.9171 34.4236 18.0137 34.585C18.1197 34.7622 18.262 34.9524 18.415 35.1387C18.7217 35.5119 19.1022 35.9088 19.3965 36.2158C20.2323 37.0881 21.1178 38.0231 21.5869 39.1494V39.1504C21.9218 39.9696 22.0185 40.8451 22.0537 41.7539L22.0752 42.6738C22.082 43.1309 22.0909 43.6937 22.1416 44.1855C22.167 44.4313 22.2038 44.6719 22.2607 44.8799C22.3145 45.0764 22.3994 45.2971 22.5537 45.4521C22.7086 45.6078 22.9295 45.6932 23.126 45.7471C23.3342 45.8042 23.5752 45.8409 23.8213 45.8662C24.3135 45.9168 24.8771 45.9248 25.334 45.9316H25.3359C26.572 45.9438 27.7636 45.9666 28.8545 46.4189H28.8555C29.9893 46.8877 30.9239 47.7734 31.791 48.6094L31.792 48.6104C32.0955 48.9011 32.4901 49.2803 32.8623 49.5859C33.0481 49.7385 33.238 49.8804 33.415 49.9863C33.5763 50.0828 33.7873 50.1875 34 50.1875C34.2126 50.1875 34.4236 50.0829 34.585 49.9863C34.7622 49.8803 34.9524 49.738 35.1387 49.585C35.5119 49.2783 35.9088 48.8978 36.2158 48.6035C37.0883 47.7675 38.0237 46.8821 39.1504 46.4131C40.2428 45.9665 41.4357 45.9439 42.6738 45.9248L42.6729 45.9238C43.13 45.917 43.6935 45.9092 44.1855 45.8584C44.4313 45.833 44.6719 45.7962 44.8799 45.7393C45.0764 45.6855 45.2971 45.6006 45.4521 45.4463C45.6078 45.2914 45.6932 45.0705 45.7471 44.874C45.8042 44.6658 45.8409 44.4248 45.8662 44.1787C45.9168 43.6865 45.9248 43.1229 45.9316 42.666V42.6641C45.9438 41.428 45.9666 40.2364 46.4189 39.1455V39.1445C46.8877 38.0107 47.7734 37.0761 48.6094 36.209L48.6104 36.208C48.9022 35.9033 49.2788 35.5072 49.583 35.1328C49.7347 34.9461 49.8763 34.7557 49.9814 34.5781C50.0772 34.4162 50.1807 34.2047 50.1807 33.9932C50.1807 33.7805 50.076 33.5694 49.9795 33.4082C49.8736 33.2312 49.7317 33.0413 49.5791 32.8555C49.2733 32.4831 48.8943 32.0878 48.6035 31.7842C47.8192 30.9657 46.9915 30.0919 46.5049 29.0566L46.4121 28.8477C45.9663 27.7558 45.9439 26.5636 45.9248 25.3262C45.918 24.8691 45.9091 24.3063 45.8584 23.8145C45.833 23.5687 45.7962 23.3281 45.7393 23.1201C45.6855 22.9236 45.6006 22.7029 45.4463 22.5479C45.2914 22.3922 45.0705 22.3068 44.874 22.2529C44.6658 22.1958 44.4248 22.1591 44.1787 22.1338C43.6865 22.0832 43.1229 22.0752 42.666 22.0684H42.6641C41.428 22.0562 40.2364 22.0334 39.1455 21.5811H39.1445C38.0107 21.1123 37.0761 20.2266 36.209 19.3906L36.208 19.3896C35.9045 19.0989 35.5099 18.7197 35.1377 18.4141C34.9519 18.2615 34.762 18.1196 34.585 18.0137C34.4237 17.9172 34.2127 17.8125 34 17.8125ZM40.875 28.1836C41.0968 28.184 41.3168 28.2282 41.5215 28.3135C41.7261 28.3988 41.912 28.5235 42.0684 28.6807L42.0693 28.6816C42.2266 28.8384 42.3514 29.0245 42.4365 29.2295C42.5217 29.4346 42.5654 29.6549 42.5654 29.877C42.5654 30.0989 42.5216 30.3185 42.4365 30.5234C42.3727 30.6772 42.2871 30.8211 42.1816 30.9492L42.0693 31.0723L32.4434 40.6982C32.2866 40.8554 32.1005 40.9803 31.8955 41.0654C31.6904 41.1506 31.4701 41.1943 31.248 41.1943C31.0262 41.1943 30.8065 41.1505 30.6016 41.0654C30.3965 40.9803 30.2095 40.8555 30.0527 40.6982V40.6973L25.9277 36.5723C25.7707 36.4152 25.6455 36.2286 25.5605 36.0234C25.4757 35.8185 25.4326 35.5988 25.4326 35.377C25.4326 35.1549 25.4756 34.9346 25.5605 34.7295C25.6455 34.5243 25.7707 34.3377 25.9277 34.1807C26.0847 34.0238 26.2715 33.8994 26.4766 33.8145C26.6816 33.7296 26.9012 33.6856 27.123 33.6855C27.3451 33.6855 27.5653 33.7295 27.7705 33.8145C27.9756 33.8994 28.1623 34.0237 28.3193 34.1807L30.9854 36.8438L31.25 37.1084L31.5156 36.8438L39.6807 28.6758C39.8375 28.5193 40.0237 28.3951 40.2285 28.3105C40.4334 28.226 40.6534 28.1833 40.875 28.1836Z" fill="white" stroke="#0B0B0B" stroke-width="0.75"/>
<path d="M40.875 28.1836C41.0966 28.184 41.3159 28.2283 41.5205 28.3135C41.7252 28.3988 41.9119 28.5235 42.0684 28.6807L42.0693 28.6816C42.2265 28.8383 42.3514 29.0245 42.4365 29.2295C42.5217 29.4346 42.5654 29.6549 42.5654 29.877C42.5654 30.0991 42.5217 30.3193 42.4365 30.5244C42.3514 30.7294 42.2265 30.9156 42.0693 31.0723L32.4434 40.6982C32.2866 40.8556 32.0997 40.9803 31.8945 41.0654C31.6896 41.1505 31.47 41.1943 31.248 41.1943C31.0259 41.1943 30.8057 41.1506 30.6006 41.0654C30.3956 40.9803 30.2095 40.8555 30.0527 40.6982H30.0518L25.9268 36.5732C25.7698 36.4163 25.6455 36.2295 25.5605 36.0244C25.4756 35.8192 25.4316 35.599 25.4316 35.377C25.4316 35.1549 25.4756 34.9346 25.5605 34.7295C25.6455 34.5246 25.77 34.3385 25.9268 34.1816C26.0838 34.0246 26.2704 33.8994 26.4756 33.8145C26.6807 33.7295 26.901 33.6855 27.123 33.6855C27.3449 33.6856 27.5646 33.7296 27.7695 33.8145C27.9747 33.8994 28.1613 34.0246 28.3184 34.1816L30.9844 36.8438L31.25 37.1084L31.5146 36.8438L39.6797 28.6768C39.8367 28.5202 40.0235 28.3961 40.2285 28.3115C40.4335 28.227 40.6532 28.1832 40.875 28.1836Z" fill="#FFB01E" stroke="#0B0B0B" stroke-width="0.75"/>
</svg>
