<svg width="1440" height="711" viewBox="0 0 1440 711" fill="none" xmlns="http://www.w3.org/2000/svg">
<mask id="mask0_169_2295" style="mask-type:luminance" maskUnits="userSpaceOnUse" x="0" y="0" width="1440" height="711">
<path d="M1439.5 0.5V710.5H0.5V0.5H1439.5Z" fill="white" stroke="white"/>
</mask>
<g mask="url(#mask0_169_2295)">
<path d="M68.75 0H0V57.2917H68.75V0Z" stroke="#F2EBDE" stroke-width="1.14583"/>
<path d="M137.502 0H68.7515V57.2917H137.502V0Z" stroke="#F2EBDE" stroke-width="1.14583"/>
<path d="M206.249 0H137.499V57.2917H206.249V0Z" stroke="#F2EBDE" stroke-width="1.14583"/>
<path d="M275 0H206.25V57.2917H275V0Z" stroke="#F2EBDE" stroke-width="1.14583"/>
<path d="M343.752 0H275.001V57.2917H343.752V0Z" stroke="#F2EBDE" stroke-width="1.14583"/>
<path d="M412.499 0H343.749V57.2917H412.499V0Z" stroke="#F2EBDE" stroke-width="1.14583"/>
<path d="M481.25 0H412.5V57.2917H481.25V0Z" stroke="#F2EBDE" stroke-width="1.14583"/>
<path d="M550.001 0H481.251V57.2917H550.001V0Z" stroke="#F2EBDE" stroke-width="1.14583"/>
<path d="M618.749 0H549.999V57.2917H618.749V0Z" stroke="#F2EBDE" stroke-width="1.14583"/>
<path d="M687.5 0H618.75V57.2917H687.5V0Z" stroke="#F2EBDE" stroke-width="1.14583"/>
<path d="M756.251 0H687.501V57.2917H756.251V0Z" stroke="#F2EBDE" stroke-width="1.14583"/>
<path d="M824.999 0H756.249V57.2917H824.999V0Z" stroke="#F2EBDE" stroke-width="1.14583"/>
<path d="M893.75 0H825V57.2917H893.75V0Z" stroke="#F2EBDE" stroke-width="1.14583"/>
<path d="M962.501 0.00012207H893.751V57.2918H962.501V0.00012207Z" stroke="#F2EBDE" stroke-width="1.14583"/>
<path d="M1031.25 0H962.499V57.2917H1031.25V0Z" stroke="#F2EBDE" stroke-width="1.14583"/>
<path d="M1100 0H1031.25V57.2917H1100V0Z" stroke="#F2EBDE" stroke-width="1.14583"/>
<path d="M1168.75 0H1100V57.2917H1168.75V0Z" stroke="#F2EBDE" stroke-width="1.14583"/>
<path d="M1237.5 0H1168.75V57.2917H1237.5V0Z" stroke="#F2EBDE" stroke-width="1.14583"/>
<path d="M1306.25 0H1237.5V57.2917H1306.25V0Z" stroke="#F2EBDE" stroke-width="1.14583"/>
<path d="M1375 0.00012207H1306.25V57.2918H1375V0.00012207Z" stroke="#F2EBDE" stroke-width="1.14583"/>
<path d="M1443.74 0.00012207H1374.99V57.2918H1443.74V0.00012207Z" stroke="#F2EBDE" stroke-width="1.14583"/>
<path d="M68.75 57.293H0V114.585H68.75V57.293Z" stroke="#F2EBDE" stroke-width="1.14583"/>
<path d="M137.502 57.293H68.7515V114.585H137.502V57.293Z" stroke="#F2EBDE" stroke-width="1.14583"/>
<path d="M206.249 57.293H137.499V114.585H206.249V57.293Z" stroke="#F2EBDE" stroke-width="1.14583"/>
<path d="M275 57.293H206.25V114.585H275V57.293Z" stroke="#F2EBDE" stroke-width="1.14583"/>
<path d="M343.752 57.293H275.001V114.585H343.752V57.293Z" stroke="#F2EBDE" stroke-width="1.14583"/>
<path d="M412.499 57.293H343.749V114.585H412.499V57.293Z" stroke="#F2EBDE" stroke-width="1.14583"/>
<path d="M481.25 57.293H412.5V114.585H481.25V57.293Z" stroke="#F2EBDE" stroke-width="1.14583"/>
<path d="M550.001 57.293H481.251V114.585H550.001V57.293Z" stroke="#F2EBDE" stroke-width="1.14583"/>
<path d="M618.749 57.293H549.999V114.585H618.749V57.293Z" stroke="#F2EBDE" stroke-width="1.14583"/>
<path d="M687.5 57.293H618.75V114.585H687.5V57.293Z" stroke="#F2EBDE" stroke-width="1.14583"/>
<path d="M756.251 57.293H687.501V114.585H756.251V57.293Z" stroke="#F2EBDE" stroke-width="1.14583"/>
<path d="M824.999 57.293H756.249V114.585H824.999V57.293Z" stroke="#F2EBDE" stroke-width="1.14583"/>
<path d="M893.75 57.293H825V114.585H893.75V57.293Z" stroke="#F2EBDE" stroke-width="1.14583"/>
<path d="M962.501 57.293H893.751V114.585H962.501V57.293Z" stroke="#F2EBDE" stroke-width="1.14583"/>
<path d="M1031.25 57.293H962.499V114.585H1031.25V57.293Z" stroke="#F2EBDE" stroke-width="1.14583"/>
<path d="M1100 57.293H1031.25V114.585H1100V57.293Z" stroke="#F2EBDE" stroke-width="1.14583"/>
<path d="M1168.75 57.293H1100V114.585H1168.75V57.293Z" stroke="#F2EBDE" stroke-width="1.14583"/>
<path d="M1237.5 57.293H1168.75V114.585H1237.5V57.293Z" stroke="#F2EBDE" stroke-width="1.14583"/>
<path d="M1306.25 57.293H1237.5V114.585H1306.25V57.293Z" stroke="#F2EBDE" stroke-width="1.14583"/>
<path d="M1375 57.293H1306.25V114.585H1375V57.293Z" stroke="#F2EBDE" stroke-width="1.14583"/>
<path d="M1443.74 57.293H1374.99V114.585H1443.74V57.293Z" stroke="#F2EBDE" stroke-width="1.14583"/>
<path d="M68.75 114.582H0V171.874H68.75V114.582Z" stroke="#F2EBDE" stroke-width="1.14583"/>
<path d="M137.502 114.582H68.7515V171.874H137.502V114.582Z" stroke="#F2EBDE" stroke-width="1.14583"/>
<path d="M206.249 114.582H137.499V171.874H206.249V114.582Z" stroke="#F2EBDE" stroke-width="1.14583"/>
<path d="M275 114.582H206.25V171.874H275V114.582Z" stroke="#F2EBDE" stroke-width="1.14583"/>
<path d="M343.752 114.582H275.001V171.874H343.752V114.582Z" stroke="#F2EBDE" stroke-width="1.14583"/>
<path d="M412.499 114.582H343.749V171.874H412.499V114.582Z" stroke="#F2EBDE" stroke-width="1.14583"/>
<path d="M550.001 114.582H481.251V171.874H550.001V114.582Z" stroke="#F2EBDE" stroke-width="1.14583"/>
<path d="M618.749 114.582H549.999V171.874H618.749V114.582Z" stroke="#F2EBDE" stroke-width="1.14583"/>
<path d="M687.5 114.582H618.75V171.874H687.5V114.582Z" stroke="#F2EBDE" stroke-width="1.14583"/>
<path d="M756.251 114.582H687.501V171.874H756.251V114.582Z" stroke="#F2EBDE" stroke-width="1.14583"/>
<path d="M824.999 114.582H756.249V171.874H824.999V114.582Z" stroke="#F2EBDE" stroke-width="1.14583"/>
<path d="M893.75 114.582H825V171.874H893.75V114.582Z" stroke="#F2EBDE" stroke-width="1.14583"/>
<path d="M962.501 114.582H893.751V171.874H962.501V114.582Z" stroke="#F2EBDE" stroke-width="1.14583"/>
<path d="M1031.25 114.582H962.499V171.874H1031.25V114.582Z" stroke="#F2EBDE" stroke-width="1.14583"/>
<path d="M1100 114.582H1031.25V171.874H1100V114.582Z" stroke="#F2EBDE" stroke-width="1.14583"/>
<path d="M1237.5 114.582H1168.75V171.874H1237.5V114.582Z" stroke="#F2EBDE" stroke-width="1.14583"/>
<path d="M1306.25 114.582H1237.5V171.874H1306.25V114.582Z" stroke="#F2EBDE" stroke-width="1.14583"/>
<path d="M1375 114.582H1306.25V171.874H1375V114.582Z" stroke="#F2EBDE" stroke-width="1.14583"/>
<path d="M1443.74 114.582H1374.99V171.874H1443.74V114.582Z" stroke="#F2EBDE" stroke-width="1.14583"/>
<path d="M68.75 171.875H0V229.167H68.75V171.875Z" stroke="#F2EBDE" stroke-width="1.14583"/>
<path d="M137.502 171.875H68.7515V229.167H137.502V171.875Z" stroke="#F2EBDE" stroke-width="1.14583"/>
<path d="M206.249 171.875H137.499V229.167H206.249V171.875Z" stroke="#F2EBDE" stroke-width="1.14583"/>
<path d="M275 171.875H206.25V229.167H275V171.875Z" stroke="#F2EBDE" stroke-width="1.14583"/>
<path d="M343.752 171.875H275.001V229.167H343.752V171.875Z" stroke="#F2EBDE" stroke-width="1.14583"/>
<path d="M412.499 171.875H343.749V229.167H412.499V171.875Z" stroke="#F2EBDE" stroke-width="1.14583"/>
<path d="M481.25 171.875H412.5V229.167H481.25V171.875Z" stroke="#F2EBDE" stroke-width="1.14583"/>
<path d="M550.001 171.875H481.251V229.167H550.001V171.875Z" stroke="#F2EBDE" stroke-width="1.14583"/>
<path d="M618.749 171.875H549.999V229.167H618.749V171.875Z" stroke="#F2EBDE" stroke-width="1.14583"/>
<path d="M687.5 171.875H618.75V229.167H687.5V171.875Z" stroke="#F2EBDE" stroke-width="1.14583"/>
<path d="M756.251 171.875H687.501V229.167H756.251V171.875Z" stroke="#F2EBDE" stroke-width="1.14583"/>
<path d="M824.999 171.875H756.249V229.167H824.999V171.875Z" stroke="#F2EBDE" stroke-width="1.14583"/>
<path d="M893.75 171.875H825V229.167H893.75V171.875Z" stroke="#F2EBDE" stroke-width="1.14583"/>
<path d="M962.501 171.875H893.751V229.167H962.501V171.875Z" stroke="#F2EBDE" stroke-width="1.14583"/>
<path d="M1031.25 171.875H962.499V229.167H1031.25V171.875Z" stroke="#F2EBDE" stroke-width="1.14583"/>
<path d="M1100 171.875H1031.25V229.167H1100V171.875Z" stroke="#F2EBDE" stroke-width="1.14583"/>
<path d="M1168.75 171.875H1100V229.167H1168.75V171.875Z" stroke="#F2EBDE" stroke-width="1.14583"/>
<path d="M1237.5 171.875H1168.75V229.167H1237.5V171.875Z" stroke="#F2EBDE" stroke-width="1.14583"/>
<path d="M1306.25 171.875H1237.5V229.167H1306.25V171.875Z" stroke="#F2EBDE" stroke-width="1.14583"/>
<path d="M1375 171.875H1306.25V229.167H1375V171.875Z" stroke="#F2EBDE" stroke-width="1.14583"/>
<path d="M1443.74 171.875H1374.99V229.167H1443.74V171.875Z" stroke="#F2EBDE" stroke-width="1.14583"/>
<path d="M68.75 229.168H0V286.46H68.75V229.168Z" stroke="#F2EBDE" stroke-width="1.14583"/>
<path d="M137.502 229.168H68.7515V286.46H137.502V229.168Z" stroke="#F2EBDE" stroke-width="1.14583"/>
<path d="M206.249 229.168H137.499V286.46H206.249V229.168Z" stroke="#F2EBDE" stroke-width="1.14583"/>
<path d="M275 229.168H206.25V286.46H275V229.168Z" stroke="#F2EBDE" stroke-width="1.14583"/>
<path d="M343.752 229.168H275.001V286.46H343.752V229.168Z" stroke="#F2EBDE" stroke-width="1.14583"/>
<path d="M412.499 229.168H343.749V286.46H412.499V229.168Z" stroke="#F2EBDE" stroke-width="1.14583"/>
<path d="M481.25 229.168H412.5V286.46H481.25V229.168Z" stroke="#F2EBDE" stroke-width="1.14583"/>
<path d="M550.001 229.168H481.251V286.46H550.001V229.168Z" stroke="#F2EBDE" stroke-width="1.14583"/>
<path d="M618.749 229.168H549.999V286.46H618.749V229.168Z" stroke="#F2EBDE" stroke-width="1.14583"/>
<path d="M687.5 229.168H618.75V286.46H687.5V229.168Z" stroke="#F2EBDE" stroke-width="1.14583"/>
<path d="M756.251 229.168H687.501V286.46H756.251V229.168Z" stroke="#F2EBDE" stroke-width="1.14583"/>
<path d="M824.999 229.168H756.249V286.46H824.999V229.168Z" stroke="#F2EBDE" stroke-width="1.14583"/>
<path d="M893.75 229.168H825V286.46H893.75V229.168Z" stroke="#F2EBDE" stroke-width="1.14583"/>
<path d="M962.501 229.168H893.751V286.46H962.501V229.168Z" stroke="#F2EBDE" stroke-width="1.14583"/>
<path d="M1031.25 229.168H962.499V286.46H1031.25V229.168Z" stroke="#F2EBDE" stroke-width="1.14583"/>
<path d="M1100 229.168H1031.25V286.46H1100V229.168Z" stroke="#F2EBDE" stroke-width="1.14583"/>
<path d="M1168.75 229.168H1100V286.46H1168.75V229.168Z" stroke="#F2EBDE" stroke-width="1.14583"/>
<path d="M1237.5 229.168H1168.75V286.46H1237.5V229.168Z" stroke="#F2EBDE" stroke-width="1.14583"/>
<path d="M1306.25 229.168H1237.5V286.46H1306.25V229.168Z" stroke="#F2EBDE" stroke-width="1.14583"/>
<path d="M1375 229.168H1306.25V286.46H1375V229.168Z" stroke="#F2EBDE" stroke-width="1.14583"/>
<path d="M1443.74 229.168H1374.99V286.46H1443.74V229.168Z" stroke="#F2EBDE" stroke-width="1.14583"/>
<path d="M68.75 286.457H0V343.749H68.75V286.457Z" stroke="#F2EBDE" stroke-width="1.14583"/>
<path d="M137.502 286.457H68.7515V343.749H137.502V286.457Z" stroke="#F2EBDE" stroke-width="1.14583"/>
<path d="M206.249 286.457H137.499V343.749H206.249V286.457Z" stroke="#F2EBDE" stroke-width="1.14583"/>
<path d="M137.15 286.457H68.4004V343.749H137.15V286.457Z" fill="#FFF4E0" stroke="#F2EBDE" stroke-width="1.14583"/>
<path d="M343.752 286.457H275.001V343.749H343.752V286.457Z" stroke="#F2EBDE" stroke-width="1.14583"/>
<path d="M412.499 286.457H343.749V343.749H412.499V286.457Z" stroke="#F2EBDE" stroke-width="1.14583"/>
<path d="M481.25 286.457H412.5V343.749H481.25V286.457Z" stroke="#F2EBDE" stroke-width="1.14583"/>
<path d="M550.001 286.457H481.251V343.749H550.001V286.457Z" stroke="#F2EBDE" stroke-width="1.14583"/>
<path d="M618.749 286.457H549.999V343.749H618.749V286.457Z" stroke="#F2EBDE" stroke-width="1.14583"/>
<path d="M687.5 286.457H618.75V343.749H687.5V286.457Z" stroke="#F2EBDE" stroke-width="1.14583"/>
<path d="M756.251 286.457H687.501V343.749H756.251V286.457Z" stroke="#F2EBDE" stroke-width="1.14583"/>
<path d="M824.999 286.457H756.249V343.749H824.999V286.457Z" stroke="#F2EBDE" stroke-width="1.14583"/>
<path d="M893.75 286.457H825V343.749H893.75V286.457Z" stroke="#F2EBDE" stroke-width="1.14583"/>
<path d="M962.501 286.457H893.751V343.749H962.501V286.457Z" stroke="#F2EBDE" stroke-width="1.14583"/>
<path d="M1031.25 286.457H962.499V343.749H1031.25V286.457Z" stroke="#F2EBDE" stroke-width="1.14583"/>
<path d="M1100 286.457H1031.25V343.749H1100V286.457Z" stroke="#F2EBDE" stroke-width="1.14583"/>
<path d="M1168.75 286.457H1100V343.749H1168.75V286.457Z" stroke="#F2EBDE" stroke-width="1.14583"/>
<path d="M1374.3 286.457H1305.55V343.749H1374.3V286.457Z" fill="#FFF4E0" stroke="#F2EBDE" stroke-width="1.14583"/>
<path d="M1306.25 286.457H1237.5V343.749H1306.25V286.457Z" stroke="#F2EBDE" stroke-width="1.14583"/>
<path d="M1375 286.457H1306.25V343.749H1375V286.457Z" stroke="#F2EBDE" stroke-width="1.14583"/>
<path d="M1443.74 286.457H1374.99V343.749H1443.74V286.457Z" stroke="#F2EBDE" stroke-width="1.14583"/>
<path d="M68.75 343.75H0V401.042H68.75V343.75Z" stroke="#F2EBDE" stroke-width="1.14583"/>
<path d="M137.502 343.75H68.7515V401.042H137.502V343.75Z" stroke="#F2EBDE" stroke-width="1.14583"/>
<path d="M206.249 343.75H137.499V401.042H206.249V343.75Z" stroke="#F2EBDE" stroke-width="1.14583"/>
<path d="M275 343.75H206.25V401.042H275V343.75Z" stroke="#F2EBDE" stroke-width="1.14583"/>
<path d="M343.752 343.75H275.001V401.042H343.752V343.75Z" stroke="#F2EBDE" stroke-width="1.14583"/>
<path d="M412.499 343.75H343.749V401.042H412.499V343.75Z" stroke="#F2EBDE" stroke-width="1.14583"/>
<path d="M481.25 343.75H412.5V401.042H481.25V343.75Z" stroke="#F2EBDE" stroke-width="1.14583"/>
<path d="M550.001 343.75H481.251V401.042H550.001V343.75Z" stroke="#F2EBDE" stroke-width="1.14583"/>
<path d="M618.749 343.75H549.999V401.042H618.749V343.75Z" stroke="#F2EBDE" stroke-width="1.14583"/>
<path d="M687.5 343.75H618.75V401.042H687.5V343.75Z" stroke="#F2EBDE" stroke-width="1.14583"/>
<path d="M756.251 343.75H687.501V401.042H756.251V343.75Z" stroke="#F2EBDE" stroke-width="1.14583"/>
<path d="M824.999 343.75H756.249V401.042H824.999V343.75Z" stroke="#F2EBDE" stroke-width="1.14583"/>
<path d="M893.75 343.75H825V401.042H893.75V343.75Z" stroke="#F2EBDE" stroke-width="1.14583"/>
<path d="M962.501 343.75H893.751V401.042H962.501V343.75Z" stroke="#F2EBDE" stroke-width="1.14583"/>
<path d="M1031.25 343.75H962.499V401.042H1031.25V343.75Z" stroke="#F2EBDE" stroke-width="1.14583"/>
<path d="M1100 343.75H1031.25V401.042H1100V343.75Z" stroke="#F2EBDE" stroke-width="1.14583"/>
<path d="M1168.75 343.75H1100V401.042H1168.75V343.75Z" stroke="#F2EBDE" stroke-width="1.14583"/>
<path d="M1237.5 343.75H1168.75V401.042H1237.5V343.75Z" stroke="#F2EBDE" stroke-width="1.14583"/>
<path d="M1306.25 343.75H1237.5V401.042H1306.25V343.75Z" stroke="#F2EBDE" stroke-width="1.14583"/>
<path d="M1375 343.75H1306.25V401.042H1375V343.75Z" stroke="#F2EBDE" stroke-width="1.14583"/>
<path d="M1443.74 343.75H1374.99V401.042H1443.74V343.75Z" stroke="#F2EBDE" stroke-width="1.14583"/>
<path d="M68.75 401.043H0V458.335H68.75V401.043Z" stroke="#F2EBDE" stroke-width="1.14583"/>
<path d="M137.502 401.043H68.7515V458.335H137.502V401.043Z" stroke="#F2EBDE" stroke-width="1.14583"/>
<path d="M206.249 401.043H137.499V458.335H206.249V401.043Z" stroke="#F2EBDE" stroke-width="1.14583"/>
<path d="M275 401.043H206.25V458.335H275V401.043Z" stroke="#F2EBDE" stroke-width="1.14583"/>
<path d="M343.752 401.043H275.001V458.335H343.752V401.043Z" stroke="#F2EBDE" stroke-width="1.14583"/>
<path d="M412.499 401.043H343.749V458.335H412.499V401.043Z" stroke="#F2EBDE" stroke-width="1.14583"/>
<path d="M481.25 401.043H412.5V458.335H481.25V401.043Z" stroke="#F2EBDE" stroke-width="1.14583"/>
<path d="M550.001 401.043H481.251V458.335H550.001V401.043Z" stroke="#F2EBDE" stroke-width="1.14583"/>
<path d="M618.749 401.043H549.999V458.335H618.749V401.043Z" stroke="#F2EBDE" stroke-width="1.14583"/>
<path d="M687.5 401.043H618.75V458.335H687.5V401.043Z" stroke="#F2EBDE" stroke-width="1.14583"/>
<path d="M756.251 401.043H687.501V458.335H756.251V401.043Z" stroke="#F2EBDE" stroke-width="1.14583"/>
<path d="M824.999 401.043H756.249V458.335H824.999V401.043Z" stroke="#F2EBDE" stroke-width="1.14583"/>
<path d="M893.75 401.043H825V458.335H893.75V401.043Z" stroke="#F2EBDE" stroke-width="1.14583"/>
<path d="M962.501 401.043H893.751V458.335H962.501V401.043Z" stroke="#F2EBDE" stroke-width="1.14583"/>
<path d="M1031.25 401.043H962.499V458.335H1031.25V401.043Z" stroke="#F2EBDE" stroke-width="1.14583"/>
<path d="M1100 401.043H1031.25V458.335H1100V401.043Z" stroke="#F2EBDE" stroke-width="1.14583"/>
<path d="M1168.75 401.043H1100V458.335H1168.75V401.043Z" stroke="#F2EBDE" stroke-width="1.14583"/>
<path d="M1237.5 401.043H1168.75V458.335H1237.5V401.043Z" stroke="#F2EBDE" stroke-width="1.14583"/>
<path d="M1306.25 401.043H1237.5V458.335H1306.25V401.043Z" stroke="#F2EBDE" stroke-width="1.14583"/>
<path d="M1375 401.043H1306.25V458.335H1375V401.043Z" stroke="#F2EBDE" stroke-width="1.14583"/>
<path d="M1443.74 401.043H1374.99V458.335H1443.74V401.043Z" stroke="#F2EBDE" stroke-width="1.14583"/>
<path d="M68.75 458.334H0V515.626H68.75V458.334Z" stroke="#F2EBDE" stroke-width="1.14583"/>
<path d="M137.502 458.334H68.7515V515.626H137.502V458.334Z" stroke="#F2EBDE" stroke-width="1.14583"/>
<path d="M206.249 458.334H137.499V515.626H206.249V458.334Z" stroke="#F2EBDE" stroke-width="1.14583"/>
<path d="M275 458.334H206.25V515.626H275V458.334Z" stroke="#F2EBDE" stroke-width="1.14583"/>
<path d="M343.752 458.334H275.001V515.626H343.752V458.334Z" stroke="#F2EBDE" stroke-width="1.14583"/>
<path d="M412.499 458.334H343.749V515.626H412.499V458.334Z" stroke="#F2EBDE" stroke-width="1.14583"/>
<path d="M481.25 458.334H412.5V515.626H481.25V458.334Z" stroke="#F2EBDE" stroke-width="1.14583"/>
<path d="M550.001 458.334H481.251V515.626H550.001V458.334Z" stroke="#F2EBDE" stroke-width="1.14583"/>
<path d="M618.749 458.334H549.999V515.626H618.749V458.334Z" stroke="#F2EBDE" stroke-width="1.14583"/>
<path d="M687.5 458.334H618.75V515.626H687.5V458.334Z" stroke="#F2EBDE" stroke-width="1.14583"/>
<path d="M756.251 458.334H687.501V515.626H756.251V458.334Z" stroke="#F2EBDE" stroke-width="1.14583"/>
<path d="M824.999 458.334H756.249V515.626H824.999V458.334Z" stroke="#F2EBDE" stroke-width="1.14583"/>
<path d="M893.75 458.334H825V515.626H893.75V458.334Z" stroke="#F2EBDE" stroke-width="1.14583"/>
<path d="M962.501 458.334H893.751V515.626H962.501V458.334Z" stroke="#F2EBDE" stroke-width="1.14583"/>
<path d="M1031.25 458.334H962.499V515.626H1031.25V458.334Z" stroke="#F2EBDE" stroke-width="1.14583"/>
<path d="M1100 458.334H1031.25V515.626H1100V458.334Z" stroke="#F2EBDE" stroke-width="1.14583"/>
<path d="M1168.75 458.334H1100V515.626H1168.75V458.334Z" stroke="#F2EBDE" stroke-width="1.14583"/>
<path d="M1237.5 458.334H1168.75V515.626H1237.5V458.334Z" stroke="#F2EBDE" stroke-width="1.14583"/>
<path d="M1306.25 458.334H1237.5V515.626H1306.25V458.334Z" stroke="#F2EBDE" stroke-width="1.14583"/>
<path d="M1375 458.334H1306.25V515.626H1375V458.334Z" stroke="#F2EBDE" stroke-width="1.14583"/>
<path d="M1443.74 458.334H1374.99V515.626H1443.74V458.334Z" stroke="#F2EBDE" stroke-width="1.14583"/>
<path d="M68.75 515.625H0V572.917H68.75V515.625Z" stroke="#F2EBDE" stroke-width="1.14583"/>
<path d="M137.502 515.625H68.7515V572.917H137.502V515.625Z" stroke="#F2EBDE" stroke-width="1.14583"/>
<path d="M206.249 515.625H137.499V572.917H206.249V515.625Z" stroke="#F2EBDE" stroke-width="1.14583"/>
<path d="M275 515.625H206.25V572.917H275V515.625Z" stroke="#F2EBDE" stroke-width="1.14583"/>
<path d="M343.752 515.625H275.001V572.917H343.752V515.625Z" stroke="#F2EBDE" stroke-width="1.14583"/>
<path d="M412.499 515.625H343.749V572.917H412.499V515.625Z" stroke="#F2EBDE" stroke-width="1.14583"/>
<path d="M481.25 515.625H412.5V572.917H481.25V515.625Z" stroke="#F2EBDE" stroke-width="1.14583"/>
<path d="M550.001 515.625H481.251V572.917H550.001V515.625Z" stroke="#F2EBDE" stroke-width="1.14583"/>
<path d="M618.749 515.625H549.999V572.917H618.749V515.625Z" stroke="#F2EBDE" stroke-width="1.14583"/>
<path d="M687.5 515.625H618.75V572.917H687.5V515.625Z" stroke="#F2EBDE" stroke-width="1.14583"/>
<path d="M756.251 515.625H687.501V572.917H756.251V515.625Z" stroke="#F2EBDE" stroke-width="1.14583"/>
<path d="M824.999 515.625H756.249V572.917H824.999V515.625Z" stroke="#F2EBDE" stroke-width="1.14583"/>
<path d="M893.75 515.625H825V572.917H893.75V515.625Z" stroke="#F2EBDE" stroke-width="1.14583"/>
<path d="M962.501 515.625H893.751V572.917H962.501V515.625Z" stroke="#F2EBDE" stroke-width="1.14583"/>
<path d="M1031.25 515.625H962.499V572.917H1031.25V515.625Z" stroke="#F2EBDE" stroke-width="1.14583"/>
<path d="M1100 515.625H1031.25V572.917H1100V515.625Z" stroke="#F2EBDE" stroke-width="1.14583"/>
<path d="M1168.75 515.625H1100V572.917H1168.75V515.625Z" stroke="#F2EBDE" stroke-width="1.14583"/>
<path d="M1237.5 515.625H1168.75V572.917H1237.5V515.625Z" stroke="#F2EBDE" stroke-width="1.14583"/>
<path d="M1306.25 515.625H1237.5V572.917H1306.25V515.625Z" stroke="#F2EBDE" stroke-width="1.14583"/>
<path d="M1375 515.625H1306.25V572.917H1375V515.625Z" stroke="#F2EBDE" stroke-width="1.14583"/>
<path d="M1443.74 515.625H1374.99V572.917H1443.74V515.625Z" stroke="#F2EBDE" stroke-width="1.14583"/>
<path d="M68.75 572.918H0V630.21H68.75V572.918Z" stroke="#F2EBDE" stroke-width="1.14583"/>
<path d="M137.502 572.918H68.7515V630.21H137.502V572.918Z" stroke="#F2EBDE" stroke-width="1.14583"/>
<path d="M206.249 572.918H137.499V630.21H206.249V572.918Z" stroke="#F2EBDE" stroke-width="1.14583"/>
<path d="M275 572.918H206.25V630.21H275V572.918Z" stroke="#F2EBDE" stroke-width="1.14583"/>
<path d="M343.752 572.918H275.001V630.21H343.752V572.918Z" stroke="#F2EBDE" stroke-width="1.14583"/>
<path d="M412.499 572.918H343.749V630.21H412.499V572.918Z" stroke="#F2EBDE" stroke-width="1.14583"/>
<path d="M481.25 572.918H412.5V630.21H481.25V572.918Z" stroke="#F2EBDE" stroke-width="1.14583"/>
<path d="M550.001 572.918H481.251V630.21H550.001V572.918Z" stroke="#F2EBDE" stroke-width="1.14583"/>
<path d="M618.749 572.918H549.999V630.21H618.749V572.918Z" stroke="#F2EBDE" stroke-width="1.14583"/>
<path d="M687.5 572.918H618.75V630.21H687.5V572.918Z" stroke="#F2EBDE" stroke-width="1.14583"/>
<path d="M756.251 572.918H687.501V630.21H756.251V572.918Z" stroke="#F2EBDE" stroke-width="1.14583"/>
<path d="M824.999 572.918H756.249V630.21H824.999V572.918Z" stroke="#F2EBDE" stroke-width="1.14583"/>
<path d="M893.75 572.918H825V630.21H893.75V572.918Z" stroke="#F2EBDE" stroke-width="1.14583"/>
<path d="M962.501 572.918H893.751V630.21H962.501V572.918Z" stroke="#F2EBDE" stroke-width="1.14583"/>
<path d="M1031.25 572.918H962.499V630.21H1031.25V572.918Z" stroke="#F2EBDE" stroke-width="1.14583"/>
<path d="M1100 572.918H1031.25V630.21H1100V572.918Z" stroke="#F2EBDE" stroke-width="1.14583"/>
<path d="M1168.75 572.918H1100V630.21H1168.75V572.918Z" stroke="#F2EBDE" stroke-width="1.14583"/>
<path d="M1237.5 572.918H1168.75V630.21H1237.5V572.918Z" stroke="#F2EBDE" stroke-width="1.14583"/>
<path d="M1306.25 572.918H1237.5V630.21H1306.25V572.918Z" stroke="#F2EBDE" stroke-width="1.14583"/>
<path d="M1375 572.918H1306.25V630.21H1375V572.918Z" stroke="#F2EBDE" stroke-width="1.14583"/>
<path d="M1443.74 572.918H1374.99V630.21H1443.74V572.918Z" stroke="#F2EBDE" stroke-width="1.14583"/>
<path d="M68.75 630.209H0V687.501H68.75V630.209Z" stroke="#F2EBDE" stroke-width="1.14583"/>
<path d="M137.502 630.209H68.7515V687.501H137.502V630.209Z" stroke="#F2EBDE" stroke-width="1.14583"/>
<path d="M206.249 630.209H137.499V687.501H206.249V630.209Z" stroke="#F2EBDE" stroke-width="1.14583"/>
<path d="M275 630.209H206.25V687.501H275V630.209Z" stroke="#F2EBDE" stroke-width="1.14583"/>
<path d="M343.752 630.209H275.001V687.501H343.752V630.209Z" stroke="#F2EBDE" stroke-width="1.14583"/>
<path d="M412.499 630.209H343.749V687.501H412.499V630.209Z" stroke="#F2EBDE" stroke-width="1.14583"/>
<path d="M481.25 630.209H412.5V687.501H481.25V630.209Z" stroke="#F2EBDE" stroke-width="1.14583"/>
<path d="M550.001 630.209H481.251V687.501H550.001V630.209Z" stroke="#F2EBDE" stroke-width="1.14583"/>
<path d="M618.749 630.209H549.999V687.501H618.749V630.209Z" stroke="#F2EBDE" stroke-width="1.14583"/>
<path d="M687.5 630.209H618.75V687.501H687.5V630.209Z" stroke="#F2EBDE" stroke-width="1.14583"/>
<path d="M756.251 630.209H687.501V687.501H756.251V630.209Z" stroke="#F2EBDE" stroke-width="1.14583"/>
<path d="M824.999 630.209H756.249V687.501H824.999V630.209Z" stroke="#F2EBDE" stroke-width="1.14583"/>
<path d="M893.75 630.209H825V687.501H893.75V630.209Z" stroke="#F2EBDE" stroke-width="1.14583"/>
<path d="M962.501 630.209H893.751V687.501H962.501V630.209Z" stroke="#F2EBDE" stroke-width="1.14583"/>
<path d="M1031.25 630.209H962.499V687.501H1031.25V630.209Z" stroke="#F2EBDE" stroke-width="1.14583"/>
<path d="M1100 630.209H1031.25V687.501H1100V630.209Z" stroke="#F2EBDE" stroke-width="1.14583"/>
<path d="M1168.75 630.209H1100V687.501H1168.75V630.209Z" stroke="#F2EBDE" stroke-width="1.14583"/>
<path d="M1237.5 630.209H1168.75V687.501H1237.5V630.209Z" stroke="#F2EBDE" stroke-width="1.14583"/>
<path d="M1306.25 630.209H1237.5V687.501H1306.25V630.209Z" stroke="#F2EBDE" stroke-width="1.14583"/>
<path d="M1375 630.209H1306.25V687.501H1375V630.209Z" stroke="#F2EBDE" stroke-width="1.14583"/>
<path d="M1443.74 630.209H1374.99V687.501H1443.74V630.209Z" stroke="#F2EBDE" stroke-width="1.14583"/>
<path d="M68.75 687.5H0V744.792H68.75V687.5Z" stroke="#F2EBDE" stroke-width="1.14583"/>
<path d="M137.502 687.5H68.7515V744.792H137.502V687.5Z" stroke="#F2EBDE" stroke-width="1.14583"/>
<path d="M206.249 687.5H137.499V744.792H206.249V687.5Z" stroke="#F2EBDE" stroke-width="1.14583"/>
<path d="M275 687.5H206.25V744.792H275V687.5Z" stroke="#F2EBDE" stroke-width="1.14583"/>
<path d="M343.752 687.5H275.001V744.792H343.752V687.5Z" stroke="#F2EBDE" stroke-width="1.14583"/>
<path d="M412.499 687.5H343.749V744.792H412.499V687.5Z" stroke="#F2EBDE" stroke-width="1.14583"/>
<path d="M481.25 687.5H412.5V744.792H481.25V687.5Z" stroke="#F2EBDE" stroke-width="1.14583"/>
<path d="M550.001 687.5H481.251V744.792H550.001V687.5Z" stroke="#F2EBDE" stroke-width="1.14583"/>
<path d="M618.749 687.5H549.999V744.792H618.749V687.5Z" stroke="#F2EBDE" stroke-width="1.14583"/>
<path d="M687.5 687.5H618.75V744.792H687.5V687.5Z" stroke="#F2EBDE" stroke-width="1.14583"/>
<path d="M756.251 687.5H687.501V744.792H756.251V687.5Z" stroke="#F2EBDE" stroke-width="1.14583"/>
<path d="M824.999 687.5H756.249V744.792H824.999V687.5Z" stroke="#F2EBDE" stroke-width="1.14583"/>
<path d="M893.75 687.5H825V744.792H893.75V687.5Z" stroke="#F2EBDE" stroke-width="1.14583"/>
<path d="M962.501 687.5H893.751V744.792H962.501V687.5Z" stroke="#F2EBDE" stroke-width="1.14583"/>
<path d="M1031.25 687.5H962.499V744.792H1031.25V687.5Z" stroke="#F2EBDE" stroke-width="1.14583"/>
<path d="M1100 687.5H1031.25V744.792H1100V687.5Z" stroke="#F2EBDE" stroke-width="1.14583"/>
<path d="M1168.75 687.5H1100V744.792H1168.75V687.5Z" stroke="#F2EBDE" stroke-width="1.14583"/>
<path d="M1237.5 687.5H1168.75V744.792H1237.5V687.5Z" stroke="#F2EBDE" stroke-width="1.14583"/>
<path d="M1306.25 687.5H1237.5V744.792H1306.25V687.5Z" stroke="#F2EBDE" stroke-width="1.14583"/>
<path d="M1375 687.5H1306.25V744.792H1375V687.5Z" stroke="#F2EBDE" stroke-width="1.14583"/>
<path d="M1443.74 687.5H1374.99V744.792H1443.74V687.5Z" stroke="#F2EBDE" stroke-width="1.14583"/>
</g>
</svg>
