<svg width="68" height="68" viewBox="0 0 68 68" fill="none" xmlns="http://www.w3.org/2000/svg">
<path d="M40.874 19.8125H51.874C52.3547 19.8125 52.8163 20.0038 53.1562 20.3438C53.496 20.6836 53.6865 21.1444 53.6865 21.625V32.625C53.6865 33.1056 53.496 33.5664 53.1562 33.9062C52.8163 34.2462 52.3547 34.4375 51.874 34.4375C51.3935 34.4374 50.9326 34.2461 50.5928 33.9062C50.253 33.5664 50.0615 33.1056 50.0615 32.625V26.0059L49.6348 26.4326L36.6572 39.4131H36.6562C36.4879 39.5819 36.2876 39.7162 36.0674 39.8076C35.8473 39.8989 35.6113 39.9462 35.373 39.9463C35.1345 39.9463 34.898 39.8991 34.6777 39.8076C34.5125 39.739 34.3583 39.6465 34.2207 39.5332L34.0889 39.4131L28.6768 33.9951L28.5 33.8184L28.3223 33.9951L17.4072 44.9072C17.0667 45.2477 16.6046 45.4394 16.123 45.4395C15.6414 45.4395 15.1794 45.2478 14.8389 44.9072C14.4983 44.5666 14.3066 44.1047 14.3066 43.623C14.3067 43.1415 14.4983 42.6794 14.8389 42.3389L27.2139 29.9639C27.3823 29.7949 27.5824 29.6608 27.8027 29.5693C28.023 29.4779 28.2595 29.4307 28.498 29.4307C28.7364 29.4307 28.9723 29.478 29.1924 29.5693C29.4126 29.6608 29.6129 29.795 29.7812 29.9639H29.7822L35.1973 35.3799L35.374 35.5566L47.4932 23.4375H40.874C40.3935 23.4374 39.9326 23.2461 39.5928 22.9062C39.253 22.5664 39.0615 22.1056 39.0615 21.625C39.0615 21.1444 39.253 20.6836 39.5928 20.3438C39.8902 20.0463 40.2804 19.8625 40.6953 19.8213L40.874 19.8125Z" fill="white" stroke="#0B0B0B" stroke-width="0.5"/>
<path d="M40.875 19.8125H51.875C52.3557 19.8125 52.8163 20.0038 53.1562 20.3438C53.4962 20.6837 53.6875 21.1443 53.6875 21.625V32.625C53.6875 33.1057 53.4962 33.5663 53.1562 33.9062C52.8163 34.2462 52.3557 34.4375 51.875 34.4375C51.3943 34.4375 50.9337 34.2462 50.5938 33.9062C50.2538 33.5663 50.0625 33.1057 50.0625 32.625V23.4375H40.875C40.3943 23.4375 39.9337 23.2462 39.5938 22.9062C39.2538 22.5663 39.0625 22.1057 39.0625 21.625C39.0625 21.1443 39.2538 20.6837 39.5938 20.3438C39.9337 20.0038 40.3943 19.8125 40.875 19.8125Z" fill="#FFB01E" stroke="#FFB01E" stroke-width="0.5"/>
</svg>
