<svg width="68" height="68" viewBox="0 0 68 68" fill="none" xmlns="http://www.w3.org/2000/svg">
<path d="M21.625 39.6748C22.1256 39.6748 22.606 39.8736 22.96 40.2275C23.3139 40.5815 23.5127 41.0619 23.5127 41.5625V49.125L23.5029 49.3115C23.46 49.7436 23.2697 50.1502 22.96 50.46C22.606 50.8139 22.1256 51.0127 21.625 51.0127C21.1244 51.0127 20.644 50.8139 20.29 50.46C19.9361 50.106 19.7373 49.6256 19.7373 49.125V41.5625C19.7373 41.0619 19.9361 40.5815 20.29 40.2275C20.644 39.8736 21.1244 39.6748 21.625 39.6748ZM34 31.4248C34.5006 31.4248 34.981 31.6236 35.335 31.9775C35.6889 32.3315 35.8877 32.8119 35.8877 33.3125V49.125C35.8877 49.6256 35.6889 50.106 35.335 50.46C34.981 50.8139 34.5006 51.0127 34 51.0127C33.4994 51.0127 33.019 50.8139 32.665 50.46C32.3111 50.106 32.1123 49.6256 32.1123 49.125V33.3125C32.1123 32.8119 32.3111 32.3315 32.665 31.9775C33.019 31.6236 33.4994 31.4248 34 31.4248ZM46.375 45.1748C46.8756 45.1748 47.356 45.3736 47.71 45.7275C48.0639 46.0815 48.2627 46.5619 48.2627 47.0625V49.125L48.2529 49.3115C48.21 49.7436 48.0197 50.1502 47.71 50.46C47.356 50.8139 46.8756 51.0127 46.375 51.0127C45.8744 51.0127 45.394 50.8139 45.04 50.46C44.6861 50.106 44.4873 49.6256 44.4873 49.125V47.0625C44.4873 46.5619 44.6861 46.0815 45.04 45.7275C45.394 45.3736 45.8744 45.1748 46.375 45.1748ZM46.375 16.9873C46.8756 16.9873 47.356 17.1861 47.71 17.54C48.0639 17.894 48.2627 18.3744 48.2627 18.875V38.2998H50.5C51.0006 38.2998 51.481 38.4986 51.835 38.8525C52.1889 39.2065 52.3877 39.6869 52.3877 40.1875C52.3877 40.6881 52.1889 41.1685 51.835 41.5225C51.481 41.8764 51.0006 42.0752 50.5 42.0752H42.25C41.7494 42.0752 41.269 41.8764 40.915 41.5225C40.5611 41.1685 40.3623 40.6881 40.3623 40.1875C40.3623 39.6869 40.5611 39.2065 40.915 38.8525C41.269 38.4986 41.7494 38.2998 42.25 38.2998H44.4873V18.875C44.4873 18.3744 44.6861 17.894 45.04 17.54C45.394 17.1861 45.8744 16.9873 46.375 16.9873ZM21.625 16.9873C22.1256 16.9873 22.606 17.1861 22.96 17.54C23.3139 17.894 23.5127 18.3744 23.5127 18.875V32.7998H25.75C26.2506 32.7998 26.731 32.9986 27.085 33.3525C27.4389 33.7065 27.6377 34.1869 27.6377 34.6875C27.6377 35.1881 27.4389 35.6685 27.085 36.0225C26.731 36.3764 26.2506 36.5752 25.75 36.5752H17.5C16.9994 36.5752 16.519 36.3764 16.165 36.0225C15.8111 35.6685 15.6123 35.1881 15.6123 34.6875C15.6123 34.1869 15.8111 33.7065 16.165 33.3525C16.519 32.9986 16.9994 32.7998 17.5 32.7998H19.7373V18.875C19.7373 18.3744 19.9361 17.894 20.29 17.54C20.644 17.1861 21.1244 16.9873 21.625 16.9873ZM34 16.9873C34.5006 16.9873 34.981 17.1861 35.335 17.54C35.6889 17.894 35.8877 18.3744 35.8877 18.875V24.5498H38.125C38.6256 24.5498 39.106 24.7486 39.46 25.1025C39.8139 25.4565 40.0127 25.9369 40.0127 26.4375C40.0127 26.9381 39.8139 27.4185 39.46 27.7725C39.106 28.1264 38.6256 28.3252 38.125 28.3252H29.875C29.3744 28.3252 28.894 28.1264 28.54 27.7725C28.1861 27.4185 27.9873 26.9381 27.9873 26.4375C27.9873 25.9369 28.1861 25.4565 28.54 25.1025C28.894 24.7486 29.3744 24.5498 29.875 24.5498H32.1123V18.875C32.1123 18.3744 32.3111 17.894 32.665 17.54C33.019 17.1861 33.4994 16.9873 34 16.9873Z" fill="white" stroke="#0B0B0B" stroke-width="0.35"/>
<path d="M34 16.9873C34.5006 16.9873 34.981 17.1861 35.335 17.54C35.6889 17.894 35.8877 18.3744 35.8877 18.875V24.5498H38.125C38.6256 24.5498 39.106 24.7486 39.46 25.1025C39.8139 25.4565 40.0127 25.9369 40.0127 26.4375C40.0127 26.9381 39.8139 27.4185 39.46 27.7725C39.106 28.1264 38.6256 28.3252 38.125 28.3252H29.875C29.3744 28.3252 28.894 28.1264 28.54 27.7725C28.1861 27.4185 27.9873 26.9381 27.9873 26.4375C27.9873 25.9369 28.1861 25.4565 28.54 25.1025C28.894 24.7486 29.3744 24.5498 29.875 24.5498H32.1123V18.875C32.1123 18.3744 32.3111 17.894 32.665 17.54C33.019 17.1861 33.4994 16.9873 34 16.9873Z" fill="#FFB01E" stroke="#0B0B0B" stroke-width="0.35"/>
</svg>
