<svg width="68" height="68" viewBox="0 0 68 68" fill="none" xmlns="http://www.w3.org/2000/svg">
<path d="M26.4365 19.9287C28.6162 19.9287 30.7435 20.5988 32.5293 21.8486C34.315 23.0984 35.6735 24.8672 36.4199 26.915C37.1663 28.9629 37.2639 31.1911 36.7012 33.2969C36.1384 35.4027 34.942 37.285 33.2734 38.6875L32.8174 39.0703L33.3604 39.3154C35.9992 40.509 38.2858 42.3625 40.001 44.6963C40.2658 45.0573 40.3766 45.5086 40.3086 45.9512C40.2405 46.3936 39.9996 46.7909 39.6387 47.0557C39.2777 47.3204 38.8262 47.4312 38.3838 47.3633C37.9413 47.2952 37.5431 47.0544 37.2783 46.6934C36.0306 44.9893 34.3992 43.6029 32.5156 42.6475C30.6319 41.692 28.5487 41.1943 26.4365 41.1943C24.3244 41.1944 22.2421 41.6921 20.3584 42.6475C18.4747 43.6029 16.8425 44.9892 15.5947 46.6934C15.3299 47.054 14.9325 47.2944 14.4902 47.3623C14.0479 47.4301 13.5971 47.3194 13.2363 47.0547C12.8755 46.7899 12.6343 46.3926 12.5664 45.9502C12.4986 45.508 12.6093 45.057 12.874 44.6963C14.5882 42.3622 16.875 40.5086 19.5137 39.3154L20.0566 39.0703L19.6006 38.6875C17.932 37.285 16.7347 35.4027 16.1719 33.2969C15.6092 31.1912 15.7078 28.9629 16.4541 26.915C17.2005 24.8673 18.5591 23.0984 20.3447 21.8486C22.1303 20.599 24.2571 19.9288 26.4365 19.9287ZM38.8291 20.293C41.1621 19.6749 43.6361 19.8694 45.8438 20.8447C48.0516 21.8202 49.8616 23.5188 50.9756 25.6602C52.0895 27.8015 52.4412 30.2581 51.9727 32.626C51.5041 34.9939 50.2431 37.1318 48.3975 38.6875L47.9434 39.0713L48.4854 39.3154C51.1235 40.5083 53.41 42.3609 55.124 44.6943V44.6953C55.3869 45.0556 55.4964 45.5055 55.4287 45.9463C55.3694 46.3319 55.1787 46.6832 54.8916 46.9424L54.7627 47.0479C54.5842 47.1789 54.3811 47.2733 54.166 47.3262C53.9509 47.379 53.7277 47.389 53.5088 47.3555C53.2898 47.3219 53.0792 47.2457 52.8896 47.1309C52.7001 47.016 52.5345 46.8651 52.4033 46.6865V46.6855C51.1526 44.9848 49.5195 43.6014 47.6367 42.6465C45.754 41.6917 43.6735 41.1918 41.5625 41.1875H41.5615C41.1141 41.1874 40.6846 41.0098 40.3682 40.6934C40.0518 40.3769 39.874 39.9475 39.874 39.5C39.8741 39.0525 40.0518 38.6231 40.3682 38.3066C40.6846 37.9902 41.1141 37.8126 41.5615 37.8125H41.5625C42.5928 37.8107 43.6108 37.5893 44.5488 37.1631C45.487 36.7367 46.3239 36.115 47.0029 35.3398C47.6819 34.5648 48.1881 33.654 48.4873 32.668C48.7865 31.6819 48.8721 30.6429 48.7383 29.6211C48.6045 28.5995 48.2539 27.6179 47.7109 26.7422C47.168 25.8665 46.4444 25.1161 45.5889 24.542C44.7333 23.968 43.7651 23.5826 42.749 23.4121C41.7328 23.2416 40.6915 23.2902 39.6953 23.5537L39.6875 23.5557C39.4718 23.6181 39.2455 23.6374 39.0225 23.6113C38.7993 23.5852 38.5833 23.514 38.3877 23.4033C38.1921 23.2927 38.0202 23.1446 37.8828 22.9668C37.7454 22.789 37.6446 22.5854 37.5869 22.3682C37.5293 22.1511 37.5159 21.9246 37.5469 21.7021C37.5779 21.4797 37.6528 21.2653 37.7676 21.0723C37.8825 20.8792 38.0351 20.7106 38.2158 20.5771C38.3515 20.477 38.5016 20.3984 38.6602 20.3428L38.8213 20.2949L38.8291 20.293ZM27.8516 23.4521C26.4452 23.1724 24.9869 23.3155 23.6621 23.8643C22.3374 24.413 21.2048 25.3429 20.4082 26.5352C19.6118 27.7273 19.1865 29.1288 19.1865 30.5625C19.1865 32.4853 19.9509 34.3298 21.3105 35.6895C22.6701 37.0488 24.5139 37.8124 26.4365 37.8125C27.8704 37.8125 29.2726 37.3875 30.4648 36.5908C31.657 35.7942 32.586 34.6616 33.1348 33.3369C33.6834 32.0123 33.8275 30.5547 33.5479 29.1484C33.2681 27.7422 32.5772 26.4504 31.5635 25.4365C30.5496 24.4227 29.2578 23.7319 27.8516 23.4521Z" fill="white" stroke="#0B0B0B" stroke-width="0.75"/>
<path d="M38.8291 20.293C41.1624 19.6747 43.6368 19.8692 45.8447 20.8447C48.0526 21.8203 49.8626 23.5188 50.9766 25.6602C52.0904 27.8014 52.4422 30.2582 51.9736 32.626C51.505 34.9939 50.244 37.1318 48.3984 38.6875L47.9434 39.0703L48.4854 39.3154C51.1234 40.5083 53.41 42.361 55.124 44.6943V44.6953C55.3869 45.0556 55.4974 45.5054 55.4297 45.9463C55.3619 46.3871 55.1216 46.7831 54.7627 47.0479C54.5843 47.1788 54.3819 47.2734 54.167 47.3262C53.9517 47.3791 53.7279 47.389 53.5088 47.3555C53.2897 47.3219 53.0792 47.2457 52.8896 47.1309C52.7003 47.0161 52.5354 46.865 52.4043 46.6865L52.4033 46.6855C51.1526 44.9849 49.5204 43.6014 47.6377 42.6465C45.755 41.6916 43.6745 41.1919 41.5635 41.1875H41.5625C41.115 41.1875 40.6856 41.0098 40.3691 40.6934C40.0527 40.3769 39.875 39.9476 39.875 39.5C39.875 39.0525 40.0527 38.6231 40.3691 38.3066C40.646 38.0298 41.0093 37.8596 41.3955 37.8213L41.5625 37.8125C42.593 37.8107 43.6117 37.5894 44.5498 37.1631C45.4879 36.7367 46.3239 36.1149 47.0029 35.3398C47.6819 34.5648 48.1881 33.654 48.4873 32.668C48.7865 31.6819 48.8721 30.6429 48.7383 29.6211C48.6045 28.5995 48.2548 27.6179 47.7119 26.7422C47.1689 25.8664 46.4455 25.1162 45.5898 24.542C44.7342 23.9678 43.7653 23.5826 42.749 23.4121C41.733 23.2417 40.6923 23.2903 39.6963 23.5537L39.6875 23.5557C39.4717 23.6181 39.2456 23.6375 39.0225 23.6113C38.7993 23.5852 38.5833 23.514 38.3877 23.4033C38.1923 23.2928 38.0211 23.1444 37.8838 22.9668C37.7464 22.789 37.6456 22.5854 37.5879 22.3682C37.5302 22.151 37.5169 21.9247 37.5479 21.7021C37.5789 21.4796 37.6537 21.2653 37.7686 21.0723C37.8835 20.8791 38.036 20.7106 38.2168 20.5771C38.3523 20.4771 38.5018 20.3983 38.6602 20.3428L38.8213 20.2949L38.8291 20.293Z" fill="#FFB01E" stroke="#0B0B0B" stroke-width="0.75"/>
</svg>
