<svg width="1021" height="713" viewBox="0 0 1021 713" fill="none" xmlns="http://www.w3.org/2000/svg">
<path d="M294.809 606.937L245.252 579.932C241.994 578.211 239.636 574.587 239.636 569.783L239.81 487.15L289.376 514.06L289.193 596.692C289.193 601.583 291.551 605.129 294.809 606.937Z" fill="#1F1C18"/>
<path d="M294.809 606.937L245.252 579.932C241.994 578.211 239.636 574.587 239.636 569.783L239.81 487.15L289.376 514.06L289.193 596.692C289.193 601.583 291.551 605.129 294.809 606.937Z" fill="#FFD78E" stroke="black" stroke-width="4.36701" stroke-linecap="round" stroke-linejoin="round"/>
<path d="M577.561 53.8408C583.38 53.0558 588.581 54.0866 592.975 56.5098L593 56.5234L622.701 72.6475L264.094 123.003L227.363 103.096L577.561 53.8408Z" fill="#FFD78E" stroke="#FFD78E" stroke-width="8.73402"/>
<path d="M244.343 514.698L194.778 487.788C185.266 482.626 179.013 472.023 179.013 458.975L179.65 141.938L229.216 168.935L228.578 485.971C228.578 499.02 234.832 509.623 244.343 514.698Z" fill="#FFB01E"/>
<path d="M229.198 168.926L179.633 141.964C179.668 121.754 194.874 103.247 213.669 100.609L263.235 127.571C244.439 130.208 229.233 148.716 229.198 168.926Z" fill="#FFB01E"/>
<path d="M626.5 76.5126C645.296 73.8749 660.362 88.1288 660.327 108.339L659.742 425.375C659.707 445.664 644.571 464.163 625.775 466.801L415.801 496.313L308.792 604.152C306.503 606.458 303.883 607.724 301.324 608.082C295.097 608.956 289.192 604.501 289.21 596.728L289.367 514.078L262.51 517.851C243.714 520.489 228.578 506.252 228.613 485.963L229.199 168.927C229.233 148.717 244.439 130.209 263.235 127.572L626.5 76.5126Z" fill="white"/>
<path d="M644.649 79.5951C639.391 76.7828 633.234 75.6124 626.526 76.5208L263.278 127.527L213.625 100.618L576.961 49.5152C583.668 48.6068 589.826 49.786 595.084 52.6856L644.649 79.5951Z" stroke="#1F1C18" stroke-width="4.36701" stroke-linecap="round" stroke-linejoin="round"/>
<path d="M244.343 514.698L194.778 487.788C185.266 482.626 179.013 472.023 179.013 458.975L179.65 141.938L229.216 168.935L228.578 485.971C228.578 499.02 234.832 509.623 244.343 514.698Z" stroke="#1F1C18" stroke-width="4.36701" stroke-linecap="round" stroke-linejoin="round"/>
<path d="M229.198 168.926L179.633 141.964C179.668 121.754 194.874 103.247 213.669 100.609L263.235 127.571C244.439 130.208 229.233 148.716 229.198 168.926Z" stroke="#1F1C18" stroke-width="4.36701" stroke-linecap="round" stroke-linejoin="round"/>
<path d="M626.5 76.5126C645.296 73.8749 660.362 88.1288 660.327 108.339L659.742 425.375C659.707 445.664 644.571 464.163 625.775 466.801L415.801 496.313L308.792 604.152C306.503 606.458 303.883 607.724 301.324 608.082C295.097 608.956 289.192 604.501 289.21 596.728L289.367 514.078L262.51 517.851C243.714 520.489 228.578 506.252 228.613 485.963L229.199 168.927C229.233 148.717 244.439 130.209 263.235 127.572L626.5 76.5126Z" stroke="#1F1C18" stroke-width="4.36701" stroke-linecap="round" stroke-linejoin="round"/>
<path d="M581.921 364.009L561.475 352.891L547.151 333.973L567.589 345.091L581.921 364.009Z" fill="black"/>
<path d="M538.933 319.012L518.486 307.894C523.002 310.348 528.399 311.16 534.74 310.27C543.719 309.012 550.793 304.785 556.191 297.562L576.637 308.68C571.24 315.903 564.165 320.13 555.187 321.388C548.846 322.279 543.448 321.467 538.933 319.012Z" fill="black"/>
<path d="M550.829 242.318L571.266 253.437C573.249 254.52 575.065 255.917 576.725 257.638C582.105 263.21 584.839 271.35 584.821 282.076C584.804 292.67 582.035 301.456 576.638 308.679L556.191 297.561C561.589 290.338 564.366 281.552 564.384 270.957C564.401 260.232 561.668 252.092 556.287 246.519C554.628 244.799 552.811 243.401 550.829 242.318Z" fill="black"/>
<path d="M523.473 343.09L503.036 331.972C495.542 327.893 489.419 321.963 484.825 314.05C479.69 305.342 477.192 295.097 477.218 283.21C477.244 271.323 479.768 260.371 484.939 250.213C490.101 240.055 497.184 231.828 505.935 225.303C514.687 218.779 524.39 214.7 534.924 213.216C545.457 211.731 555.152 213.085 563.886 217.155C564.82 217.591 565.72 218.054 566.611 218.535L587.057 229.653C586.166 229.173 585.258 228.71 584.323 228.273C575.589 224.203 565.894 222.849 555.361 224.334C544.828 225.819 535.125 229.898 526.373 236.422C517.622 242.946 510.547 251.174 505.385 261.331C500.215 271.489 497.691 282.441 497.664 294.328C497.638 306.215 500.127 316.46 505.263 325.168C509.857 333.081 515.98 339.012 523.473 343.09Z" fill="black"/>
<path d="M581.921 364.009L561.475 352.891L547.151 333.973L567.589 345.091L581.921 364.009Z" stroke="black" stroke-width="4.36701" stroke-linecap="round" stroke-linejoin="round"/>
<path d="M538.933 319.012L518.486 307.894C523.002 310.348 528.399 311.16 534.74 310.27C543.719 309.012 550.793 304.785 556.191 297.562L576.637 308.68C571.24 315.903 564.165 320.13 555.187 321.388C548.846 322.279 543.448 321.467 538.933 319.012Z" stroke="black" stroke-width="4.36701" stroke-linecap="round" stroke-linejoin="round"/>
<path d="M550.829 242.318L571.266 253.437C573.249 254.52 575.065 255.917 576.725 257.638C582.105 263.21 584.839 271.35 584.821 282.076C584.804 292.67 582.035 301.456 576.638 308.679L556.191 297.561C561.589 290.338 564.366 281.552 564.384 270.957C564.401 260.232 561.668 252.092 556.287 246.519C554.628 244.799 552.811 243.401 550.829 242.318Z" stroke="black" stroke-width="4.36701" stroke-linecap="round" stroke-linejoin="round"/>
<path d="M523.473 343.09L503.036 331.972C495.542 327.893 489.419 321.963 484.825 314.05C479.69 305.342 477.192 295.097 477.218 283.21C477.244 271.323 479.768 260.371 484.939 250.213C490.101 240.055 497.184 231.828 505.935 225.303C514.687 218.779 524.39 214.7 534.924 213.216C545.457 211.731 555.152 213.085 563.886 217.155C564.82 217.591 565.72 218.054 566.611 218.535L587.057 229.653C586.166 229.173 585.258 228.71 584.323 228.273C575.589 224.203 565.894 222.849 555.361 224.334C544.828 225.819 535.125 229.898 526.373 236.422C517.622 242.946 510.547 251.174 505.385 261.331C500.215 271.489 497.691 282.441 497.664 294.328C497.638 306.215 500.127 316.46 505.263 325.168C509.857 333.081 515.98 339.012 523.473 343.09Z" stroke="black" stroke-width="4.36701" stroke-linecap="round" stroke-linejoin="round"/>
<path d="M590.481 330.898L614.963 359.363L581.922 364.009L567.589 345.091C563.275 346.602 559.205 347.685 555.135 348.262C544.601 349.746 534.907 348.524 526.173 344.454C517.439 340.384 510.39 334.008 505.263 325.169C500.128 316.461 497.639 306.216 497.665 294.329C497.691 282.442 500.215 271.49 505.386 261.332C510.547 251.174 517.622 242.947 526.373 236.423C535.125 229.898 544.828 225.819 555.362 224.335C565.895 222.85 575.59 224.204 584.324 228.274C593.058 232.344 599.984 238.606 604.997 247.331C610.01 256.057 612.631 266.284 612.604 278.171C612.587 288.512 610.534 298.233 606.683 307.299C602.717 316.513 597.32 324.252 590.481 330.898ZM576.638 308.679C582.035 301.456 584.804 292.67 584.822 282.075C584.839 271.35 582.105 263.21 576.725 257.637C571.345 252.065 564.297 249.829 555.318 251.087C546.217 252.362 539.029 256.476 533.631 263.568C528.234 270.66 525.579 279.551 525.561 290.408C525.544 301.133 528.155 309.299 533.535 314.872C538.907 320.444 546.086 322.662 555.187 321.387C564.166 320.129 571.24 315.902 576.638 308.679Z" fill="white"/>
<path d="M590.481 330.898L614.963 359.363L581.922 364.009L567.589 345.091C563.275 346.602 559.205 347.685 555.135 348.262C544.601 349.746 534.907 348.524 526.173 344.454C517.439 340.384 510.39 334.008 505.263 325.169C500.128 316.461 497.639 306.216 497.665 294.329C497.691 282.442 500.215 271.49 505.386 261.332C510.547 251.174 517.622 242.947 526.373 236.423C535.125 229.898 544.828 225.819 555.362 224.335C565.895 222.85 575.59 224.204 584.324 228.274C593.058 232.344 599.984 238.606 604.997 247.331C610.01 256.057 612.631 266.284 612.604 278.171C612.587 288.512 610.534 298.233 606.683 307.299C602.717 316.513 597.32 324.252 590.481 330.898ZM576.638 308.679C582.035 301.456 584.804 292.67 584.822 282.075C584.839 271.35 582.105 263.21 576.725 257.637C571.345 252.065 564.297 249.829 555.318 251.087C546.217 252.362 539.029 256.476 533.631 263.568C528.234 270.66 525.579 279.551 525.561 290.408C525.544 301.133 528.155 309.299 533.535 314.872C538.907 320.444 546.086 322.662 555.187 321.387C564.166 320.129 571.24 315.902 576.638 308.679Z" stroke="black" stroke-width="4.36701" stroke-linecap="round" stroke-linejoin="round"/>
<path d="M460.912 360.341L440.475 349.222L433.811 328.715L454.248 339.833L460.912 360.341Z" fill="black"/>
<path d="M419.688 321.955L399.25 310.837L426.902 306.95L447.348 318.069L419.688 321.955Z" fill="black"/>
<path d="M447.349 318.068L426.902 306.95L413.094 264.703L433.54 275.822L447.349 318.068Z" fill="black"/>
<path d="M417.915 245.462L397.478 234.344L429.086 229.898L449.524 241.017L417.915 245.462Z" fill="black"/>
<path d="M377.101 372.123L356.663 361.004L397.477 234.344L417.915 245.462L377.101 372.123Z" fill="black"/>
<path d="M460.912 360.341L440.475 349.222L433.811 328.715L454.248 339.833L460.912 360.341Z" stroke="black" stroke-width="4.36701" stroke-linecap="round" stroke-linejoin="round"/>
<path d="M419.688 321.955L399.25 310.837L426.902 306.95L447.348 318.069L419.688 321.955Z" stroke="black" stroke-width="4.36701" stroke-linecap="round" stroke-linejoin="round"/>
<path d="M447.349 318.068L426.902 306.95L413.094 264.703L433.54 275.822L447.349 318.068Z" stroke="black" stroke-width="4.36701" stroke-linecap="round" stroke-linejoin="round"/>
<path d="M377.101 372.123L356.663 361.004L397.477 234.344L417.915 245.462L377.101 372.123Z" stroke="black" stroke-width="4.36701" stroke-linecap="round" stroke-linejoin="round"/>
<path d="M449.524 241.017L489.883 356.271L460.913 360.341L454.249 339.833L412.465 345.703L405.714 368.097L377.101 372.123L417.915 245.462L449.524 241.017ZM419.688 321.955L447.349 318.068L433.54 275.822L419.688 321.955Z" fill="white"/>
<path d="M449.524 241.017L489.883 356.271L460.913 360.341L454.249 339.833L412.465 345.703L405.714 368.097L377.101 372.123L417.915 245.462L449.524 241.017ZM419.688 321.955L447.349 318.068L433.54 275.822L419.688 321.955Z" stroke="black" stroke-width="4.36701" stroke-linecap="round" stroke-linejoin="round"/>
<path d="M417.92 245.463L397.482 234.345L429.091 229.899L449.528 241.018L417.92 245.463Z" stroke="black" stroke-width="4.36701" stroke-linecap="round" stroke-linejoin="round"/>
<path d="M324.557 307.674L304.11 296.556L338.234 291.761L358.68 302.879L324.557 307.674Z" fill="black"/>
<path d="M297.123 383.364L276.686 372.245L276.904 251.288L297.35 262.406L297.123 383.364Z" fill="black"/>
<path d="M297.35 262.406L276.904 251.288L349.938 241.025L370.384 252.144L297.35 262.406Z" fill="black"/>
<path d="M324.557 307.674L304.11 296.556L338.234 291.761L358.68 302.879L324.557 307.674Z" stroke="black" stroke-width="4.36701" stroke-linecap="round" stroke-linejoin="round"/>
<path d="M297.123 383.364L276.686 372.245L276.904 251.288L297.35 262.406L297.123 383.364Z" stroke="black" stroke-width="4.36701" stroke-linecap="round" stroke-linejoin="round"/>
<path d="M297.35 262.406L276.904 251.288L349.938 241.025L370.384 252.144L297.35 262.406Z" stroke="black" stroke-width="4.36701" stroke-linecap="round" stroke-linejoin="round"/>
<path d="M370.384 252.145L370.34 275.665L324.6 282.093L324.557 307.675L358.68 302.88L358.637 325.755L324.513 330.55L324.426 379.53L297.123 383.364L297.35 262.407L370.384 252.145Z" fill="white"/>
<path d="M370.384 252.145L370.34 275.665L324.6 282.093L324.557 307.675L358.68 302.88L358.637 325.755L324.513 330.55L324.426 379.53L297.123 383.364L297.35 262.407L370.384 252.145Z" stroke="black" stroke-width="4.36701" stroke-linecap="round" stroke-linejoin="round"/>
<g clip-path="url(#clip0_532_353)">
<path d="M782.756 697.773L747.074 677.022C746.483 676.685 745.979 676.178 745.641 675.42L725.312 635.435C724.975 634.761 724.468 634.17 723.877 633.833L759.559 654.584C760.15 654.922 760.656 655.512 760.994 656.187L781.238 696.171C781.66 696.93 782.165 697.435 782.756 697.773Z" fill="#FFD78E"/>
<path d="M782.753 700.735C782.248 700.735 781.735 700.604 781.265 700.33L745.589 679.58C744.411 678.901 743.508 677.904 742.937 676.625L722.679 636.78L722.751 636.6L722.39 636.39C720.981 635.574 720.497 633.768 721.313 632.352C722.13 630.943 723.922 630.459 725.352 631.268C725.367 631.275 725.388 631.282 725.403 631.297L761.05 652.025C762.119 652.646 763.044 653.658 763.644 654.871L783.873 694.832L783.823 694.969L784.242 695.215C785.65 696.038 786.135 697.845 785.311 699.261C784.762 700.207 783.772 700.735 782.753 700.735ZM731.984 642.033L748.276 674.075L774.553 689.522L758.355 657.523L731.984 642.033Z" fill="black"/>
<path d="M751.391 247.741C796.278 221.851 836.757 219.525 865.83 236.436L865.831 236.437L887.27 248.854C859.331 239.738 824.189 244.998 786.204 266.979C783.239 268.683 780.21 270.517 777.229 272.424L775.955 273.245C735.112 299.698 698.246 341.695 671.126 389.057C644.007 436.417 626.596 489.211 624.734 537.296C622.799 585.095 635.73 621.005 658.722 641.88L637.349 629.45L637.348 629.449L636.636 629.031C606.576 611.179 588.545 572.263 590.797 516.7V516.698C592.646 468.915 609.946 416.394 636.96 369.216C663.975 322.038 700.665 280.271 741.224 253.96V253.959C744.586 251.775 748.03 249.675 751.39 247.742L751.391 247.741Z" fill="#FFB01E" stroke="black" stroke-width="1.7468"/>
<path d="M672.589 653.917C672.083 653.917 671.57 653.787 671.108 653.513C671.029 653.469 670.949 653.426 670.862 653.376L635.425 632.763C602.414 613.646 584.75 571.287 586.968 516.545C590.688 420.44 657.525 303.687 739.137 250.743C742.554 248.525 746.066 246.379 749.483 244.421C794.067 218.708 836.065 214.684 867.753 233.122L903.372 253.756C903.393 253.763 903.415 253.777 903.43 253.792C904.846 254.608 905.33 256.422 904.506 257.831C903.697 259.239 901.862 259.731 900.467 258.907C870.6 241.618 830.697 245.657 788.121 270.301C784.783 272.215 781.373 274.289 778.043 276.456C697.883 328.374 632.224 443.017 628.561 537.446C626.444 589.848 642.946 630.213 673.846 648.26L674.077 648.398C675.486 649.221 675.97 651.027 675.147 652.444C674.598 653.39 673.608 653.917 672.589 653.917ZM823.696 227.645C801.928 227.645 777.667 235 752.438 249.551C749.1 251.466 745.69 253.539 742.359 255.707C662.193 307.718 596.533 422.391 592.878 516.783C590.753 569.257 607.342 609.665 638.394 627.648L647.765 633.095C629.991 610.54 621.033 577.175 622.651 537.208C626.372 441.067 693.216 324.342 774.82 271.493C778.238 269.275 781.749 267.129 785.166 265.171C816.927 246.791 847.416 239.451 873.851 243.489L864.784 238.237C852.61 231.157 838.746 227.645 823.696 227.645Z" fill="black"/>
<path d="M786.628 267.728C876.137 216.043 948.827 257.424 949.118 360.175C949.374 450.405 893.791 557.748 819.677 617.585C817.417 619.385 815.483 622.238 814.52 625.211L794.47 688.546C793.186 692.542 790.539 695.697 787.886 697.229C785.235 698.76 782.577 698.668 781.275 696.165L760.986 656.181C760.01 654.265 758.067 653.651 755.802 654.463C679.006 681.197 621.691 634.2 625.571 537.367C629.345 441.464 695.048 326.728 776.411 273.988C779.834 271.77 783.248 269.679 786.628 267.728Z" fill="white"/>
<path d="M949.137 360.142C949.359 450.4 893.798 557.749 819.668 617.6C817.448 619.376 815.45 622.261 814.489 625.221L794.44 688.55C793.182 692.544 790.517 695.726 787.855 697.205C785.265 698.758 782.603 698.684 781.27 696.169L761 656.145C760.038 654.295 758.04 653.63 755.82 654.443C705.662 671.904 663.861 657.92 641.888 619.228C729.188 637.871 825.142 599.992 879.592 517.207C937.151 429.686 930.197 319.23 869.532 246.062C917.028 251.092 948.915 292.226 949.137 360.142Z" fill="#E9EDF4"/>
<path d="M784.604 701.204C783.939 701.204 783.296 701.117 782.675 700.937C780.941 700.431 779.546 699.253 778.65 697.526L758.349 657.515C758.204 657.241 757.966 656.814 756.802 657.248C721.011 669.711 687.935 666.647 663.624 648.622C635.144 627.511 620.585 587.962 622.616 537.251C626.394 441.103 693.246 324.371 774.799 271.5C778.267 269.253 781.728 267.143 785.145 265.164C829.556 239.523 871.46 235.434 903.12 253.655C934.548 271.738 951.931 309.568 952.082 360.17C952.328 449.39 897.427 558.615 821.537 619.888C819.716 621.333 818.112 623.718 817.339 626.123L797.29 689.442C795.86 693.892 792.898 697.758 789.358 699.795C787.739 700.727 786.128 701.204 784.604 701.204ZM757.677 651.15C760.213 651.15 762.409 652.451 763.623 654.835L783.91 694.824C784.661 695.344 785.398 695.243 786.403 694.665C788.635 693.379 790.694 690.627 791.655 687.636L811.704 624.317C812.838 620.799 815.128 617.425 817.838 615.265C892.434 555.046 946.404 447.757 946.158 360.185C946.021 311.778 929.685 275.77 900.172 258.784C870.406 241.669 830.611 245.743 788.108 270.293C784.777 272.215 781.403 274.281 778.022 276.471C697.906 328.403 632.239 443.053 628.526 537.482C626.575 586.177 640.295 623.963 667.15 643.868C689.843 660.687 720.989 663.469 754.83 651.663C755.805 651.316 756.766 651.15 757.677 651.15Z" fill="black"/>
<path d="M847.189 313.31C878.409 359.993 882.995 425.319 853.846 483.247C821.739 547.315 757.818 583.641 696.043 579.202C716.166 601.175 749.681 603.764 787.633 581.866C848.816 546.576 898.088 461.053 897.867 390.844C897.791 346.158 877.594 318.415 847.189 313.31Z" fill="#E9EDF4"/>
<path d="M738.01 600.071C726.934 600.071 716.682 597.485 707.615 592.268C685.811 579.719 673.738 553.565 673.637 518.633C673.442 447.591 723.596 360.749 785.434 325.044C816.045 307.357 844.988 304.59 866.923 317.197C888.706 329.733 900.764 355.886 900.865 390.847C901.067 461.911 850.934 548.768 789.111 584.466C771.143 594.833 753.753 600.071 738.01 600.071ZM836.571 315.333C821.869 315.333 805.461 320.319 788.396 330.173C728.191 364.932 679.366 449.462 679.561 518.618C679.655 551.347 690.666 575.68 710.57 587.139C730.619 598.67 757.466 595.902 786.149 579.336C846.339 544.592 895.143 460.04 894.941 390.862C894.847 358.104 883.85 333.764 863.968 322.327C855.847 317.653 846.606 315.333 836.571 315.333Z" fill="black"/>
<path d="M787.117 379.447C810.085 366.186 828.708 376.9 828.783 403.191C828.849 426.4 814.575 453.933 795.531 469.323L795.566 481.695C795.581 486.862 791.942 493.164 787.447 495.759C782.95 498.355 779.288 496.268 779.273 491.102L779.233 476.832C779.178 472.714 780.59 468.005 782.808 463.855C785.026 459.705 788.047 456.015 791.428 453.448C803.395 444.284 812.531 427.022 812.49 412.597C812.468 404.618 809.643 399.025 805.044 396.404C800.444 393.782 794.158 394.184 787.17 398.218C780.181 402.253 773.914 409.099 769.344 417.015C764.774 424.93 761.991 433.761 762.014 441.74C762.028 446.958 758.39 453.259 753.895 455.854C749.398 458.45 745.736 456.364 745.721 451.146C745.646 424.856 764.148 392.708 787.117 379.447ZM789.678 505.795C796.471 501.873 801.986 505.021 802.008 512.822C802.03 520.617 796.551 530.122 789.758 534.045C782.969 537.964 777.445 534.811 777.423 527.015C777.401 519.215 782.889 509.715 789.678 505.795Z" fill="black"/>
<path d="M930.984 648.449V645.696L919.173 652.446V624.382L943.417 610.351V634.773C943.417 643.121 942.885 649.782 941.73 655.021C940.576 660.261 938.267 665.412 934.625 670.385C931.073 675.358 925.922 679.976 919.173 684.062V672.25C927.077 666.3 930.984 658.396 930.984 648.449Z" fill="white"/>
<path d="M887.379 667.454V664.701L875.568 671.54V643.387L899.812 629.356V653.778C899.812 662.126 899.28 668.787 898.125 674.026C896.971 679.266 894.662 684.417 891.02 689.39C887.468 694.363 882.317 698.982 875.568 703.067V691.255C883.472 685.305 887.379 677.401 887.379 667.454Z" fill="white"/>
<path d="M919.173 651.558V625.359V624.56L909.404 618.876V646.939L919.173 651.558Z" fill="#FFD78E"/>
<path d="M875.391 670.651L875.568 643.476L865.711 637.881V665.856L875.391 670.651Z" fill="#FFD78E"/>
<path d="M909.404 666.655L919.173 672.25V684.15L909.404 678.467V666.655Z" fill="#FFD78E"/>
<path d="M865.711 685.571L875.568 691.255V703.066L865.444 697.472L865.711 685.571Z" fill="#FFD78E"/>
<path d="M933.204 604.844L943.417 610.528L919.173 624.559L909.404 618.875L933.204 604.844Z" fill="#FFB01E"/>
<path d="M890.044 623.849L899.457 629.266L875.568 643.475L865.71 637.881L890.044 623.849Z" fill="#FFB01E"/>
<path d="M909.404 666.654L919.173 672.249L921.571 669.94L927.787 662.658L930.807 653.333V646.14L919.173 652.534L918.64 655.465L914.288 662.125L909.404 666.654Z" fill="#FFB01E"/>
<path d="M865.71 685.215L875.568 690.899L877.966 688.501L884.182 681.308L887.202 671.894V664.701L875.568 671.184L875.035 674.114L870.683 680.775L865.71 685.215Z" fill="#FFB01E"/>
<path d="M919.173 684.86C919.351 684.86 919.44 684.86 919.528 684.771C926.278 680.597 931.606 675.979 935.248 670.917C938.889 665.855 941.375 660.615 942.441 655.287C943.596 650.047 944.128 643.209 944.128 634.95V610.527C944.128 610.261 943.951 609.994 943.773 609.906C943.507 609.728 943.24 609.728 943.063 609.906L918.818 623.937C918.552 624.115 918.463 624.293 918.463 624.559V652.623C918.463 652.889 918.64 653.155 918.818 653.244C919.084 653.422 919.351 653.422 919.528 653.244L930.274 647.028V648.449C930.274 658.129 926.367 665.944 918.729 671.628C918.552 671.805 918.463 671.983 918.463 672.249V684.061C918.463 684.327 918.64 684.594 918.818 684.682C918.907 684.86 919.084 684.86 919.173 684.86ZM942.707 611.859V634.95C942.707 643.12 942.175 649.87 941.02 655.02C939.954 660.082 937.557 665.145 934.004 670.029C930.63 674.647 925.923 678.91 919.884 682.817V672.693C927.699 666.654 931.695 658.573 931.695 648.537V645.784C931.695 645.518 931.518 645.251 931.34 645.163C931.074 644.985 930.807 644.985 930.63 645.163L919.884 651.379V625.092L942.707 611.859Z" fill="black"/>
<path d="M919.596 671.651L909.828 666.012L909.073 667.319L918.841 672.958L919.596 671.651Z" fill="black"/>
<path d="M918.817 684.771L919.528 683.439L910.114 678.022V667.01C915.176 663.102 918.64 658.395 920.416 652.8C920.505 652.445 920.416 652.09 920.061 651.912L910.114 646.495V619.319L933.648 605.732L943.062 611.149L943.772 609.817L934.004 604.133C933.737 603.956 933.471 603.956 933.293 604.133L909.048 618.165C908.782 618.343 908.693 618.52 908.693 618.787V646.85C908.693 647.117 908.871 647.383 909.048 647.472L918.906 652.8C917.13 657.862 913.755 662.303 908.96 665.944C908.782 666.122 908.693 666.299 908.693 666.566V678.377C908.693 678.644 908.871 678.91 909.048 678.999L918.817 684.771Z" fill="black"/>
<path d="M919.484 623.902L909.717 618.262L908.962 619.569L918.729 625.209L919.484 623.902Z" fill="black"/>
<path d="M875.568 703.865C875.746 703.865 875.835 703.865 875.923 703.776C882.673 699.602 888.001 694.984 891.643 689.922C895.284 684.86 897.77 679.62 898.836 674.292C899.991 669.052 900.523 662.214 900.523 653.955V629.532C900.523 629.266 900.346 628.999 900.168 628.911C899.902 628.733 899.635 628.733 899.458 628.911L875.213 642.942C874.947 643.12 874.858 643.298 874.858 643.564V671.539C874.858 671.805 875.035 672.072 875.213 672.16C875.479 672.338 875.746 672.338 875.923 672.16L886.669 665.944V667.365C886.669 677.045 882.762 684.86 875.124 690.544C874.947 690.721 874.858 690.899 874.858 691.165V702.977C874.858 703.243 875.035 703.51 875.213 703.599C875.302 703.776 875.391 703.865 875.568 703.865ZM899.103 630.776V653.866C899.103 662.036 898.57 668.786 897.415 673.936C896.349 678.999 893.952 684.061 890.399 688.945C887.025 693.563 882.318 697.826 876.279 701.734V691.609C884.094 685.57 888.09 677.489 888.09 667.453V664.7C888.09 664.434 887.913 664.168 887.735 664.079C887.469 663.901 887.202 663.901 887.025 664.079L876.279 670.295V644.008L899.103 630.776Z" fill="black"/>
<path d="M875.882 690.608L866.116 684.968L865.361 686.275L875.127 691.915L875.882 690.608Z" fill="black"/>
<path d="M875.124 703.776L875.834 702.444L866.421 697.027V686.015C871.483 682.107 874.946 677.4 876.722 671.805C876.811 671.45 876.722 671.095 876.367 670.917L866.421 665.5V638.324L889.955 624.737L899.369 630.154L900.079 628.822L890.31 623.138C890.044 622.96 889.777 622.96 889.6 623.138L865.355 637.17C865.089 637.347 865 637.525 865 637.792V665.855C865 666.121 865.177 666.388 865.355 666.477L875.213 671.805C873.437 676.867 870.062 681.308 865.266 684.949C865.089 685.126 865 685.304 865 685.571V697.382C865 697.648 865.177 697.915 865.355 698.004L875.124 703.776Z" fill="black"/>
<path d="M875.904 642.837L866.137 637.196L865.382 638.504L875.149 644.144L875.904 642.837Z" fill="black"/>
</g>
<path d="M22.884 77.3857V72.5926L43.4478 84.3434V35.4849L1.23779 11.0557V53.5749C1.23779 68.1088 2.16548 79.7049 4.17548 88.8272C6.18548 97.9495 10.2055 106.917 16.5447 115.576C22.7293 124.234 31.6971 132.274 43.4478 139.387V118.823C29.6871 108.463 22.884 94.7026 22.884 77.3857Z" fill="white"/>
<path d="M98.8001 110.473V105.68L119.364 117.586V68.5726L77.154 44.1434V86.6626C77.154 101.196 78.0817 112.793 80.0917 121.915C82.1017 131.037 86.1217 140.005 92.4609 148.663C98.6455 157.322 107.613 165.362 119.364 172.474V151.91C105.603 141.551 98.8001 127.79 98.8001 110.473Z" fill="white"/>
<path d="M43.4468 82.7984V37.1868V35.7953L60.4545 25.8999V74.7584L43.4468 82.7984Z" fill="#FFD78E"/>
<path d="M119.672 116.041L119.363 68.7284L136.525 58.9876V107.691L119.672 116.041Z" fill="#FFD78E"/>
<path d="M60.4545 109.083L43.4468 118.824V139.542L60.4545 129.647V109.083Z" fill="#FFD78E"/>
<path d="M136.525 142.016L119.363 151.911V172.475L136.989 162.735L136.525 142.016Z" fill="#FFD78E"/>
<path d="M19.0186 1.46973L1.23779 11.3651L43.4478 35.7944L60.4555 25.899L19.0186 1.46973Z" fill="#FFB01E"/>
<path d="M94.1617 34.5575L77.7725 43.989L119.364 68.7275L136.526 58.9867L94.1617 34.5575Z" fill="#FFB01E"/>
<path d="M60.4555 109.082L43.4478 118.823L39.2732 114.803L28.4501 102.124L23.1932 85.8898V73.3659L43.4478 84.4982L44.3755 89.6005L51.9517 101.197L60.4555 109.082Z" fill="#FFB01E"/>
<path d="M136.526 141.397L119.364 151.292L115.189 147.118L104.366 134.594L99.1094 118.204V105.681L119.364 116.967L120.292 122.07L127.868 133.666L136.526 141.397Z" fill="#FFB01E"/>
<path d="M43.447 140.778C43.1377 140.778 42.9831 140.778 42.8285 140.623C31.0777 133.356 21.8008 125.316 15.4615 116.503C9.12231 107.69 4.79308 98.5676 2.9377 89.2907C0.927695 80.1684 0 68.263 0 53.8838V11.3645C0 10.9007 0.309233 10.4368 0.618464 10.2822C1.08231 9.97299 1.54615 9.97299 1.85538 10.2822L44.0654 34.7114C44.5293 35.0207 44.6839 35.3299 44.6839 35.7938V84.6522C44.6839 85.1161 44.3746 85.5799 44.0654 85.7346C43.6016 86.0438 43.1377 86.0438 42.8285 85.7346L24.12 74.9115V77.3853C24.12 94.2384 30.9231 107.845 44.22 117.74C44.5293 118.049 44.6839 118.358 44.6839 118.822V139.386C44.6839 139.85 44.3746 140.314 44.0654 140.468C43.9108 140.778 43.6016 140.778 43.447 140.778ZM2.47385 13.6838V53.8838C2.47385 68.1084 3.40154 79.8592 5.41154 88.8269C7.26693 97.6399 11.4415 106.453 17.6262 114.957C23.5016 122.997 31.6962 130.418 42.21 137.222V119.595C28.6039 109.082 21.6462 95.0115 21.6462 77.5399V72.7469C21.6462 72.283 21.9554 71.8192 22.2646 71.6646C22.7285 71.3553 23.1923 71.3553 23.5015 71.6646L42.21 82.4876V36.7214L2.47385 13.6838Z" fill="black"/>
<path d="M42.7114 117.781L59.7176 107.963L61.0318 110.239L44.0257 120.057L42.7114 117.781Z" fill="black"/>
<path d="M44.0661 140.623L42.8292 138.304L59.2184 128.872V109.7C50.4053 102.897 44.3753 94.702 41.283 84.9612C41.1284 84.3427 41.283 83.7243 41.9015 83.415L59.2184 73.9835V26.6712L18.2453 3.01498L1.85606 12.4465L0.619141 10.1273L17.6268 0.231923C18.0907 -0.0773077 18.5545 -0.0773077 18.8638 0.231923L61.0738 24.6611C61.5376 24.9704 61.6922 25.2796 61.6922 25.7435V74.602C61.6922 75.0658 61.383 75.5296 61.0738 75.6843L43.9115 84.9612C47.0038 93.7743 52.8792 101.505 61.2284 107.844C61.5376 108.154 61.6922 108.463 61.6922 108.927V129.49C61.6922 129.954 61.383 130.418 61.0738 130.573L44.0661 140.623Z" fill="black"/>
<path d="M42.9062 34.6482L59.9109 24.8286L61.2251 27.1046L44.2205 36.9242L42.9062 34.6482Z" fill="black"/>
<path d="M119.363 173.866C119.054 173.866 118.899 173.866 118.744 173.711C106.994 166.444 97.7168 158.404 91.3776 149.591C85.0383 140.778 80.7091 131.656 78.8537 122.379C76.8437 113.256 75.916 101.351 75.916 86.9717V44.4524C75.916 43.9886 76.2252 43.5247 76.5345 43.3701C76.9983 43.0609 77.4622 43.0609 77.7714 43.3701L119.981 67.7994C120.445 68.1086 120.6 68.4178 120.6 68.8817V117.586C120.6 118.049 120.291 118.513 119.981 118.668C119.518 118.977 119.054 118.977 118.744 118.668L100.036 107.845V110.319C100.036 127.172 106.839 140.778 120.136 150.673C120.445 150.982 120.6 151.292 120.6 151.756V172.319C120.6 172.783 120.291 173.247 119.981 173.402C119.827 173.711 119.672 173.866 119.363 173.866ZM78.3898 46.617V86.8171C78.3898 101.042 79.3176 112.792 81.3276 121.76C83.1829 130.573 87.3576 139.386 93.5422 147.89C99.4176 155.93 107.612 163.352 118.126 170.155V152.529C104.52 142.015 97.5622 127.945 97.5622 110.473V105.68C97.5622 105.216 97.8714 104.752 98.1806 104.598C98.6445 104.289 99.1083 104.289 99.4176 104.598L118.126 115.421V69.6547L78.3898 46.617Z" fill="black"/>
<path d="M118.817 150.784L135.82 140.965L137.135 143.241L120.132 153.06L118.817 150.784Z" fill="black"/>
<path d="M120.136 173.711L118.899 171.392L135.289 161.96V142.788C126.476 135.985 120.446 127.79 117.353 118.05C117.199 117.431 117.353 116.813 117.972 116.503L135.289 107.072V59.7596L94.3156 36.1034L77.9264 45.5349L76.6895 43.2157L93.6972 33.3203C94.161 33.0111 94.6248 33.0111 94.9341 33.3203L137.144 57.7495C137.608 58.0588 137.763 58.368 137.763 58.8319V107.69C137.763 108.154 137.453 108.618 137.144 108.773L119.982 118.05C123.074 126.863 128.949 134.593 137.299 140.933C137.608 141.242 137.763 141.551 137.763 142.015V162.579C137.763 163.043 137.453 163.507 137.144 163.661L120.136 173.711Z" fill="black"/>
<path d="M118.779 67.6141L135.783 57.7944L137.098 60.0704L120.093 69.89L118.779 67.6141Z" fill="black"/>
<defs>
<clipPath id="clip0_532_353">
<rect width="503.079" height="503.079" fill="white" transform="translate(517.893 209.921)"/>
</clipPath>
</defs>
</svg>
