<svg width="68" height="68" viewBox="0 0 68 68" fill="none" xmlns="http://www.w3.org/2000/svg">
<path d="M28.3066 15.8193C28.4828 15.8357 28.6555 15.8796 28.8174 15.9492L28.9756 16.0273L33.8174 18.7334L34 18.835L34.1836 18.7334L39.0254 16.0293L39.0244 16.0283C39.23 15.9137 39.458 15.8448 39.6924 15.8232C39.9266 15.8017 40.1628 15.8292 40.3857 15.9043H40.3867C42.7319 16.6918 44.9063 17.9177 46.7949 19.5156C46.9813 19.6733 47.1312 19.8695 47.2344 20.0908C47.3376 20.3123 47.3917 20.5536 47.3926 20.7979L47.4111 26.1797L47.4121 26.3965L47.6006 26.5039L52.377 29.2275L52.3789 29.2285C52.5898 29.3478 52.7719 29.5118 52.9141 29.708C53.0206 29.8551 53.1029 30.0179 53.1572 30.1904L53.2021 30.3662C53.6792 32.7635 53.6808 35.2312 53.2061 37.6289V37.6299C53.159 37.8677 53.0607 38.0924 52.9189 38.2891C52.777 38.4859 52.5939 38.6498 52.3828 38.7695V38.7705L47.6025 41.4873L47.4141 41.5947L47.4131 41.8115L47.3896 47.1982C47.3886 47.4419 47.3343 47.6825 47.2314 47.9033C47.1286 48.1241 46.9788 48.32 46.793 48.4775V48.4785C44.9052 50.0797 42.7305 51.3079 40.3848 52.0986C40.1612 52.1741 39.9234 52.2025 39.6885 52.1807C39.4538 52.1588 39.2262 52.0878 39.0205 51.9727L34.1836 49.2666L34.001 49.165L33.8174 49.2666L28.9814 51.9707C28.7758 52.0853 28.5479 52.1552 28.3135 52.1768C28.0792 52.1982 27.843 52.1709 27.6201 52.0957H27.6191C25.274 51.3082 23.0995 50.0822 21.2109 48.4844C21.0246 48.3267 20.8746 48.1305 20.7715 47.9092C20.6683 47.6878 20.6141 47.4464 20.6133 47.2021L20.5947 41.8203L20.5938 41.6035L20.4053 41.4961L15.624 38.7715H15.623C15.4123 38.652 15.2298 38.4883 15.0879 38.292C14.9462 38.096 14.8483 37.8719 14.8008 37.6348C14.3248 35.2371 14.3248 32.7688 14.8008 30.3711V30.3701C14.8478 30.1324 14.9452 29.9075 15.0869 29.7109C15.2288 29.5142 15.4121 29.3502 15.623 29.2305L15.624 29.2295L20.3936 26.5127L20.582 26.4053L20.583 26.1885L20.6064 20.8018C20.6075 20.5581 20.6618 20.3176 20.7646 20.0967C20.8676 19.8758 21.0172 19.6791 21.2031 19.5215C23.091 17.9203 25.2656 16.6921 27.6113 15.9014C27.8348 15.826 28.0718 15.7976 28.3066 15.8193ZM27.8359 19.415C26.5138 19.9426 25.2667 20.6429 24.1279 21.4971L23.9785 21.6084V21.7959L23.959 27.0078C23.9574 27.3218 23.8688 27.6294 23.7021 27.8955L23.7012 27.8965C23.5996 28.06 23.4979 28.2279 23.4004 28.4082C23.25 28.6772 23.0286 28.8996 22.7607 29.0518L22.7598 29.0527L18.1406 31.6787L17.9785 31.7705L17.9541 31.9541C17.77 33.3128 17.77 34.6901 17.9541 36.0488L17.9785 36.2324L18.1396 36.3242L22.7627 38.9658L22.7646 38.9668C23.0315 39.1176 23.2516 39.339 23.4014 39.6064C23.4978 39.7797 23.6008 39.9519 23.7021 40.1162L23.7041 40.1182C23.8709 40.3846 23.9596 40.6925 23.9609 41.0068L23.9795 46.2041L23.9805 46.3916L24.1309 46.5039C25.2727 47.3571 26.5223 48.056 27.8467 48.583L28.0117 48.6494L28.168 48.5625L32.8389 45.957L32.8379 45.9561C33.1021 45.8097 33.4012 45.737 33.7031 45.7441H34.3525C34.6411 45.7442 34.925 45.819 35.1768 45.96L39.8438 48.5703L40 48.6582L40.166 48.5918C41.4884 48.0621 42.7348 47.3594 43.873 46.5029L44.0225 46.3906V46.2051L44.0469 40.9922C44.0484 40.6782 44.138 40.3706 44.3047 40.1045V40.1035C44.4056 39.941 44.5084 39.774 44.6064 39.5928C44.7561 39.3234 44.9771 39.1003 45.2451 38.9482L45.2461 38.9473L49.8662 36.3213L50.0273 36.2295L50.0527 36.0459C50.2358 34.6845 50.2334 33.3042 50.0469 31.9434L50.0215 31.7598L49.8613 31.668L45.2373 29.0332H45.2363C45.0026 28.9011 44.8044 28.715 44.6582 28.4912L44.5986 28.3926C44.5023 28.2196 44.4001 28.0478 44.2988 27.8838L44.2979 27.8818L44.2383 27.7793C44.1096 27.5378 44.0412 27.268 44.04 26.9932L44.0215 21.7959L44.0205 21.6084L43.8701 21.4961C42.7283 20.6429 41.4787 19.944 40.1543 19.417L39.9893 19.3506L39.833 19.4375L35.1631 22.0479C34.8988 22.1943 34.5999 22.2679 34.2979 22.2607H33.6885C33.3866 22.2688 33.0875 22.1946 32.8242 22.0469L28.1572 19.4365L28.002 19.3486L27.8359 19.415ZM34 25.4375C36.2701 25.4401 38.4465 26.3431 40.0518 27.9482C41.657 29.5534 42.5608 31.7299 42.5635 34L42.5576 34.3174C42.4989 35.8996 42.002 37.4369 41.1201 38.7568C40.1793 40.1649 38.8419 41.2631 37.2773 41.9111C35.7128 42.5592 33.991 42.7288 32.3301 42.3984C30.6692 42.0681 29.1437 41.252 27.9463 40.0547C26.7489 38.8573 25.933 37.3317 25.6025 35.6709C25.2722 34.01 25.4419 32.2881 26.0898 30.7236C26.7379 29.1592 27.8352 27.8217 29.2432 26.8809C30.6511 25.9401 32.3067 25.4376 34 25.4375ZM35.9854 29.207C35.0376 28.8145 33.9944 28.712 32.9883 28.9121C31.9821 29.1123 31.0575 29.6066 30.332 30.332C29.6067 31.0575 29.1132 31.9821 28.9131 32.9883C28.713 33.9945 28.8154 35.0375 29.208 35.9854C29.6006 36.9331 30.2652 37.7435 31.1182 38.3135C31.9712 38.8835 32.975 39.1875 34.001 39.1875C35.3766 39.1874 36.6962 38.6407 37.6689 37.668C38.6416 36.6951 39.1885 35.3757 39.1885 34C39.1885 32.974 38.8835 31.9712 38.3135 31.1182C37.7435 30.2651 36.9332 29.5997 35.9854 29.207Z" fill="white" stroke="#0B0B0B" stroke-width="0.75"/>
<path d="M34 25.4375C36.2701 25.4402 38.4466 26.343 40.0518 27.9482C41.657 29.5534 42.5598 31.7299 42.5625 34C42.5625 35.6935 42.06 37.3487 41.1191 38.7568C40.1783 40.1649 38.841 41.2631 37.2764 41.9111C35.7119 42.5591 33.9899 42.7288 32.3291 42.3984C30.6683 42.068 29.1427 41.2521 27.9453 40.0547C26.7479 38.8573 25.932 37.3317 25.6016 35.6709C25.2712 34.0101 25.4409 32.2881 26.0889 30.7236C26.7369 29.159 27.8351 27.8217 29.2432 26.8809C30.5632 25.9989 32.1003 25.502 33.6826 25.4434L34 25.4375ZM35.9854 29.207C35.0376 28.8144 33.9945 28.712 32.9883 28.9121C31.982 29.1123 31.0575 29.6065 30.332 30.332C29.6065 31.0575 29.1123 31.982 28.9121 32.9883C28.712 33.9945 28.8144 35.0376 29.207 35.9854C29.5997 36.9332 30.2651 37.7435 31.1182 38.3135C31.9712 38.8834 32.9741 39.1875 34 39.1875C35.3758 39.1875 36.6951 38.6408 37.668 37.668C38.6408 36.6951 39.1875 35.3758 39.1875 34C39.1875 32.9741 38.8834 31.9712 38.3135 31.1182C37.7435 30.2651 36.9332 29.5997 35.9854 29.207Z" fill="#FFB01E" stroke="#0B0B0B" stroke-width="0.75"/>
</svg>
