<svg width="1920" height="123" viewBox="0 0 1920 123" fill="none" xmlns="http://www.w3.org/2000/svg">
<g opacity="0.38">
<path d="M1232.46 0.5L-6400 400.5" stroke="url(#paint0_linear_29_13506)"/>
<path d="M1242.71 0.5L-1811.43 400.5" stroke="url(#paint1_linear_29_13506)"/>
<path d="M1252.97 0.5L-641.384 400.5" stroke="url(#paint2_linear_29_13506)"/>
<path d="M1263.23 0.5L-97.2054 400.5" stroke="url(#paint3_linear_29_13506)"/>
<path d="M1273.48 0.5L223.027 400.5" stroke="url(#paint4_linear_29_13506)"/>
<path d="M1283.74 0.5L437.828 400.5" stroke="url(#paint5_linear_29_13506)"/>
<path d="M1294 0.5L594.686 400.5" stroke="url(#paint6_linear_29_13506)"/>
<path d="M1304.25 0.5L716.351 400.5" stroke="url(#paint7_linear_29_13506)"/>
<path d="M1314.51 0.5L815.091 400.5" stroke="url(#paint8_linear_29_13506)"/>
<path d="M1324.77 0.5L898.121 400.5" stroke="url(#paint9_linear_29_13506)"/>
<path d="M1335.02 0.5L969.968 400.5" stroke="url(#paint10_linear_29_13506)"/>
<path d="M1345.28 0.5L1033.63 400.5" stroke="url(#paint11_linear_29_13506)"/>
<path d="M1355.54 0.5L1091.17 400.5" stroke="url(#paint12_linear_29_13506)"/>
<path d="M1365.79 0.5L1144.07 400.5" stroke="url(#paint13_linear_29_13506)"/>
<path d="M1376.05 0.5L1193.43 400.5" stroke="url(#paint14_linear_29_13506)"/>
<path d="M1386.3 0.5L1240.11 400.5" stroke="url(#paint15_linear_29_13506)"/>
<path d="M1396.56 0.5L1284.76 400.5" stroke="url(#paint16_linear_29_13506)"/>
<path d="M1406.82 0.5L1327.95 400.5" stroke="url(#paint17_linear_29_13506)"/>
<path d="M1417.07 0.5L1370.14 400.5" stroke="url(#paint18_linear_29_13506)"/>
<path d="M1427.33 0.5L1411.75 400.5" stroke="url(#paint19_linear_29_13506)"/>
<path d="M1437.59 0.5L1453.17 400.5" stroke="url(#paint20_linear_29_13506)"/>
<path d="M1447.84 0.5L1494.78 400.5" stroke="url(#paint21_linear_29_13506)"/>
<path d="M1458.1 0.5L1536.97 400.5" stroke="url(#paint22_linear_29_13506)"/>
<path d="M1468.36 0.5L1580.15 400.5" stroke="url(#paint23_linear_29_13506)"/>
<path d="M1478.61 0.5L1624.81 400.5" stroke="url(#paint24_linear_29_13506)"/>
<path d="M1488.87 0.5L1671.48 400.5" stroke="url(#paint25_linear_29_13506)"/>
<path d="M1499.12 0.5L1720.85 400.5" stroke="url(#paint26_linear_29_13506)"/>
<path d="M1509.38 0.5L1773.75 400.5" stroke="url(#paint27_linear_29_13506)"/>
<path d="M1519.64 0.5L1831.29 400.5" stroke="url(#paint28_linear_29_13506)"/>
<path d="M1529.89 0.5L1894.95 400.5" stroke="url(#paint29_linear_29_13506)"/>
<path d="M1540.15 0.5L1966.8 400.5" stroke="url(#paint30_linear_29_13506)"/>
<path d="M1550.41 0.5L2049.83 400.5" stroke="url(#paint31_linear_29_13506)"/>
<path d="M1560.66 0.5L2148.57 400.5" stroke="url(#paint32_linear_29_13506)"/>
<path d="M1570.92 0.5L2270.23 400.5" stroke="url(#paint33_linear_29_13506)"/>
<path d="M1581.18 0.5L2427.09 400.5" stroke="url(#paint34_linear_29_13506)"/>
<path d="M1591.43 0.5L2641.89 400.5" stroke="url(#paint35_linear_29_13506)"/>
<path d="M1601.69 0.5L2962.12 400.5" stroke="url(#paint36_linear_29_13506)"/>
<path d="M1611.95 0.5L3506.3 400.5" stroke="url(#paint37_linear_29_13506)"/>
<path d="M1622.2 0.5L4676.34 400.5" stroke="url(#paint38_linear_29_13506)"/>
<path d="M1632.46 0.5L9264.91 400.5" stroke="url(#paint39_linear_29_13506)"/>
<path d="M1232.46 0.5H1632.46" stroke="#1A1A1A"/>
<path d="M1232.46 0.5H1632.46" stroke="#F7AD22"/>
<path d="M1232.46 0.5H1632.46" stroke="#F7AD22"/>
<path d="M1232.46 0.5H1632.46" stroke="#F7AD22"/>
<path d="M1232.46 0.5H1632.46" stroke="#F7AD22"/>
<path d="M1232.46 0.5H1632.46" stroke="#F7AD22"/>
<path d="M1232.46 0.5H1632.46" stroke="#F7AD22"/>
<path d="M1232.45 0.5H1632.45" stroke="#F7AD22"/>
<path d="M1232.45 0.5H1632.46" stroke="#F7AD22"/>
<path d="M1232.45 0.5H1632.46" stroke="#F7AD22"/>
<path d="M1232.44 0.500488H1632.47" stroke="#F7AD22"/>
<path d="M1232.42 0.501465H1632.49" stroke="#F7AD22"/>
<path d="M1232.37 0.503906H1632.54" stroke="#F7AD22"/>
<path d="M1232.28 0.509277H1632.63" stroke="#F7AD22"/>
<path d="M1232.09 0.519043H1632.82" stroke="#F7AD22"/>
<path d="M1231.73 0.537598H1633.17" stroke="#F7AD22"/>
<path d="M1231.11 0.570312H1633.8" stroke="#F7AD22"/>
<path d="M1230.03 0.626953H1634.88" stroke="#F7AD22"/>
<path d="M1228.23 0.721191H1636.68" stroke="#F7AD22"/>
<path d="M1225.32 0.873535H1639.59" stroke="#F7AD22"/>
<path d="M1220.72 1.11475H1644.18" stroke="#F7AD22"/>
<path d="M1213.62 1.48682H1651.28" stroke="#F7AD22"/>
<path d="M1202.88 2.04932H1662.02" stroke="#F7AD22"/>
<path d="M1186.95 2.88477H1677.96" stroke="#F7AD22"/>
<path d="M1163.69 4.10352H1701.22" stroke="#F7AD22"/>
<path d="M1130.28 5.85449H1734.63" stroke="#F7AD22"/>
<path d="M1082.98 8.3335H1781.93" stroke="#F7AD22"/>
<path d="M1016.89 11.7969H1848.01" stroke="#155B90"/>
<path d="M925.715 16.5752H1939.19" stroke="#155B90"/>
<path d="M801.334 23.0938H2063.57" stroke="#155B90"/>
<path d="M633.473 31.8911H2231.44" stroke="#155B90"/>
<path d="M409.178 43.646H2455.73" stroke="url(#paint40_linear_29_13506)"/>
<path d="M112.262 59.2065H2752.65" stroke="url(#paint41_linear_29_13506)"/>
<path d="M-277.357 79.6255H3142.27" stroke="#155B90"/>
<path d="M-784.439 106.201H3649.35" stroke="#155B90"/>
</g>
<defs>
<linearGradient id="paint0_linear_29_13506" x1="1232.49" y1="0.999315" x2="-2000.44" y2="316.487" gradientUnits="userSpaceOnUse">
<stop offset="0.20438" stop-color="#01549A"/>
<stop offset="0.9375" stop-color="#FFB01E"/>
</linearGradient>
<linearGradient id="paint1_linear_29_13506" x1="1242.78" y1="0.995766" x2="-53.0489" y2="194.643" gradientUnits="userSpaceOnUse">
<stop offset="0.0625" stop-color="#FFB01E"/>
<stop offset="0.465591" stop-color="#01549A"/>
</linearGradient>
<linearGradient id="paint2_linear_29_13506" x1="1253.07" y1="0.989213" x2="449.193" y2="180.316" gradientUnits="userSpaceOnUse">
<stop offset="0.0625" stop-color="#FFB01E"/>
<stop offset="0.79562" stop-color="#01549A"/>
</linearGradient>
<linearGradient id="paint3_linear_29_13506" x1="1263.37" y1="0.979695" x2="686.053" y2="175.968" gradientUnits="userSpaceOnUse">
<stop offset="0.0625" stop-color="#FFB01E"/>
<stop offset="0.79562" stop-color="#01549A"/>
</linearGradient>
<linearGradient id="paint4_linear_29_13506" x1="1273.66" y1="0.96727" x2="827.906" y2="174.088" gradientUnits="userSpaceOnUse">
<stop offset="0.0625" stop-color="#FFB01E"/>
<stop offset="0.79562" stop-color="#01549A"/>
</linearGradient>
<linearGradient id="paint5_linear_29_13506" x1="1283.95" y1="0.952013" x2="925.021" y2="173.101" gradientUnits="userSpaceOnUse">
<stop offset="0.0625" stop-color="#FFB01E"/>
<stop offset="0.79562" stop-color="#01549A"/>
</linearGradient>
<linearGradient id="paint6_linear_29_13506" x1="1294.24" y1="0.934016" x2="997.547" y2="172.513" gradientUnits="userSpaceOnUse">
<stop offset="0.0625" stop-color="#FFB01E"/>
<stop offset="0.79562" stop-color="#01549A"/>
</linearGradient>
<linearGradient id="paint7_linear_29_13506" x1="1304.54" y1="0.913389" x2="1055.14" y2="172.13" gradientUnits="userSpaceOnUse">
<stop offset="0.0625" stop-color="#FFB01E"/>
<stop offset="0.79562" stop-color="#01549A"/>
</linearGradient>
<linearGradient id="paint8_linear_29_13506" x1="1314.82" y1="0.890257" x2="1103" y2="171.861" gradientUnits="userSpaceOnUse">
<stop offset="0.0625" stop-color="#FFB01E"/>
<stop offset="0.79562" stop-color="#01549A"/>
</linearGradient>
<linearGradient id="paint9_linear_29_13506" x1="1325.11" y1="0.86476" x2="1144.19" y2="171.661" gradientUnits="userSpaceOnUse">
<stop offset="0.0625" stop-color="#FFB01E"/>
<stop offset="0.79562" stop-color="#01549A"/>
</linearGradient>
<linearGradient id="paint10_linear_29_13506" x1="1335.39" y1="0.837052" x2="1180.63" y2="171.504" gradientUnits="userSpaceOnUse">
<stop offset="0.0625" stop-color="#FFB01E"/>
<stop offset="0.79562" stop-color="#01549A"/>
</linearGradient>
<linearGradient id="paint11_linear_29_13506" x1="1345.67" y1="0.807301" x2="1213.6" y2="171.375" gradientUnits="userSpaceOnUse">
<stop offset="0.0625" stop-color="#FFB01E"/>
<stop offset="0.79562" stop-color="#01549A"/>
</linearGradient>
<linearGradient id="paint12_linear_29_13506" x1="1355.95" y1="0.775689" x2="1243.96" y2="171.265" gradientUnits="userSpaceOnUse">
<stop offset="0.0625" stop-color="#FFB01E"/>
<stop offset="0.79562" stop-color="#01549A"/>
</linearGradient>
<linearGradient id="paint13_linear_29_13506" x1="1366.23" y1="0.742405" x2="1272.36" y2="171.169" gradientUnits="userSpaceOnUse">
<stop offset="0.0625" stop-color="#FFB01E"/>
<stop offset="0.79562" stop-color="#01549A"/>
</linearGradient>
<linearGradient id="paint14_linear_29_13506" x1="1376.5" y1="0.707652" x2="1299.25" y2="171.081" gradientUnits="userSpaceOnUse">
<stop offset="0.0625" stop-color="#FFB01E"/>
<stop offset="0.79562" stop-color="#01549A"/>
</linearGradient>
<linearGradient id="paint15_linear_29_13506" x1="1386.77" y1="0.671641" x2="1325" y2="171" gradientUnits="userSpaceOnUse">
<stop offset="0.0625" stop-color="#FFB01E"/>
<stop offset="0.79562" stop-color="#01549A"/>
</linearGradient>
<linearGradient id="paint16_linear_29_13506" x1="1397.04" y1="0.634589" x2="1349.9" y2="170.923" gradientUnits="userSpaceOnUse">
<stop offset="0.0625" stop-color="#FFB01E"/>
<stop offset="0.79562" stop-color="#01549A"/>
</linearGradient>
<linearGradient id="paint17_linear_29_13506" x1="1407.31" y1="0.596722" x2="1374.16" y2="170.85" gradientUnits="userSpaceOnUse">
<stop offset="0.0625" stop-color="#FFB01E"/>
<stop offset="0.79562" stop-color="#01549A"/>
</linearGradient>
<linearGradient id="paint18_linear_29_13506" x1="1417.57" y1="0.558269" x2="1398.01" y2="170.778" gradientUnits="userSpaceOnUse">
<stop offset="0.0625" stop-color="#FFB01E"/>
<stop offset="0.79562" stop-color="#01549A"/>
</linearGradient>
<linearGradient id="paint19_linear_29_13506" x1="1427.83" y1="0.519462" x2="1421.6" y2="170.708" gradientUnits="userSpaceOnUse">
<stop offset="0.0625" stop-color="#FFB01E"/>
<stop offset="0.79562" stop-color="#01549A"/>
</linearGradient>
<linearGradient id="paint20_linear_29_13506" x1="1438.09" y1="0.480538" x2="1445.12" y2="170.638" gradientUnits="userSpaceOnUse">
<stop offset="0.0625" stop-color="#FFB01E"/>
<stop offset="0.79562" stop-color="#01549A"/>
</linearGradient>
<linearGradient id="paint21_linear_29_13506" x1="1448.34" y1="0.441731" x2="1468.71" y2="170.567" gradientUnits="userSpaceOnUse">
<stop offset="0.0625" stop-color="#FFB01E"/>
<stop offset="0.79562" stop-color="#01549A"/>
</linearGradient>
<linearGradient id="paint22_linear_29_13506" x1="1458.59" y1="0.403278" x2="1492.55" y2="170.495" gradientUnits="userSpaceOnUse">
<stop offset="0.0625" stop-color="#FFB01E"/>
<stop offset="0.79562" stop-color="#01549A"/>
</linearGradient>
<linearGradient id="paint23_linear_29_13506" x1="1468.84" y1="0.365411" x2="1516.81" y2="170.422" gradientUnits="userSpaceOnUse">
<stop offset="0.0625" stop-color="#FFB01E"/>
<stop offset="0.79562" stop-color="#01549A"/>
</linearGradient>
<linearGradient id="paint24_linear_29_13506" x1="1479.08" y1="0.328359" x2="1541.7" y2="170.345" gradientUnits="userSpaceOnUse">
<stop offset="0.0625" stop-color="#FFB01E"/>
<stop offset="0.79562" stop-color="#01549A"/>
</linearGradient>
<linearGradient id="paint25_linear_29_13506" x1="1489.32" y1="0.292348" x2="1567.45" y2="170.264" gradientUnits="userSpaceOnUse">
<stop offset="0.0625" stop-color="#FFB01E"/>
<stop offset="0.79562" stop-color="#01549A"/>
</linearGradient>
<linearGradient id="paint26_linear_29_13506" x1="1499.56" y1="0.257595" x2="1594.35" y2="170.176" gradientUnits="userSpaceOnUse">
<stop offset="0.0625" stop-color="#FFB01E"/>
<stop offset="0.79562" stop-color="#01549A"/>
</linearGradient>
<linearGradient id="paint27_linear_29_13506" x1="1509.8" y1="0.224311" x2="1622.75" y2="170.079" gradientUnits="userSpaceOnUse">
<stop offset="0.0625" stop-color="#FFB01E"/>
<stop offset="0.79562" stop-color="#01549A"/>
</linearGradient>
<linearGradient id="paint28_linear_29_13506" x1="1520.03" y1="0.192699" x2="1653.12" y2="169.969" gradientUnits="userSpaceOnUse">
<stop offset="0.0625" stop-color="#FFB01E"/>
<stop offset="0.79562" stop-color="#01549A"/>
</linearGradient>
<linearGradient id="paint29_linear_29_13506" x1="1530.26" y1="0.162948" x2="1686.11" y2="169.84" gradientUnits="userSpaceOnUse">
<stop offset="0.0625" stop-color="#FFB01E"/>
<stop offset="0.79562" stop-color="#01549A"/>
</linearGradient>
<linearGradient id="paint30_linear_29_13506" x1="1540.49" y1="0.13524" x2="1722.58" y2="169.683" gradientUnits="userSpaceOnUse">
<stop offset="0.0625" stop-color="#FFB01E"/>
<stop offset="0.79562" stop-color="#01549A"/>
</linearGradient>
<linearGradient id="paint31_linear_29_13506" x1="1550.72" y1="0.109743" x2="1763.83" y2="169.481" gradientUnits="userSpaceOnUse">
<stop offset="0.0625" stop-color="#FFB01E"/>
<stop offset="0.79562" stop-color="#01549A"/>
</linearGradient>
<linearGradient id="paint32_linear_29_13506" x1="1560.95" y1="0.0866107" x2="1811.77" y2="169.211" gradientUnits="userSpaceOnUse">
<stop offset="0.0625" stop-color="#FFB01E"/>
<stop offset="0.79562" stop-color="#01549A"/>
</linearGradient>
<linearGradient id="paint33_linear_29_13506" x1="1571.17" y1="0.0659839" x2="1869.48" y2="168.826" gradientUnits="userSpaceOnUse">
<stop offset="0.0625" stop-color="#FFB01E"/>
<stop offset="0.79562" stop-color="#01549A"/>
</linearGradient>
<linearGradient id="paint34_linear_29_13506" x1="1581.39" y1="0.0479874" x2="1942.2" y2="168.236" gradientUnits="userSpaceOnUse">
<stop offset="0.0625" stop-color="#FFB01E"/>
<stop offset="0.79562" stop-color="#01549A"/>
</linearGradient>
<linearGradient id="paint35_linear_29_13506" x1="1591.61" y1="0.0327303" x2="2039.62" y2="167.245" gradientUnits="userSpaceOnUse">
<stop offset="0.0625" stop-color="#FFB01E"/>
<stop offset="0.79562" stop-color="#01549A"/>
</linearGradient>
<linearGradient id="paint36_linear_29_13506" x1="1601.83" y1="0.0203051" x2="2181.98" y2="165.356" gradientUnits="userSpaceOnUse">
<stop offset="0.0625" stop-color="#FFB01E"/>
<stop offset="0.79562" stop-color="#01549A"/>
</linearGradient>
<linearGradient id="paint37_linear_29_13506" x1="1612.05" y1="0.0107871" x2="2419.8" y2="160.987" gradientUnits="userSpaceOnUse">
<stop offset="0.0625" stop-color="#FFB01E"/>
<stop offset="0.79562" stop-color="#01549A"/>
</linearGradient>
<linearGradient id="paint38_linear_29_13506" x1="1622.27" y1="0.00423387" x2="2924.26" y2="146.593" gradientUnits="userSpaceOnUse">
<stop offset="0.0625" stop-color="#FFB01E"/>
<stop offset="0.79562" stop-color="#01549A"/>
</linearGradient>
<linearGradient id="paint39_linear_29_13506" x1="1632.49" y1="0.000685245" x2="4880.68" y2="24.174" gradientUnits="userSpaceOnUse">
<stop offset="0.0625" stop-color="#FFB01E"/>
<stop offset="0.79562" stop-color="#01549A"/>
</linearGradient>
<linearGradient id="paint40_linear_29_13506" x1="1432.45" y1="43.646" x2="1432.45" y2="44.0714" gradientUnits="userSpaceOnUse">
<stop offset="0.20438" stop-color="#01549A"/>
<stop offset="0.9375" stop-color="#FFB01E"/>
</linearGradient>
<linearGradient id="paint41_linear_29_13506" x1="1432.45" y1="59.2065" x2="1432.45" y2="59.632" gradientUnits="userSpaceOnUse">
<stop offset="0.20438" stop-color="#01549A"/>
<stop offset="0.9375" stop-color="#FFB01E"/>
</linearGradient>
</defs>
</svg>
