<svg width="582" height="658" viewBox="0 0 582 658" fill="none" xmlns="http://www.w3.org/2000/svg">
<g clip-path="url(#clip0_210_218)">
<path d="M7.5 484.429C7.5 478.669 12.1694 474 17.9294 474H565.071C570.831 474 575.5 478.669 575.5 484.429V596.798C575.5 600.024 574.089 603.035 571.471 604.919C452.885 690.247 108.521 671.232 11.603 604.862C8.90691 603.016 7.5 599.991 7.5 596.724V484.429Z" fill="url(#paint0_linear_210_218)"/>
<ellipse cx="291.5" cy="481.543" rx="284" ry="43.322" fill="#E1E5EE"/>
<path d="M273.048 112.256C275.682 112.09 278.885 112.136 281.569 112.108C294.964 126.065 311.757 135.051 329.603 142.062C338.306 145.48 343.185 147.029 352.493 147.452C358.509 147.725 365.735 148.211 371.693 148.904C387.424 198.775 410.005 215.281 449.269 246.27C444.537 263.923 438.663 282.914 433.467 300.52C442.842 290.057 452.208 281.267 464.85 273.705C481.338 263.846 508.341 253.553 526.199 265.764C531.455 269.358 536.189 277.388 540.799 282.141C547.142 288.686 546.631 298.227 544.437 306.442C536.913 332.238 516.205 353.831 493.327 367.376C478.911 375.912 451.071 387.142 434.782 377.331C431.503 375.098 419.606 360.18 417.271 356.157C415.328 363.121 410.366 381.74 407.351 387.221C402.193 395.8 394.148 402.62 385.505 407.421C368.435 416.931 348.589 420.44 329.248 421.086C325.751 421.27 322.244 421.58 318.745 421.69C301.034 422.253 283.367 418.773 266.391 414.021C262.93 409.499 259.246 403.524 255.948 398.708C254.452 400.696 252.883 402.633 251.245 404.508C234.751 423.32 208.705 436.121 183.791 437.876C173.193 438.379 158.513 437.846 153.614 426.552C151.52 421.724 148.19 417.134 146.412 412.262C145.727 410.387 145.323 408.423 145.212 406.432C143.713 377.708 187.364 350.58 212.013 346.634C217.068 345.825 221.368 345.271 226.493 344.973C212.674 312.27 203.95 279.828 211.339 244.161C212.817 237.029 214.887 230.478 216.944 223.511L224.598 197.627L249.682 112.76C257.471 112.655 265.261 112.487 273.048 112.256Z" fill="#FFE1AA"/>
<path d="M350.007 192.39C351.172 193.332 356.569 202.291 357.938 204.297C360.393 207.837 362.952 211.306 365.603 214.703C377.601 230.026 388.794 240.598 403.715 252.714L381.438 327.968L374.813 350.449C372.245 359.15 370.117 367.263 365.655 375.266C360.966 383.854 353.878 390.898 345.26 395.533C323.446 407.235 294.266 403.031 271.38 397.2C268.609 393.288 265.827 388.505 263.161 384.881C264.878 375.174 263.973 374.739 259.492 366.099C254.158 355.813 253.016 352.293 242.176 347.375C239.195 341.398 236.743 335.717 234.199 329.54C223.92 302.172 217.536 275.643 225.481 246.707L307.96 210.791L335.008 199.026C339.682 196.993 345.52 194.622 350.007 192.39Z" fill="#FFFBF3"/>
<path d="M278.698 305.586L283.102 260.534C283.115 260.4 283.095 259.987 283.163 259.911C283.348 259.701 283.941 261.13 284.104 261.455C286.418 266.055 288.741 270.649 291.069 275.241C291.53 276.152 292.007 277.104 292.195 278.06C292.352 278.858 292.291 279.579 292.229 280.278C291.8 285.107 291.371 289.936 290.942 294.765C290.772 296.674 290.659 298.867 291.673 300.968C292.894 303.497 295.059 304.684 296.761 305.906C299.104 307.589 301.446 309.274 303.789 310.957C308.391 314.263 312.992 317.571 317.594 320.878C319.987 322.597 323.616 325.709 325.595 324.536C326.969 323.723 327.118 320.995 326.444 318.403C325.77 315.812 324.441 313.312 323.145 310.895C319.412 303.931 315.68 296.966 311.947 290.002C312.136 290.355 321.485 286.067 322.373 285.695C324.108 284.972 325.841 284.244 327.574 283.514C329.028 282.9 330.897 282.402 330.943 279.774C330.976 277.919 329.917 275.649 328.636 274.05C327.355 272.449 325.878 271.378 324.436 270.343C316.936 264.95 309.437 259.556 301.938 254.164C300.76 253.317 299.563 252.459 298.392 252.05C297.222 251.641 296.058 251.733 295.432 252.682C294.697 253.795 294.835 255.891 295.433 257.85C296.03 259.808 297.024 261.679 297.999 263.508C302.062 271.125 306.125 278.74 310.188 286.356C310.402 286.759 310.634 287.248 310.56 287.589C310.506 287.84 310.301 287.908 310.112 287.96C307.712 288.608 305.311 289.257 302.911 289.905C302.685 289.966 302.443 290.025 302.175 289.874C301.825 289.679 301.532 289.192 301.274 288.744C298.05 283.14 294.822 277.527 291.866 271.728C289.748 267.572 287.755 263.284 286.361 258.89C285.2 255.231 284.745 251.967 284.653 248.865C284.548 245.28 284.93 241.909 285.274 238.395C285.544 235.607 285.814 232.819 286.087 230.031C296.246 237.394 306.406 244.758 316.592 251.832C321.49 255.233 326.43 258.592 331.196 262.942C335.247 266.64 338.552 272.38 340.259 278.329C340.427 278.915 340.58 279.503 340.714 280.088C340.782 280.38 340.845 280.673 340.903 280.964C341.298 282.919 341.465 284.829 341.42 286.608C341.398 287.484 341.321 288.321 341.197 289.125C340.634 292.813 339.277 295.871 337.116 297.646C334.618 299.696 331.012 299.959 327.924 300.682C328.734 302.15 329.545 303.617 330.356 305.085C332.079 308.206 333.816 311.352 335.186 314.662C337.232 319.605 338.495 325.064 337.913 329.415C337.609 331.695 336.886 334.317 335.769 335.659C333.926 337.873 331.489 339.315 328.542 339.094C327.161 338.992 325.699 338.569 324.223 337.818C322.733 337.058 321.244 335.996 319.763 334.938C312.472 329.722 305.18 324.516 297.89 319.304C294.203 316.668 290.515 314.03 286.828 311.394L278.698 305.583L278.698 305.586Z" fill="#FFB01E"/>
<path d="M250.518 115.409C252.189 116.696 253.803 118.121 255.471 119.476C276.813 136.818 303.709 154.416 332.431 152.667C336.341 152.429 340.969 151.112 344.766 150.175C355.521 190.371 386.476 223.395 419.357 247.278C418.947 248.904 418.512 250.524 418.052 252.136L394.288 332.568L387.004 357.284C380.491 379.347 373.66 399.829 351.966 411.453C326.942 424.864 293.064 419.919 267.133 412.314C264.527 409.492 259.209 400.962 256.872 397.353C259.416 393.41 260.884 390.738 262.524 386.293C264.383 389.246 268.972 396.774 271.079 398.925C272.518 399.367 273.971 399.722 275.423 400.086C310.464 408.929 354.822 409.257 370.408 369.233C373.363 361.644 375.428 353.929 377.749 346.088L387.663 312.487L399.281 273.19C401.233 266.565 403.811 258.719 405.367 252.13C375.763 227.816 354.15 203.049 339.29 166.986C338.217 167.13 337.141 167.248 336.063 167.341C309.633 169.715 281.272 154.795 260.975 138.958C259.764 138.013 258.331 136.581 256.829 136.738L256.271 137.959C256.052 139.837 254.016 146.305 253.397 148.406L246.974 170.019L232.5 219.062C222.923 251.292 216.069 268.934 224.78 303.677C226.788 311.683 229.961 323.154 233.373 330.559C235.025 335.327 238.231 342.069 240.36 346.76C235.841 345.767 232.465 345.283 227.85 344.924C226.858 341.64 223.125 333.157 221.734 329.415C217.159 317.345 213.824 304.84 211.782 292.095C209.674 278.927 209.551 265.518 211.418 252.314C212.804 242.754 215.38 234.386 218.095 225.183L225.657 199.676L250.518 115.409Z" fill="#FFB01E"/>
<path d="M416.618 338.041C418.488 329.192 420.921 322.456 425.65 314.604C440.679 290.57 464.458 271.257 491.975 263.908C525.831 254.865 544.033 276.161 529.282 307.717C526.729 313.178 523.996 317.498 520.744 322.645C507.792 342.743 480.079 362.303 456.72 367.517C440.541 371.126 420.139 368.406 416.6 349.119C415.87 345.253 415.739 341.928 416.618 338.041Z" fill="#FFB01E"/>
<path d="M416.617 338.041C418.486 329.192 420.92 322.456 425.649 314.604C440.678 290.57 464.456 271.257 491.975 263.908C525.83 254.865 544.031 276.161 529.281 307.717C526.728 313.178 523.994 317.498 520.743 322.645C516.988 323.01 513.114 323.542 509.388 323.863C517.785 313.011 526.161 299.752 524.69 285.499C523.167 270.749 508.413 266.486 495.637 268.596C472.192 272.468 450.822 288.258 436.503 306.735C429.075 316.577 424.981 325.13 423.463 337.285C421.079 337.637 419.007 337.834 416.617 338.041Z" fill="#FEEBA6"/>
<path d="M509.389 323.863C513.116 323.542 516.99 323.01 520.744 322.645C507.792 342.743 480.079 362.302 456.72 367.517C440.541 371.126 420.139 368.406 416.6 349.119C415.87 345.252 415.739 341.928 416.618 338.041C419.009 337.834 421.08 337.636 423.465 337.285C422.594 352.75 434.675 360.538 449.052 359.193C472.981 356.956 494.032 341.505 509.389 323.863Z" fill="white"/>
<path d="M425.196 336.807C429.264 304.963 467.379 273.356 498.608 269.997C510.824 268.684 522.736 273.937 523.122 287.478C523.512 301.26 514.642 315.52 505.743 325.407C494.259 338.348 479.138 349.305 462.65 354.719C445.485 360.357 425.025 359.435 425.196 336.807Z" fill="#FFB01E"/>
<path d="M425.197 336.807C429.264 304.963 467.379 273.356 498.609 269.997C510.824 268.684 522.737 273.937 523.123 287.478C523.512 301.26 514.642 315.52 505.743 325.407C503.502 324.465 496.019 326.406 492.745 326.332C495.36 322.941 501.256 314.194 495.994 310.291C495.219 309.715 493.635 309.262 492.669 308.957C496.586 306.133 500.352 302.621 501.177 297.554C502.344 290.402 494.808 290.243 489.81 290.25L493.199 280.549L487.207 281.374C486.114 284.495 484.869 287.823 483.849 290.948L479.016 291.707C480.088 288.568 481.305 285.21 482.289 282.065C480.309 282.379 478.323 282.672 476.337 282.945L472.911 292.754C469.288 293.266 464.198 293.83 460.726 294.547C460.052 296.538 459.224 298.799 458.639 300.792C460.156 300.571 463.686 299.708 464.961 300.537C465.32 300.77 465.347 300.966 465.393 301.375C465.589 303.066 458.228 323.819 456.892 327.109C456.454 328.187 455.926 329.283 455.161 330.168C453.757 331.793 450.821 331.779 448.804 332.038L447.808 333.974C445.335 333.439 429.126 336.345 425.197 336.807Z" fill="#FEEBA6"/>
<path d="M492.745 326.332C496.018 326.406 503.502 324.466 505.743 325.407C494.259 338.349 479.138 349.306 462.65 354.719C445.485 360.357 425.025 359.435 425.196 336.807C429.125 336.345 445.334 333.44 447.808 333.973L445.206 339.247C449.242 338.738 453.269 338.173 457.287 337.553L453.898 347.501C455.899 347.158 457.811 346.925 459.824 346.68L463.272 336.792L468.09 336.277L464.688 345.957L470.664 345.102C471.863 341.821 473.03 338.526 474.17 335.223C482.227 333.347 486.689 332.214 492.745 326.332Z" fill="white"/>
<path d="M476.376 315.681C478.138 315.407 481.957 315.322 483.505 316.026C487.774 317.969 484.161 323.116 481.712 324.933C479.092 326.879 477.148 327.465 474.151 328.273C471.442 328.813 468.721 329.185 465.987 329.586C467.109 325.677 469.079 320.515 470.446 316.576C472.138 316.174 474.599 315.918 476.376 315.681Z" fill="#FEEBA6"/>
<path d="M481.785 297.909C485.269 297.596 491.138 297.552 488.54 303.022C486.787 306.712 483.434 308.109 479.766 309.301C477.127 309.87 475.377 310.204 472.652 310.513C473.777 306.742 475.386 302.385 476.673 298.612L481.785 297.909Z" fill="#FEEBA6"/>
<path d="M148.502 395.371C150.534 391.296 152.39 387.435 155.096 383.713C166.08 368.614 183.983 357.186 201.496 351.251C215 346.827 231.373 344.18 244.689 350.442C249.236 352.578 253.532 356.999 254.916 361.825C258.39 373.93 250.687 386.397 242.786 395.009C241.252 396.682 238.752 398.983 237.579 400.782C231.903 406.953 221.209 413.031 213.48 417.207C195.763 426.779 154.083 436.081 146.813 409.22C145.92 405.92 146.493 398.42 148.502 395.371Z" fill="#FFB01E"/>
<path d="M148.5 395.371C150.532 391.296 152.388 387.435 155.094 383.713C166.078 368.614 183.981 357.186 201.495 351.251C214.999 346.827 231.372 344.18 244.687 350.442C249.234 352.578 253.53 356.999 254.914 361.825C258.389 373.93 250.686 386.397 242.784 395.009C241.251 396.682 238.751 398.983 237.578 400.782C236.166 399.792 230.344 400.126 227.94 399.845C236.029 392.938 243.081 385.876 246.611 375.465C250.138 365.063 245.114 355.225 234.357 352.474C206.295 345.295 162.536 368.338 154.173 396.1C153.655 395.941 149.681 395.573 148.5 395.371Z" fill="#FAEDD4"/>
<path d="M148.502 395.372C149.683 395.574 153.657 395.941 154.175 396.1C151.672 408.488 158.162 416.442 170.415 418.372C188.764 421.268 209.177 413.166 223.952 402.74C225.296 401.794 226.627 400.828 227.942 399.845C230.345 400.127 236.168 399.793 237.579 400.782C231.903 406.953 221.209 413.032 213.48 417.208C195.763 426.779 154.083 436.081 146.813 409.22C145.92 405.92 146.493 398.42 148.502 395.372Z" fill="white"/>
<path d="M155.919 396.061C164.928 369.251 207.067 346.83 234.635 354.382C238.434 355.421 242.905 358.599 244.563 362.248C250.63 375.6 234.852 393.401 224.492 400.249C210.552 411.117 187.934 419.732 170.219 416.61C158.657 414.576 153.663 407.44 155.919 396.061Z" fill="#FAEDD4"/>
<path d="M155.919 396.061C164.918 396.174 173.915 397.035 182.909 397.372C184.716 397.439 186.49 397.574 188.282 397.816C186.857 400.264 184.595 403.904 183.402 406.349C186.553 406.422 189.942 406.561 193.075 406.539L197.839 398.26L216.549 399.158C218.536 399.259 223.064 399.164 224.492 400.249C210.552 411.116 187.934 419.732 170.219 416.61C158.657 414.576 153.663 407.439 155.919 396.061Z" fill="white"/>
<path d="M207.841 381.807L207.969 381.094C208.935 381.253 211.841 381.495 212.42 381.676C215.001 381.869 223.468 382.653 224.221 385.622C222.603 389.577 206.679 390.288 202.621 390.288C200.989 392.923 199.395 395.58 197.84 398.26L193.076 406.539C189.943 406.561 186.554 406.422 183.403 406.349C184.596 403.904 186.858 400.264 188.283 397.816C189.17 396.609 191.892 391.652 192.794 390.099C189.896 389.997 175.478 388.992 176.404 385.184C178.151 383.256 181.209 382.812 183.715 382.359L183.942 382.837C188.926 382.117 192.714 381.786 197.749 381.74C196.645 383.459 195.575 385.453 194.565 387.246C197.729 387.625 200.934 387.54 204.119 387.515C205.031 386.085 206.778 382.662 207.841 381.807Z" fill="#FFB01E"/>
<path d="M207.84 381.807L207.967 381.094C208.933 381.253 211.839 381.495 212.418 381.676L212.96 382.343C215.322 382.588 220.204 383.226 222.043 384.685C222.893 390.573 179.735 390.221 179.047 384.825C180.066 383.6 182.364 383.119 183.94 382.837C188.924 382.117 192.711 381.786 197.747 381.74C196.643 383.459 195.573 385.453 194.562 387.246C197.727 387.625 200.932 387.54 204.117 387.515C205.029 386.085 206.776 382.662 207.84 381.807Z" fill="#FAEDD4"/>
<path d="M207.841 381.807L207.969 381.094C208.935 381.253 211.84 381.495 212.42 381.676L212.961 382.343C211.211 382.193 209.58 382.059 207.841 381.807Z" fill="#FFB01E"/>
<path d="M192.134 367.98C203.669 367.836 217.081 368.461 228.781 368.648L224.227 376.439C219.734 376.308 215.239 376.228 210.743 376.198L207.969 381.093L207.841 381.807C206.778 382.662 205.031 386.085 204.118 387.515C200.933 387.54 197.729 387.625 194.564 387.246C195.575 385.453 196.644 383.459 197.749 381.74L198.125 381.237C198.523 380.22 200.36 377.095 201 375.964C196.568 375.906 192.136 375.814 187.705 375.682C189.086 373.109 190.656 370.511 192.134 367.98Z" fill="#FFB01E"/>
<path d="M183.715 382.359C186.959 381.504 194.759 380.83 198.125 381.238L197.748 381.74C192.713 381.786 188.925 382.117 183.941 382.837L183.715 382.359Z" fill="#FFB01E"/>
<path d="M445.8 246.466C446.818 246.403 446.404 246.263 447.158 246.669C447.703 248.408 432.757 296.981 430.924 303.552C430.664 304.483 427.01 309.034 426.171 310.398C417.936 323.741 411.457 338.573 416.557 354.389L410.903 374.108C402.873 374.126 394.841 374.209 386.811 374.356L383.691 374.378L421.261 247.026L445.8 246.466Z" fill="#FFDD9F"/>
<path d="M335.729 169.967C336.581 169.583 337.304 169.113 338.181 169.301C339.308 170.845 342.98 178.673 344.037 180.912C345.588 184.2 348.218 188.616 349.658 191.727L269.085 226.814C255.421 232.761 239.164 240.354 225.481 245.698L235.058 214.089C238.36 212.437 243.069 210.524 246.538 209.002L268.526 199.375L335.729 169.967Z" fill="#FFFBF3"/>
<path d="M347.215 148.776C354.95 149.27 362.679 149.826 370.405 150.444C377.46 171.65 386.087 189.874 401.039 206.613C405.958 212.039 411.193 217.17 416.715 221.982C425.505 229.738 434.782 236.898 443.893 244.265C443.926 244.421 443.96 244.579 443.994 244.736L421.481 245.269C386.568 223.765 358.174 188.551 347.215 148.776Z" fill="#FFDD9F"/>
<path d="M523.324 321.883C524.694 323.081 529.318 328.968 530.746 330.739C516.333 352.244 490.198 371.093 465.033 377.359C455.714 379.681 444.127 381.069 435.567 375.931C433.048 373.863 429.526 369.2 427.464 366.571C455.242 378.6 491.084 356.708 510.235 337.537C515.006 332.762 519.248 327.251 523.324 321.883Z" fill="#FEB801"/>
<path d="M243.172 186.806C245.893 176.367 249.679 165.365 252.543 154.88C253.224 152.384 256.812 139.95 257.627 138.553C267.808 147.075 283.729 156.594 295.898 161.694C294.065 163.022 282.654 168.157 279.794 169.503L243.172 186.806Z" fill="#FFFBF3"/>
<path d="M296.118 162.391C298.155 162.018 303.374 164.429 305.701 165.17C310.126 166.583 314.64 167.704 319.213 168.525C317.622 169.488 312.008 171.853 310.08 172.714L291.394 181.055C273.951 188.85 255.158 197.758 237.64 205.036L242.682 187.929C247.048 185.963 295.421 163.263 296.118 162.391Z" fill="#FFFBF3"/>
<path d="M279.216 113.807C281.385 113.628 285.176 117.956 286.997 119.568C290.478 122.6 294.144 125.411 297.975 127.987C311.929 137.235 327.608 143.659 343.538 148.584C335.383 151.205 328.294 150.966 319.998 149.997C295.598 146.762 271.725 130.53 253.968 114.389C262.385 114.244 270.801 114.05 279.216 113.807Z" fill="white"/>
<path d="M240.099 400.39C241.091 401.548 243.879 407.106 244.77 408.794C231.005 422.652 207.092 433.811 187.763 435.802C177.822 436.826 166.37 436.982 158.206 430.523C156.2 428.277 154.404 424.26 153.015 421.491C177.918 437.248 216.602 420.777 236.729 403.402C237.861 402.424 238.99 401.398 240.099 400.39Z" fill="#FFC31E"/>
<path d="M319.496 169.233C321.034 168.642 330.988 169.437 334.108 169.347L334.203 169.472C333.48 170.392 243.28 209.424 235.443 213.027L237.396 206.15L295.747 180.029L311.669 172.914C313.51 172.09 318.08 170.17 319.496 169.233Z" fill="#FFFBF3"/>
<path d="M531.063 308.06C532.154 308.922 537.569 315.483 538.804 316.946C537.815 318.999 536.754 321.019 535.629 323.001C533.169 320.411 530.398 316.812 528.105 313.978C529.148 312.13 530.128 309.985 531.063 308.06Z" fill="#FEB801"/>
<path d="M249.09 390.221C250.136 391.59 252.878 397.011 253.74 398.68C252.552 400.326 251.457 401.649 250.151 403.206C249.312 402.026 246.404 396.398 245.498 394.759L249.09 390.221Z" fill="#FFC31E"/>
<path d="M124.108 231.731C129.511 230.96 140.262 231.874 143.93 235.994C147.847 240.394 157.319 250.836 159.52 255.887C167.03 273.122 154.509 295.434 143.159 308.428C126.041 328.026 102.367 343.493 75.8922 345.512C60.2756 345.791 54.2123 340.472 45.5147 328.765C42.0219 324.063 37.6989 320.687 37.3811 314.159C36.6299 298.729 45.5837 283.729 54.8252 272.007C71.3213 251.614 97.72 234.506 124.108 231.731Z" fill="#FFE1AA"/>
<path d="M61.5093 286.147C66.9143 276.598 84.9489 261.537 94.4966 255.804C108.708 247.22 125.755 240.711 142.527 244.124C155.427 246.749 163.102 259.86 159.889 272.509C158.626 277.598 157.379 282.251 155.141 287.059C146.719 305.15 130.55 320.909 113.644 331.156C99.6246 339.449 81.9812 346.386 65.5157 342.752C59.8788 341.508 54.2323 337.946 51.3863 332.889C43.8878 319.566 51.0679 302.483 58.5934 290.693C59.577 289.152 60.5559 287.673 61.5093 286.147Z" fill="#FFB01E"/>
<path d="M153.458 270.906C153.795 271.631 153.756 272.049 153.758 272.821C154.633 273.066 158.727 272.607 159.889 272.509C158.626 277.598 157.379 282.251 155.141 287.059C146.719 305.15 130.55 320.909 113.644 331.156C99.6246 339.449 81.9812 346.385 65.5157 342.751C59.8788 341.508 54.2323 337.945 51.3863 332.889C43.8878 319.566 51.0679 302.483 58.5934 290.693C59.577 289.152 60.5559 287.672 61.5093 286.147C62.5628 286.517 70.3658 285.383 72.1361 285.205C64.684 294.089 57.9669 305.538 57.1727 317.359C56.337 329.794 65.1411 337.847 77.3256 338.003C109.42 338.413 152.072 303.573 153.458 270.906Z" fill="#FFF5E3"/>
<path d="M61.5088 286.147C66.9137 276.598 84.9483 261.537 94.496 255.804C108.707 247.22 125.754 240.711 142.526 244.124C155.427 246.749 163.102 259.86 159.888 272.509C158.726 272.607 154.633 273.066 153.757 272.821C153.755 272.049 153.794 271.631 153.457 270.907C152.255 256.122 141.264 250.886 127.471 252.465C106.025 254.922 85.9284 269.251 72.1356 285.205C70.3652 285.383 62.5623 286.518 61.5088 286.147Z" fill="white"/>
<path d="M75.5692 283.926C88.0642 268.755 113.128 253.38 133.257 253.968C145.349 254.32 152.146 261.478 151.614 273.48C149.631 301.371 112.359 331.552 86.0374 335.716C71.2155 338.06 57.3152 333.399 59.0236 315.892C60.2266 304.554 67.7936 292.172 75.5692 283.926Z" fill="#FFF5E3"/>
<path d="M75.5693 283.926C88.0643 268.755 113.128 253.38 133.257 253.968C145.349 254.32 152.147 261.478 151.614 273.48C148.809 273.972 129.279 277.018 127.704 276.573L127.419 275.373L127.917 271.595C120.664 274.574 112.31 278.287 105.047 280.914C99.3613 280.214 78.1652 284.972 75.5693 283.926Z" fill="white"/>
<path d="M127.917 271.595L127.419 275.373C126.343 283.234 125.083 291.452 124.154 299.298C115.653 300.476 106.72 301.793 98.2145 302.79C94.2303 298.168 90.1364 293.505 86.2188 288.839C92.2564 286.247 99.2373 283.651 105.046 280.914C112.31 278.287 120.664 274.574 127.917 271.595Z" fill="#FFB01E"/>
<path d="M83.5459 292.109C84.932 292.926 93.8327 304.326 95.3865 306.274C104.558 305.041 113.736 303.863 122.921 302.738C120.026 304.134 116.027 305.636 112.982 306.875L82.8683 318.961C82.8 310.577 83.335 300.639 83.5459 292.109Z" fill="#FFB01E"/>
<path d="M126.694 233.275C138.924 232.33 142.715 236.281 149.491 245.209C121.861 233.97 85.2963 256.17 67.4761 276.505C64.2361 279.978 61.6175 283.364 58.8493 287.212L51.9043 278.684C54.0868 275.661 56.3962 272.733 58.8266 269.905C75.3279 250.908 101.166 235.047 126.694 233.275Z" fill="#FFDD9F"/>
<path d="M47.3278 285.992C49.6779 288.782 51.9747 291.616 54.2181 294.492L51.3613 300.203L44.292 291.734C45.2779 289.71 46.2283 287.959 47.3278 285.992Z" fill="#FFDD9F"/>
<path d="M133.422 92.0268C146.778 90.8307 162.995 100.542 172.714 109.273C188.684 123.641 202.652 144.474 204.278 166.348C205.254 179.477 200.748 186.4 190.691 193.542C184.083 198.236 183.66 201.251 174.743 201.69C162.4 201.435 149.749 194.329 140.177 186.727C121.942 172.042 107.021 149.539 104.11 126.025C102.577 113.644 105.421 108.413 114.889 101.634C122.356 96.289 123.285 92.9302 133.422 92.0268Z" fill="#FFE1AA"/>
<path d="M152.14 180.35C145.737 176.806 137.205 167.044 132.233 161.159C119.345 145.907 102.089 108.27 125.655 95.0928C128.576 93.4595 136.394 92.3827 139.747 93.6522C139.828 93.6852 139.91 93.7176 139.991 93.75C145.135 95.3111 148.394 95.87 153.384 98.2981C172.07 107.392 187.998 125.293 196.589 144.024C201.344 154.796 204.971 167.882 200.929 179.379C199.295 184.03 195.879 188.123 191.37 190.023C180.497 194.604 168.091 189.703 158.506 184.205C157.123 183.412 153.291 180.606 152.14 180.35Z" fill="#FFB01E"/>
<path d="M139.747 93.6527C139.828 93.6851 139.909 93.7181 139.991 93.7505C145.135 95.3117 148.394 95.8699 153.384 98.2987C172.07 107.392 187.998 125.294 196.589 144.024C201.344 154.796 204.971 167.882 200.929 179.38C199.295 184.03 195.879 188.123 191.369 190.023C180.497 194.604 168.091 189.702 158.507 184.205C157.123 183.413 153.291 180.607 152.14 180.35C152.501 179.379 151.336 172.423 151.118 170.918C158.607 177.093 167.276 182.386 176.982 183.931C187.586 185.62 196.576 179.789 197.617 168.738C199.056 153.467 190.632 137.091 181.289 125.478C171.156 112.883 157.074 101.177 140.542 99.3089C140.375 97.4322 140.274 95.4526 139.747 93.6527Z" fill="#FFF8EA"/>
<path d="M152.14 180.35C145.737 176.806 137.205 167.044 132.233 161.159C119.345 145.907 102.089 108.27 125.655 95.0928C128.576 93.4595 136.394 92.3827 139.747 93.6522C140.274 95.4527 140.376 97.4323 140.542 99.309C135.969 99.3664 130.121 100.282 127.166 103.905C111.941 122.572 134.137 154.897 146.825 167.004C148.225 168.343 149.656 169.648 151.118 170.918C151.336 172.423 152.501 179.379 152.14 180.35Z" fill="white"/>
<path d="M149.927 167.513C136.959 156.542 124.343 136.328 123.842 119.102C123.495 107.172 129.208 101.05 140.973 101.059C157.428 103.232 171.208 115.407 181.103 128.028C190.46 139.963 204.222 167.233 190.13 179.645C180.594 188.043 156.598 175.617 149.927 167.513Z" fill="#FFF8EA"/>
<path d="M149.927 167.513C136.959 156.542 124.343 136.328 123.842 119.102C123.495 107.172 129.208 101.05 140.973 101.059C141.29 104.115 141.721 106.912 142.196 109.944C138.554 111.523 136.609 113.167 134.56 116.664L137.714 118.288C139.412 115.956 140.023 115.089 142.574 113.689C143.165 115.663 144.823 126.846 144.774 128.611L140.564 126.798C140.816 129.228 141.031 131.772 141.454 134.168L146.148 136.266C146.446 139.329 148.79 152.721 148.035 154.434C145.145 151.066 142.691 147.348 140.729 143.368L137.426 144.953C141.296 152.097 144.251 156.109 149.981 161.938C150.046 163.383 150.479 166.497 149.927 167.513Z" fill="white"/>
<path d="M146.216 120.613L152.954 123.565C153.779 130.424 154.397 137.832 155.707 144.614C155.875 145.486 157.012 146.28 157.856 146.5C160.916 144.681 153.504 127.152 159.41 124.619C160.769 124.037 161.931 124.077 163.309 124.668C170.434 127.723 174.007 134.286 174.327 141.707C176.539 142.713 178.982 143.767 181.149 144.818C181.482 147.327 181.79 149.6 181.952 152.136L175.277 149.143L176.373 158.325L169.571 155.338C168.694 148.365 168.23 141.2 166.851 134.347C166.668 133.44 165.528 132.661 164.669 132.432C164.376 132.557 163.988 132.605 163.972 132.994C163.734 138.742 166.019 145.224 165.424 150.968C165.161 153.495 161.85 155.576 159.131 154.339C152.572 151.354 148.467 144.696 148.149 137.544C148.125 136.997 146.585 136.456 146.148 136.266L141.454 134.168C141.031 131.772 140.816 129.228 140.564 126.798L144.774 128.611L147.283 129.852C146.938 126.921 146.451 123.517 146.216 120.613Z" fill="#FFB01E"/>
<path d="M137.426 144.953L140.728 143.368C142.69 147.348 145.145 151.066 148.034 154.434C155.583 163.771 176.323 179.197 184.361 162.255L187.669 163.486C179.545 181.385 160.68 171.63 149.98 161.938C144.25 156.109 141.295 152.097 137.426 144.953Z" fill="#FFB01E"/>
<path d="M142.195 109.944C158.316 105.193 176.781 123.074 183.281 136.636L180.094 138.241C174.229 127.602 164.982 117.214 152.976 113.485C149.748 112.482 145.748 112.344 142.573 113.689C140.022 115.089 139.412 115.956 137.714 118.289L134.56 116.665C136.609 113.168 138.554 111.523 142.195 109.944Z" fill="#FFB01E"/>
<path d="M115.296 103.587C115.538 103.808 113.769 109.355 113.646 110.254C109.862 137.831 132.186 168.136 153.063 182.694C150.583 184.674 148.128 186.684 145.698 188.725C124.506 174.256 103.789 143.783 105.834 116.872C106.341 110.204 110.376 107.304 115.296 103.587Z" fill="#FFCB1E"/>
<path d="M159.314 186.776C159.888 186.927 163.591 188.887 164.357 189.28C162.019 191.348 159.638 193.367 157.215 195.335C155.834 194.844 153.421 193.482 152.03 192.747C154.347 190.758 156.935 188.72 159.314 186.776Z" fill="#FFCB1E"/>
<path d="M475.882 62.0983C476.642 62.3138 476.589 62.2913 477.15 62.8536C478.024 65.202 481.024 84.3905 481.306 87.1183C481.833 92.2071 488.272 125.947 487.482 127.98C485.961 128.87 483.381 128.188 481.539 127.902C482.581 130.039 484.879 133.652 486.158 135.945C482.177 139.027 476.939 142.533 472.771 145.492L448.245 162.865C447.132 163.647 446.044 164.655 444.898 164.456C444.135 163.754 444.138 163.039 443.93 161.964C439.152 143.681 433.019 123.412 428.86 105.218C432.066 105.588 433.264 105.663 436.522 105.708L432.507 97.7269C446.645 86.0968 461.56 73.3554 475.882 62.0983Z" fill="#FFB01E"/>
<path d="M475.862 65.7252C476.499 67.0041 476.992 70.9791 477.25 72.5411C480.247 90.5998 482.926 108.74 486.064 126.773C478.746 125.548 468.767 124.77 461.124 123.792C457.351 123.531 451.614 122.721 447.875 122.194C457.173 103.577 466.281 84.1119 475.862 65.7252Z" fill="#FFDD9F"/>
<path d="M472.904 66.7767C472.996 68.0336 448.859 116.361 446.53 121.151C445.157 118.659 443.836 116.14 442.567 113.594L434.596 98.2094C447.4 87.9966 460.014 76.8299 472.904 66.7767Z" fill="white"/>
<path d="M442.563 132.04C446.897 132.657 452.346 133.048 456.766 133.487L482.978 136.121C478.065 139.746 472.784 143.378 467.777 146.891C460.578 152.056 453.348 157.178 446.088 162.257C445.827 160.727 445.626 159.041 445.472 157.491C444.635 149.051 443.192 140.487 442.563 132.04Z" fill="#FFDD9F"/>
<path d="M433.78 116.97C435.64 118.927 440.942 132.188 441.141 135.474C441.396 139.694 442.662 145.742 442.616 149.894C441.837 147.683 441.166 145.054 440.581 142.769C438.384 134.194 435.763 125.589 433.78 116.97Z" fill="#FFF5E3"/>
</g>
<defs>
<linearGradient id="paint0_linear_210_218" x1="300.231" y1="268.792" x2="286.788" y2="714.638" gradientUnits="userSpaceOnUse">
<stop stop-color="#CACACA"/>
<stop offset="0.759717" stop-color="white"/>
</linearGradient>
<clipPath id="clip0_210_218">
<rect width="582" height="658" rx="24" fill="white"/>
</clipPath>
</defs>
</svg>
