<svg width="639" height="227" viewBox="0 0 639 227" fill="none" xmlns="http://www.w3.org/2000/svg">
<g clip-path="url(#clip0_193_3627)">
<circle cx="319.231" cy="269.957" r="267.052" stroke="#EEF4FD" stroke-width="2.35808"/>
<path d="M319 47.6355C442.063 47.6355 541.821 147.175 541.821 269.957C541.821 392.739 442.063 492.278 319 492.278C195.937 492.278 96.1787 392.739 96.1787 269.957C96.1787 147.175 195.937 47.6355 319 47.6355Z" stroke="#EEF4FD" stroke-width="2.35808"/>
<path d="M319 93.6355C416.659 93.6355 495.821 172.581 495.821 269.957C495.821 367.333 416.659 446.278 319 446.278C221.341 446.278 142.179 367.333 142.179 269.957C142.179 172.581 221.341 93.6355 319 93.6355Z" stroke="#EEF4FD" stroke-width="2.35808"/>
<path d="M319 147.635C386.837 147.635 441.821 202.405 441.821 269.957C441.821 337.508 386.837 392.278 319 392.278C251.163 392.278 196.179 337.508 196.179 269.957C196.179 202.405 251.163 147.635 319 147.635Z" stroke="#EEF4FD" stroke-width="2.35808"/>
<circle cx="154.269" cy="58.4568" r="12" fill="url(#paint0_linear_193_3627)"/>
<circle cx="116" cy="180.457" r="12" fill="url(#paint1_linear_193_3627)"/>
<circle cx="466" cy="180.457" r="12" fill="url(#paint2_linear_193_3627)"/>
<circle cx="535" cy="212.457" r="8" fill="url(#paint3_linear_193_3627)"/>
</g>
<g filter="url(#filter0_d_193_3627)">
<rect x="190" y="68.7632" width="259.692" height="114.776" rx="57.388" fill="white" shape-rendering="crispEdges"/>
<g filter="url(#filter1_d_193_3627)">
<rect x="199.185" y="77.9479" width="241.323" height="96.4065" rx="48.2033" fill="white" shape-rendering="crispEdges"/>
<rect x="208.369" y="87.1326" width="222.953" height="78.0371" rx="39.0185" fill="#FFB01E"/>
<path d="M254.354 116.578H257.222V130.101C257.222 131.324 256.98 132.37 256.496 133.239C256.018 134.108 255.344 134.773 254.475 135.232C253.606 135.685 252.588 135.912 251.421 135.912C250.347 135.912 249.381 135.716 248.524 135.325C247.674 134.934 247 134.366 246.503 133.621C246.013 132.87 245.768 131.957 245.768 130.883H248.627C248.627 131.411 248.748 131.867 248.99 132.252C249.238 132.637 249.577 132.938 250.005 133.155C250.44 133.366 250.936 133.472 251.495 133.472C252.104 133.472 252.619 133.345 253.041 133.09C253.469 132.829 253.795 132.447 254.019 131.945C254.242 131.442 254.354 130.827 254.354 130.101V116.578ZM267.213 135.94C265.872 135.94 264.702 135.632 263.702 135.018C262.702 134.403 261.926 133.543 261.374 132.438C260.821 131.333 260.545 130.042 260.545 128.564C260.545 127.08 260.821 125.783 261.374 124.671C261.926 123.56 262.702 122.697 263.702 122.082C264.702 121.468 265.872 121.16 267.213 121.16C268.554 121.16 269.724 121.468 270.724 122.082C271.723 122.697 272.499 123.56 273.052 124.671C273.605 125.783 273.881 127.08 273.881 128.564C273.881 130.042 273.605 131.333 273.052 132.438C272.499 133.543 271.723 134.403 270.724 135.018C269.724 135.632 268.554 135.94 267.213 135.94ZM267.222 133.602C268.091 133.602 268.812 133.373 269.383 132.913C269.954 132.454 270.376 131.842 270.649 131.079C270.929 130.315 271.068 129.474 271.068 128.555C271.068 127.642 270.929 126.804 270.649 126.04C270.376 125.27 269.954 124.653 269.383 124.187C268.812 123.721 268.091 123.489 267.222 123.489C266.347 123.489 265.62 123.721 265.043 124.187C264.472 124.653 264.047 125.27 263.767 126.04C263.494 126.804 263.357 127.642 263.357 128.555C263.357 129.474 263.494 130.315 263.767 131.079C264.047 131.842 264.472 132.454 265.043 132.913C265.62 133.373 266.347 133.602 267.222 133.602ZM276.989 135.651V121.347H279.774V135.651H276.989ZM278.395 119.139C277.911 119.139 277.495 118.978 277.147 118.655C276.806 118.326 276.635 117.935 276.635 117.482C276.635 117.022 276.806 116.631 277.147 116.308C277.495 115.979 277.911 115.815 278.395 115.815C278.88 115.815 279.292 115.979 279.634 116.308C279.982 116.631 280.155 117.022 280.155 117.482C280.155 117.935 279.982 118.326 279.634 118.655C279.292 118.978 278.88 119.139 278.395 119.139ZM286.304 127.158V135.651H283.52V121.347H286.192V123.675H286.369C286.698 122.917 287.214 122.309 287.915 121.849C288.623 121.39 289.514 121.16 290.588 121.16C291.563 121.16 292.417 121.365 293.149 121.775C293.882 122.179 294.45 122.781 294.853 123.582C295.257 124.383 295.459 125.373 295.459 126.552V135.651H292.674V126.888C292.674 125.851 292.404 125.041 291.864 124.457C291.324 123.867 290.582 123.572 289.638 123.572C288.993 123.572 288.418 123.712 287.915 123.991C287.419 124.271 287.024 124.681 286.733 125.221C286.447 125.755 286.304 126.4 286.304 127.158ZM309.235 135.651L305.025 121.347H307.903L310.706 131.851H310.846L313.658 121.347H316.536L319.33 131.805H319.47L322.254 121.347H325.132L320.932 135.651H318.091L315.186 125.323H314.972L312.066 135.651H309.235ZM331.937 135.968C331.031 135.968 330.211 135.8 329.479 135.465C328.746 135.123 328.166 134.63 327.737 133.984C327.315 133.338 327.104 132.547 327.104 131.609C327.104 130.802 327.259 130.138 327.57 129.616C327.88 129.095 328.299 128.682 328.827 128.378C329.355 128.074 329.944 127.844 330.596 127.689C331.248 127.533 331.912 127.415 332.589 127.335C333.446 127.235 334.141 127.155 334.675 127.093C335.209 127.024 335.597 126.916 335.839 126.767C336.082 126.618 336.203 126.376 336.203 126.04V125.975C336.203 125.162 335.973 124.532 335.513 124.085C335.06 123.638 334.383 123.414 333.483 123.414C332.546 123.414 331.807 123.622 331.267 124.038C330.733 124.448 330.363 124.904 330.159 125.407L327.542 124.811C327.852 123.942 328.305 123.24 328.901 122.706C329.504 122.166 330.196 121.775 330.978 121.533C331.76 121.284 332.583 121.16 333.446 121.16C334.017 121.16 334.622 121.229 335.262 121.365C335.908 121.496 336.51 121.738 337.069 122.092C337.634 122.445 338.096 122.951 338.456 123.61C338.816 124.261 338.996 125.109 338.996 126.152V135.651H336.277V133.695H336.165C335.985 134.056 335.715 134.409 335.355 134.757C334.995 135.105 334.532 135.393 333.967 135.623C333.403 135.853 332.726 135.968 331.937 135.968ZM332.543 133.733C333.312 133.733 333.971 133.581 334.517 133.276C335.07 132.972 335.489 132.575 335.774 132.084C336.066 131.588 336.212 131.057 336.212 130.492V128.648C336.113 128.747 335.92 128.84 335.634 128.927C335.355 129.008 335.035 129.079 334.675 129.141C334.315 129.197 333.964 129.25 333.623 129.3C333.281 129.343 332.996 129.38 332.766 129.412C332.226 129.48 331.732 129.595 331.285 129.756C330.845 129.918 330.491 130.15 330.224 130.455C329.963 130.753 329.833 131.15 329.833 131.647C329.833 132.336 330.087 132.857 330.596 133.211C331.105 133.559 331.754 133.733 332.543 133.733ZM342.705 135.651V121.347H345.49V135.651H342.705ZM344.112 119.139C343.627 119.139 343.211 118.978 342.864 118.655C342.522 118.326 342.351 117.935 342.351 117.482C342.351 117.022 342.522 116.631 342.864 116.308C343.211 115.979 343.627 115.815 344.112 115.815C344.596 115.815 345.009 115.979 345.35 116.308C345.698 116.631 345.872 117.022 345.872 117.482C345.872 117.935 345.698 118.326 345.35 118.655C345.009 118.978 344.596 119.139 344.112 119.139ZM355.913 121.347V123.582H348.1V121.347H355.913ZM350.195 117.919H352.98V131.451C352.98 131.991 353.06 132.398 353.222 132.671C353.383 132.938 353.591 133.121 353.846 133.22C354.107 133.314 354.389 133.36 354.693 133.36C354.917 133.36 355.112 133.345 355.28 133.314C355.448 133.283 355.578 133.258 355.671 133.239L356.174 135.539C356.013 135.601 355.783 135.664 355.485 135.726C355.187 135.794 354.814 135.831 354.367 135.837C353.635 135.85 352.952 135.719 352.318 135.446C351.685 135.173 351.173 134.751 350.782 134.18C350.391 133.609 350.195 132.891 350.195 132.028V117.919ZM362.085 116.578V135.651H359.301V116.578H362.085ZM365.831 135.651V121.347H368.616V135.651H365.831ZM367.238 119.139C366.753 119.139 366.337 118.978 365.99 118.655C365.648 118.326 365.478 117.935 365.478 117.482C365.478 117.022 365.648 116.631 365.99 116.308C366.337 115.979 366.753 115.815 367.238 115.815C367.722 115.815 368.135 115.979 368.476 116.308C368.824 116.631 368.998 117.022 368.998 117.482C368.998 117.935 368.824 118.326 368.476 118.655C368.135 118.978 367.722 119.139 367.238 119.139ZM383.081 124.839L380.557 125.286C380.452 124.963 380.284 124.656 380.055 124.364C379.831 124.072 379.527 123.833 379.142 123.647C378.757 123.461 378.276 123.367 377.698 123.367C376.91 123.367 376.252 123.544 375.724 123.898C375.196 124.246 374.932 124.696 374.932 125.249C374.932 125.727 375.109 126.112 375.463 126.403C375.817 126.695 376.388 126.934 377.177 127.121L379.449 127.642C380.765 127.946 381.746 128.415 382.392 129.048C383.038 129.682 383.361 130.504 383.361 131.516C383.361 132.373 383.112 133.137 382.616 133.807C382.125 134.471 381.439 134.993 380.557 135.372C379.682 135.75 378.667 135.94 377.512 135.94C375.91 135.94 374.603 135.598 373.591 134.915C372.579 134.226 371.959 133.248 371.729 131.982L374.42 131.572C374.588 132.274 374.932 132.804 375.454 133.165C375.975 133.518 376.655 133.695 377.493 133.695C378.406 133.695 379.136 133.506 379.682 133.127C380.228 132.742 380.502 132.274 380.502 131.721C380.502 131.274 380.334 130.898 379.999 130.594C379.67 130.29 379.164 130.06 378.481 129.905L376.059 129.374C374.724 129.07 373.737 128.586 373.098 127.921C372.465 127.257 372.148 126.416 372.148 125.398C372.148 124.553 372.384 123.814 372.856 123.181C373.328 122.548 373.979 122.054 374.811 121.7C375.643 121.34 376.596 121.16 377.67 121.16C379.216 121.16 380.433 121.496 381.321 122.166C382.209 122.83 382.796 123.721 383.081 124.839ZM393.1 121.347V123.582H385.286V121.347H393.1ZM387.381 117.919H390.166V131.451C390.166 131.991 390.247 132.398 390.408 132.671C390.57 132.938 390.778 133.121 391.032 133.22C391.293 133.314 391.575 133.36 391.88 133.36C392.103 133.36 392.299 133.345 392.466 133.314C392.634 133.283 392.764 133.258 392.857 133.239L393.36 135.539C393.199 135.601 392.969 135.664 392.671 135.726C392.373 135.794 392.001 135.831 391.554 135.837C390.821 135.85 390.138 135.719 389.505 135.446C388.871 135.173 388.359 134.751 387.968 134.18C387.577 133.609 387.381 132.891 387.381 132.028V117.919Z" fill="#0B0B0B"/>
</g>
</g>
<defs>
<filter id="filter0_d_193_3627" x="163.758" y="55.6421" width="312.177" height="167.26" filterUnits="userSpaceOnUse" color-interpolation-filters="sRGB">
<feFlood flood-opacity="0" result="BackgroundImageFix"/>
<feColorMatrix in="SourceAlpha" type="matrix" values="0 0 0 0 0 0 0 0 0 0 0 0 0 0 0 0 0 0 127 0" result="hardAlpha"/>
<feOffset dy="13.1211"/>
<feGaussianBlur stdDeviation="13.1211"/>
<feComposite in2="hardAlpha" operator="out"/>
<feColorMatrix type="matrix" values="0 0 0 0 0.12549 0 0 0 0 0.486275 0 0 0 0 0.996078 0 0 0 0.12 0"/>
<feBlend mode="normal" in2="BackgroundImageFix" result="effect1_dropShadow_193_3627"/>
<feBlend mode="normal" in="SourceGraphic" in2="effect1_dropShadow_193_3627" result="shape"/>
</filter>
<filter id="filter1_d_193_3627" x="172.942" y="64.8268" width="293.806" height="148.891" filterUnits="userSpaceOnUse" color-interpolation-filters="sRGB">
<feFlood flood-opacity="0" result="BackgroundImageFix"/>
<feColorMatrix in="SourceAlpha" type="matrix" values="0 0 0 0 0 0 0 0 0 0 0 0 0 0 0 0 0 0 127 0" result="hardAlpha"/>
<feOffset dy="13.1211"/>
<feGaussianBlur stdDeviation="13.1211"/>
<feComposite in2="hardAlpha" operator="out"/>
<feColorMatrix type="matrix" values="0 0 0 0 0.12549 0 0 0 0 0.486275 0 0 0 0 0.996078 0 0 0 0.08 0"/>
<feBlend mode="normal" in2="BackgroundImageFix" result="effect1_dropShadow_193_3627"/>
<feBlend mode="normal" in="SourceGraphic" in2="effect1_dropShadow_193_3627" result="shape"/>
</filter>
<linearGradient id="paint0_linear_193_3627" x1="154.269" y1="46.4568" x2="154.269" y2="70.4568" gradientUnits="userSpaceOnUse">
<stop stop-color="#FFB01E"/>
<stop offset="1" stop-color="#F9DBA5"/>
</linearGradient>
<linearGradient id="paint1_linear_193_3627" x1="116" y1="168.457" x2="116" y2="192.457" gradientUnits="userSpaceOnUse">
<stop stop-color="#FFB01E"/>
<stop offset="1" stop-color="#F9DBA5"/>
</linearGradient>
<linearGradient id="paint2_linear_193_3627" x1="466" y1="168.457" x2="466" y2="192.457" gradientUnits="userSpaceOnUse">
<stop stop-color="#FFB01E"/>
<stop offset="1" stop-color="#F9DBA5"/>
</linearGradient>
<linearGradient id="paint3_linear_193_3627" x1="535" y1="204.457" x2="535" y2="220.457" gradientUnits="userSpaceOnUse">
<stop stop-color="#FFB01E"/>
<stop offset="1" stop-color="#F9DBA5"/>
</linearGradient>
<clipPath id="clip0_193_3627">
<rect width="537.268" height="227" fill="white" transform="translate(51)"/>
</clipPath>
</defs>
</svg>
