<svg preserveAspectRatio="none" width="100%" height="100%" overflow="visible" style="display: block;" viewBox="0 0 32 32" fill="none" xmlns="http://www.w3.org/2000/svg">
<g id="SVG">
<path id="Vector" d="M13.3333 17.3333C13.9059 18.0988 14.6365 18.7322 15.4754 19.1905C16.3143 19.6489 17.242 19.9214 18.1955 19.9897C19.1491 20.058 20.1061 19.9204 21.0018 19.5863C21.8975 19.2522 22.7108 18.7294 23.3867 18.0533L27.3867 14.0533C28.6011 12.7959 29.273 11.1119 29.2578 9.36395C29.2426 7.61597 28.5415 5.94388 27.3055 4.70783C26.0694 3.47178 24.3973 2.77065 22.6493 2.75546C20.9014 2.74027 19.2173 3.41223 17.96 4.62662L15.6667 6.90662" stroke="var(--stroke-0, #212121)" stroke-width="2" stroke-linecap="round" stroke-linejoin="round"/>
<path id="Vector_2" d="M18.6666 14.667C18.094 13.9015 17.3635 13.2681 16.5245 12.8097C15.6856 12.3514 14.7579 12.0788 13.8044 12.0105C12.8509 11.9422 11.8938 12.0798 10.9981 12.4139C10.1025 12.748 9.28912 13.2709 8.61327 13.947L4.61327 17.947C3.39889 19.2043 2.72692 20.8883 2.74211 22.6363C2.7573 24.3843 3.45843 26.0564 4.69448 27.2924C5.93054 28.5285 7.60262 29.2296 9.3506 29.2448C11.0986 29.26 12.7826 28.588 14.0399 27.3736L16.3199 25.0936" stroke="var(--stroke-0, #212121)" stroke-width="2" stroke-linecap="round" stroke-linejoin="round"/>
</g>
</svg>
