<svg preserveAspectRatio="none" width="100%" height="100%" overflow="visible" style="display: block;" viewBox="0 0 32 32" fill="none" xmlns="http://www.w3.org/2000/svg">
<g id="Frame">
<path id="Vector" d="M10.6667 18.6668C15.0849 18.6668 18.6667 15.0851 18.6667 10.6668C18.6667 6.24852 15.0849 2.6668 10.6667 2.6668C6.24837 2.6668 2.66665 6.24852 2.66665 10.6668C2.66665 15.0851 6.24837 18.6668 10.6667 18.6668Z" stroke="var(--stroke-0, #212121)" stroke-width="2" stroke-linecap="round" stroke-linejoin="round"/>
<path id="Vector_2" d="M24.1201 13.827C25.3805 14.2969 26.502 15.077 27.3811 16.0952C28.2601 17.1134 28.8681 18.3369 29.149 19.6524C29.4299 20.9679 29.3746 22.333 28.9881 23.6214C28.6016 24.9099 27.8965 26.08 26.938 27.0238C25.9794 27.9675 24.7983 28.6543 23.504 29.0206C22.2097 29.3869 20.8439 29.421 19.533 29.1196C18.222 28.8182 17.0082 28.1911 16.0038 27.2963C14.9994 26.4015 14.2369 25.2679 13.7867 24.0003" stroke="var(--stroke-0, #212121)" stroke-width="2" stroke-linecap="round" stroke-linejoin="round"/>
<path id="Vector_3" d="M9.33335 8H10.6667V13.3333" stroke="var(--stroke-0, #212121)" stroke-width="2" stroke-linecap="round" stroke-linejoin="round"/>
<path id="Vector_4" d="M22.28 18.5066L23.2134 19.4533L19.4534 23.2133" stroke="var(--stroke-0, #212121)" stroke-width="2" stroke-linecap="round" stroke-linejoin="round"/>
</g>
</svg>
