<svg width="639" height="227" viewBox="0 0 639 227" fill="none" xmlns="http://www.w3.org/2000/svg">
<g clip-path="url(#clip0_187_3493)">
<g clip-path="url(#clip1_187_3493)">
<circle cx="-28.5" cy="113.957" r="106" stroke="#E5E6E8"/>
<circle cx="671.5" cy="113.957" r="106" stroke="#E5E6E8"/>
<line x1="78" y1="114.957" x2="565" y2="114.957" stroke="#E5E6E8"/>
</g>
<g filter="url(#filter0_d_187_3493)">
<path d="M146.234 51.6435C146.234 39.0213 156.467 28.7889 169.089 28.7889H470.007C482.629 28.7889 492.861 39.0213 492.861 51.6435V105.923C492.861 118.545 482.629 128.778 470.007 128.778H169.089C156.467 128.778 146.234 118.545 146.234 105.923V51.6435Z" fill="white"/>
<path d="M169.089 29.2655H470.007C482.366 29.2655 492.386 39.2842 492.386 51.6434V105.923C492.386 118.282 482.366 128.302 470.007 128.302H169.089C156.73 128.302 146.711 118.282 146.711 105.923V51.6434C146.711 39.2842 156.73 29.2655 169.089 29.2655Z" stroke="#EEF4FD" stroke-width="0.952272"/>
<circle cx="197.657" cy="79.2593" r="31.425" fill="#E8EDF4"/>
<rect x="243.366" y="53.0719" width="140.936" height="20.95" rx="10.475" fill="#E8EDF4"/>
<rect x="243.366" y="84.4969" width="169.504" height="20.95" rx="10.475" fill="#E8EDF4"/>
<rect x="418.584" y="68.7844" width="57.1363" height="20.95" rx="10.475" fill="#E8EDF4"/>
</g>
<g filter="url(#filter1_d_187_3493)">
<path d="M129.094 85.9253C129.094 73.3031 139.326 63.0708 151.948 63.0708H487.148C499.77 63.0708 510.003 73.3031 510.003 85.9253V140.205C510.003 152.827 499.77 163.059 487.148 163.059H151.948C139.326 163.059 129.094 152.827 129.094 140.205V85.9253Z" fill="white"/>
<path d="M151.948 63.5474H487.148C499.508 63.5475 509.526 73.5662 509.526 85.9253V140.205C509.526 152.564 499.508 162.583 487.148 162.583H151.948C139.589 162.583 129.57 152.564 129.57 140.205V85.9253C129.57 73.5661 139.589 63.5474 151.948 63.5474Z" stroke="#EEF4FD" stroke-width="0.952272"/>
<circle cx="180.517" cy="113.541" r="31.425" fill="#E8EDF4"/>
<rect x="226.226" y="87.3539" width="140.936" height="20.95" rx="10.475" fill="#E8EDF4"/>
<rect x="226.226" y="118.779" width="169.504" height="20.95" rx="10.475" fill="#E8EDF4"/>
<rect x="435.726" y="103.066" width="57.1363" height="20.95" rx="10.475" fill="#E8EDF4"/>
</g>
<g filter="url(#filter2_d_187_3493)">
<rect x="111" y="97.3525" width="417.095" height="99.9886" rx="22.8545" fill="white"/>
<rect x="111.477" y="97.8287" width="416.143" height="99.0363" rx="22.3784" stroke="#EEF4FD" stroke-width="0.952272"/>
<circle cx="162.423" cy="147.823" r="31.425" fill="#E8EDF4"/>
<rect x="208.132" y="121.635" width="140.936" height="20.95" rx="10.475" fill="#E8EDF4"/>
<rect x="208.132" y="153.06" width="169.504" height="20.95" rx="10.475" fill="#E8EDF4"/>
<rect x="453.818" y="137.348" width="57.1363" height="20.95" rx="10.475" fill="#E8EDF4"/>
</g>
<rect x="269.826" y="58.131" width="100.801" height="100.801" rx="50.4005" fill="#FFB01E"/>
<mask id="mask0_187_3493" style="mask-type:luminance" maskUnits="userSpaceOnUse" x="298" y="85" width="44" height="48">
<path d="M341.937 85.5106H298.177V132.094H341.937V85.5106Z" fill="white"/>
</mask>
<g mask="url(#mask0_187_3493)">
<path d="M298.177 132.093V104.299C298.177 104.217 298.135 103.987 298.177 103.915C298.293 103.718 298.81 104.297 298.948 104.417C300.898 106.115 302.854 107.806 304.813 109.493C305.202 109.828 305.604 110.18 305.802 110.653C305.968 111.049 305.974 111.49 305.979 111.919C306.009 114.88 306.04 117.842 306.07 120.803C306.082 121.973 306.153 123.285 307.014 124.078C308.05 125.033 309.659 124.824 310.945 124.826C312.714 124.83 314.483 124.835 316.252 124.839C319.727 124.847 323.202 124.856 326.678 124.865C328.485 124.869 331.26 125.166 332.576 123.673C333.489 122.637 333.406 121.003 332.752 119.787C332.097 118.571 330.987 117.677 329.906 116.818C326.792 114.343 323.678 111.866 320.564 109.391C320.721 109.517 327.022 103.187 327.623 102.606C328.798 101.473 329.971 100.339 331.143 99.203C332.127 98.249 333.411 97.1914 333.262 95.6567C333.158 94.5738 332.253 93.7015 331.24 93.3078C330.225 92.9134 329.109 92.9052 328.02 92.9027C322.356 92.8872 316.692 92.8709 311.029 92.8554C310.14 92.8529 309.236 92.8521 308.381 93.0996C307.527 93.3462 306.713 93.8795 306.336 94.6848C305.894 95.6298 306.136 96.7814 306.693 97.6643C307.249 98.5471 308.08 99.216 308.894 99.8686C312.286 102.584 315.679 105.299 319.071 108.015C319.249 108.158 319.447 108.345 319.419 108.572C319.397 108.739 319.258 108.862 319.128 108.97C317.479 110.334 315.83 111.699 314.181 113.063C314.026 113.191 313.859 113.325 313.659 113.349C313.398 113.381 313.158 113.22 312.945 113.069C310.284 111.167 307.619 109.263 305.133 107.138C303.352 105.616 301.65 103.965 300.363 102.007C299.292 100.376 298.746 98.6819 298.467 96.9308C298.145 94.907 298.183 92.8055 298.183 90.6379C298.181 88.9187 298.18 87.1995 298.18 85.4795C305.856 85.5342 313.533 85.5889 321.209 85.4656C324.9 85.406 328.617 85.3047 332.28 85.847C335.394 86.3077 338.122 88.2539 339.736 90.9802C339.896 91.2489 340.043 91.5249 340.179 91.8067C340.247 91.9472 340.311 92.0901 340.372 92.2338C340.786 93.1984 341.036 94.2307 341.126 95.2753C341.171 95.789 341.175 96.3036 341.143 96.8181C341 99.1768 340.253 101.5 338.851 103.415C337.23 105.627 334.703 107.267 332.574 108.958C333.247 109.47 333.92 109.981 334.593 110.493C336.025 111.582 337.467 112.68 338.662 114.023C340.447 116.029 341.714 118.656 341.604 121.405C341.547 122.845 341.218 124.655 340.522 125.89C339.374 127.926 337.754 129.763 335.659 130.852C334.677 131.362 333.617 131.722 332.524 131.897C331.42 132.075 330.296 132.076 329.178 132.077C323.674 132.077 318.169 132.084 312.665 132.086C309.882 132.087 307.097 132.088 304.314 132.089L298.176 132.092L298.177 132.093Z" fill="#010101"/>
</g>
<path d="M324.214 106.112C324.214 106.112 330.761 108.083 332.676 109.141C338.601 112.413 340.643 117.071 340.643 117.071C340.643 117.071 341.624 118.714 341.623 121.422C341.623 123.845 340.719 125.655 340.719 125.655L320.613 109.513L324.213 106.113L324.214 106.112Z" fill="url(#paint0_linear_187_3493)"/>
</g>
<defs>
<filter id="filter0_d_187_3493" x="142.425" y="28.7889" width="354.245" height="107.607" filterUnits="userSpaceOnUse" color-interpolation-filters="sRGB">
<feFlood flood-opacity="0" result="BackgroundImageFix"/>
<feColorMatrix in="SourceAlpha" type="matrix" values="0 0 0 0 0 0 0 0 0 0 0 0 0 0 0 0 0 0 127 0" result="hardAlpha"/>
<feOffset dy="3.80909"/>
<feGaussianBlur stdDeviation="1.90454"/>
<feComposite in2="hardAlpha" operator="out"/>
<feColorMatrix type="matrix" values="0 0 0 0 0.801405 0 0 0 0 0.831238 0 0 0 0 0.846154 0 0 0 0.17 0"/>
<feBlend mode="normal" in2="BackgroundImageFix" result="effect1_dropShadow_187_3493"/>
<feBlend mode="normal" in="SourceGraphic" in2="effect1_dropShadow_187_3493" result="shape"/>
</filter>
<filter id="filter1_d_187_3493" x="125.285" y="63.0708" width="388.527" height="107.607" filterUnits="userSpaceOnUse" color-interpolation-filters="sRGB">
<feFlood flood-opacity="0" result="BackgroundImageFix"/>
<feColorMatrix in="SourceAlpha" type="matrix" values="0 0 0 0 0 0 0 0 0 0 0 0 0 0 0 0 0 0 127 0" result="hardAlpha"/>
<feOffset dy="3.80909"/>
<feGaussianBlur stdDeviation="1.90454"/>
<feComposite in2="hardAlpha" operator="out"/>
<feColorMatrix type="matrix" values="0 0 0 0 0.801405 0 0 0 0 0.831238 0 0 0 0 0.846154 0 0 0 0.17 0"/>
<feBlend mode="normal" in2="BackgroundImageFix" result="effect1_dropShadow_187_3493"/>
<feBlend mode="normal" in="SourceGraphic" in2="effect1_dropShadow_187_3493" result="shape"/>
</filter>
<filter id="filter2_d_187_3493" x="107.191" y="97.3525" width="424.713" height="107.607" filterUnits="userSpaceOnUse" color-interpolation-filters="sRGB">
<feFlood flood-opacity="0" result="BackgroundImageFix"/>
<feColorMatrix in="SourceAlpha" type="matrix" values="0 0 0 0 0 0 0 0 0 0 0 0 0 0 0 0 0 0 127 0" result="hardAlpha"/>
<feOffset dy="3.80909"/>
<feGaussianBlur stdDeviation="1.90454"/>
<feComposite in2="hardAlpha" operator="out"/>
<feColorMatrix type="matrix" values="0 0 0 0 0.801405 0 0 0 0 0.831238 0 0 0 0 0.846154 0 0 0 0.17 0"/>
<feBlend mode="normal" in2="BackgroundImageFix" result="effect1_dropShadow_187_3493"/>
<feBlend mode="normal" in="SourceGraphic" in2="effect1_dropShadow_187_3493" result="shape"/>
</filter>
<linearGradient id="paint0_linear_187_3493" x1="333.705" y1="106.367" x2="330.307" y2="119.202" gradientUnits="userSpaceOnUse">
<stop offset="0.35" stop-color="#010101"/>
<stop offset="0.61" stop-color="#22212C"/>
<stop offset="0.82" stop-color="#323049"/>
</linearGradient>
<clipPath id="clip0_187_3493">
<rect width="639" height="227" fill="white"/>
</clipPath>
<clipPath id="clip1_187_3493">
<rect width="807" height="213" fill="white" transform="translate(-29 7.45679)"/>
</clipPath>
</defs>
</svg>
