<svg width="140" height="17" viewBox="0 0 140 17" fill="none" xmlns="http://www.w3.org/2000/svg">
<mask id="mask0_29_13465" style="mask-type:luminance" maskUnits="userSpaceOnUse" x="1" y="0" width="16" height="17">
<path d="M16.2923 0.000144958H1.01367V16.3008H16.2923V0.000144958Z" fill="white"/>
</mask>
<g mask="url(#mask0_29_13465)">
<path d="M1.0144 16.3003V6.57421C1.0144 6.54535 0.999576 6.46477 1.0144 6.43963C1.05489 6.37076 1.23564 6.57335 1.28382 6.61536C1.96465 7.20942 2.64747 7.80119 3.33143 8.39182C3.46714 8.50897 3.60741 8.63241 3.67669 8.79785C3.73457 8.93615 3.73685 9.09045 3.73856 9.24047C3.74911 10.2769 3.75966 11.313 3.77021 12.3493C3.77448 12.7588 3.79929 13.2177 4.09979 13.4954C4.4613 13.8295 5.02323 13.7563 5.47227 13.7575C6.09009 13.7589 6.70762 13.7606 7.32544 13.762C8.53884 13.7649 9.75224 13.768 10.9653 13.7709C11.5963 13.7723 12.5653 13.8763 13.0249 13.354C13.3437 12.9917 13.3146 12.4196 13.0862 11.9942C12.8579 11.5687 12.4701 11.2558 12.0926 10.9552C11.0053 10.0888 9.91817 9.22247 8.83078 8.3561C8.88609 8.4001 11.0857 6.18503 11.2958 5.98216C11.7058 5.58555 12.1155 5.18865 12.5246 4.79119C12.8681 4.45744 13.3166 4.0874 13.2647 3.55021C13.2282 3.17132 12.9126 2.86614 12.5585 2.72813C12.2044 2.59012 11.8144 2.58726 11.4346 2.5864C9.45716 2.58097 7.47968 2.57526 5.50192 2.56983C5.19144 2.56897 4.87584 2.56869 4.57733 2.65527C4.27883 2.74156 3.99487 2.92815 3.86315 3.21018C3.70891 3.54107 3.7933 3.94396 3.98774 4.25285C4.18218 4.56173 4.47185 4.79604 4.75638 5.02406C5.9407 5.97415 7.12501 6.92453 8.30933 7.87462C8.37177 7.92491 8.44076 7.99006 8.43079 8.0695C8.42337 8.12808 8.37462 8.17151 8.32929 8.20894C7.75367 8.68641 7.17776 9.16389 6.60213 9.64108C6.54796 9.68594 6.4898 9.7328 6.41995 9.74137C6.32901 9.75252 6.24519 9.69651 6.17077 9.64336C5.24162 8.97816 4.31133 8.31152 3.44319 7.56831C2.8211 7.03569 2.22694 6.45792 1.77762 5.77271C1.40357 5.20208 1.21255 4.60917 1.11561 3.99654C1.00328 3.28818 1.0164 2.55297 1.0164 1.79433C1.01583 1.19256 1.01526 0.591069 1.01526 -0.0107032C3.69551 0.0084415 6.37605 0.0275867 9.05602 -0.0155603C10.3447 -0.0364194 11.6425 -0.0718519 12.9214 0.117881C14.0088 0.279039 14.9611 0.959961 15.525 1.91434C15.5806 2.00835 15.6322 2.10493 15.6795 2.20351C15.7032 2.25294 15.7257 2.30266 15.7474 2.35295C15.8916 2.69041 15.9789 3.05159 16.0108 3.41734C16.0265 3.59707 16.0276 3.77709 16.0165 3.95739C15.9666 4.78261 15.706 5.59583 15.2162 6.26561C14.65 7.03997 13.7679 7.61374 13.0244 8.20523C13.2596 8.38439 13.4945 8.56354 13.7297 8.74242C14.2298 9.12331 14.733 9.50735 15.1504 9.97768C15.7736 10.6797 16.2158 11.5987 16.1776 12.5608C16.1576 13.0648 16.0427 13.698 15.7996 14.1301C15.3987 14.8427 14.8333 15.4856 14.1015 15.8668C13.7588 16.0454 13.3882 16.1711 13.0067 16.2326C12.6212 16.2946 12.2289 16.2951 11.8383 16.2954C9.91646 16.2954 7.99458 16.2977 6.0727 16.2986C5.10078 16.2989 4.12887 16.2991 3.15666 16.2994L1.01383 16.3006L1.0144 16.3003Z" fill="white"/>
</g>
<path d="M10.1069 7.20864C10.1069 7.20864 12.3929 7.89842 13.0614 8.26874C15.1301 9.41371 15.8429 11.0439 15.8429 11.0439C15.8429 11.0439 16.1853 11.6188 16.185 12.5663C16.185 13.4141 15.8694 14.0476 15.8694 14.0476L8.84961 8.39876L10.1066 7.20893L10.1069 7.20864Z" fill="url(#paint0_linear_29_13465)"/>
<path opacity="0.8" d="M1.01367 16.3004V12.5592C2.04403 12.5572 2.88167 13.6025 2.88395 14.8937C2.8848 15.4215 2.74624 15.9084 2.5116 16.3002H1.01367V16.3004Z" fill="url(#paint1_linear_29_13465)"/>
<path d="M20.1445 0.257469H22.9896V13.8148H29.7317V16.0313H20.1445V0.257469Z" fill="white"/>
<path d="M39.1154 16.301C37.7341 16.301 36.5997 16.1575 35.7122 15.8707C34.8246 15.5838 34.1341 15.1875 33.64 14.6817C33.1462 14.1759 32.8007 13.5824 32.604 12.9009C32.407 12.2195 32.3086 11.4842 32.3086 10.6953V5.74569C32.3086 4.93504 32.4052 4.18211 32.5985 3.48605C32.7918 2.79027 33.1354 2.18049 33.6292 1.65702C34.123 1.13354 34.8135 0.726355 35.7013 0.435756C36.5888 0.145157 37.7267 0 39.1154 0C40.5042 0 41.5417 0.154301 42.4007 0.462616C43.2597 0.771217 43.9305 1.19611 44.4138 1.73759C44.8967 2.27936 45.2332 2.90685 45.423 3.62063C45.6126 4.33441 45.7076 5.09649 45.7076 5.90714V10.5339C45.7076 11.3159 45.6109 12.0546 45.4176 12.7504C45.2243 13.4461 44.8862 14.0596 44.4032 14.5903C43.9203 15.1212 43.2508 15.5389 42.3955 15.8438C41.5402 16.1487 40.4469 16.301 39.1157 16.301H39.1154ZM39.1154 14.0416C39.9599 14.0416 40.6578 13.9573 41.2089 13.7887C41.76 13.6202 42.1734 13.3173 42.4488 12.8795C42.7243 12.442 42.8622 11.8288 42.8622 11.0396V5.32622C42.8622 4.54443 42.7243 3.93123 42.4488 3.48633C42.1732 3.04172 41.758 2.72426 41.2035 2.53396C40.6487 2.34394 39.9528 2.24879 39.1154 2.24879C38.2781 2.24879 37.5839 2.34022 36.9897 2.5231C36.3955 2.70597 35.9431 3.02172 35.6318 3.47005C35.3204 3.91837 35.1648 4.537 35.1648 5.32622V11.0396C35.1648 11.8288 35.3184 12.442 35.6263 12.8795C35.934 13.317 36.385 13.6202 36.9791 13.7887C37.573 13.9573 38.2852 14.0416 39.1154 14.0416Z" fill="white"/>
<path d="M55.8313 16.301C54.4571 16.301 53.3424 16.1647 52.4871 15.8921C51.6318 15.6195 50.9749 15.2375 50.517 14.7463C50.0589 14.2551 49.7441 13.6756 49.5722 13.0087C49.4003 12.3415 49.3145 11.61 49.3145 10.8136V5.64883C49.3145 4.83818 49.3986 4.09039 49.5668 3.40547C49.735 2.72055 50.0463 2.12335 50.5008 1.61387C50.9552 1.10468 51.6101 0.708353 52.4654 0.424898C53.3207 0.141728 54.4389 0 55.8202 0C57.1154 0 58.164 0.127441 58.9658 0.382036C59.7672 0.636632 60.383 1.00067 60.8124 1.47414C61.2417 1.94761 61.5334 2.51253 61.6874 3.16887C61.841 3.82522 61.9183 4.55529 61.9183 5.35851V5.53053L59.1593 5.84256V5.20764C59.1593 4.39699 59.0573 3.78036 58.8534 3.35689C58.6496 2.93371 58.304 2.64311 57.8174 2.48538C57.3307 2.32765 56.665 2.24879 55.8205 2.24879C54.976 2.24879 54.3069 2.33479 53.77 2.5071C53.2332 2.6794 52.8323 2.98429 52.5678 3.42176C52.3029 3.85951 52.1706 4.47614 52.1706 5.2725V11.1474C52.1706 11.9366 52.3029 12.5392 52.5678 12.955C52.8323 13.371 53.2369 13.6562 53.7809 13.8105C54.3249 13.9648 55.0154 14.0419 55.853 14.0419C56.6906 14.0419 57.3487 13.9756 57.8285 13.8428C58.3077 13.7102 58.6499 13.441 58.8537 13.0358C59.0576 12.6306 59.1596 12.0226 59.1596 11.2119V10.7922H61.9186V11.0182C61.9186 11.8003 61.847 12.5138 61.7039 13.1595C61.5608 13.805 61.2814 14.3611 60.8665 14.8274C60.4514 15.2937 59.8393 15.6561 59.0308 15.9141C58.2219 16.1724 57.1556 16.3016 55.8316 16.3016L55.8313 16.301Z" fill="white"/>
<path d="M71.386 8.39196L70.7742 8.40282L68.3802 11.2971V16.0315H65.5352V0.257469H68.3802V8.21966L74.9398 0.257469H78.064L71.3863 8.39196H71.386ZM69.9477 8.37053L71.9554 6.7458L78.4398 16.0315H75.2406L69.948 8.37053H69.9477Z" fill="white"/>
<path d="M80.9746 16.0315V0.257469H83.9807L88.9729 8.70399H88.4791L93.4499 0.257469H96.4774V16.0313H93.8042V3.70037L94.0403 3.76495L89.7139 11.3077H87.7601L83.3261 3.80809L83.6589 3.74352V16.0313H80.9749L80.9746 16.0315Z" fill="white"/>
<path d="M99.4202 16.0321L104.831 0.258327H108.288L113.742 16.0321H110.746L106.484 2.20566H106.774L102.394 16.0321H99.4202ZM102.222 13.0087L102.813 10.8245H110.371L110.94 13.0087H102.222Z" fill="white"/>
<path d="M116.09 14.2245L122.971 2.41025H116.401V0.258327H126.224V2.08736L119.364 13.9339H126.353V16.0321H116.09V14.2245Z" fill="white"/>
<path d="M129.596 0.257469H139.752V2.39853H132.441V6.91753H138.915V8.9943H132.441V13.8899H139.87V16.0313H129.596V0.257469H129.596Z" fill="white"/>
<defs>
<linearGradient id="paint0_linear_29_13465" x1="13.421" y1="7.29779" x2="12.2291" y2="11.788" gradientUnits="userSpaceOnUse">
<stop offset="0.35" stop-color="#BCBEC0"/>
<stop offset="0.61" stop-color="#E6E7E8"/>
<stop offset="0.82" stop-color="white"/>
</linearGradient>
<linearGradient id="paint1_linear_29_13465" x1="2.7168" y1="13.8301" x2="0.703684" y2="14.6445" gradientUnits="userSpaceOnUse">
<stop offset="0.35" stop-color="#D1D3D4"/>
<stop offset="0.61" stop-color="#E6E7E8"/>
<stop offset="0.82" stop-color="#F1F2F2"/>
</linearGradient>
</defs>
</svg>
