<svg width="20" height="20" viewBox="0 0 20 20" fill="none" xmlns="http://www.w3.org/2000/svg">
<g clip-path="url(#clip0_49013_161173)">
<path d="M20 10C20 15.5229 15.5229 20 10 20C4.47715 20 0 15.5229 0 10C0 4.47715 4.47715 0 10 0C15.5229 0 20 4.47715 20 10Z" fill="#D9D9D9"/>
<mask id="mask0_49013_161173" style="mask-type:luminance" maskUnits="userSpaceOnUse" x="0" y="0" width="20" height="20">
<path d="M20 0H0V20H20V0Z" fill="white"/>
</mask>
<g mask="url(#mask0_49013_161173)">
<path d="M10 20C15.5229 20 20 15.5229 20 10C20 4.47715 15.5229 0 10 0C4.47715 0 0 4.47715 0 10C0 15.5229 4.47715 20 10 20Z" fill="#F0F0F0"/>
<path d="M2.06644 3.91113C1.28094 4.93313 0.688631 6.11105 0.34375 7.3907H5.54601L2.06644 3.91113Z" fill="#0052B4"/>
<path d="M19.6553 7.39069C19.3104 6.11106 18.7181 4.93313 17.9326 3.91113L14.4531 7.39069H19.6553Z" fill="#0052B4"/>
<path d="M0.34375 12.6094C0.688669 13.8889 1.28097 15.0669 2.06644 16.0888L5.5459 12.6094H0.34375Z" fill="#0052B4"/>
<path d="M16.0889 2.06746C15.0669 1.28195 13.889 0.689647 12.6094 0.344727V5.54695L16.0889 2.06746Z" fill="#0052B4"/>
<path d="M3.91406 17.9326C4.93606 18.7181 6.11399 19.3104 7.39361 19.6553V14.4531L3.91406 17.9326Z" fill="#0052B4"/>
<path d="M7.39354 0.344727C6.11395 0.689647 4.93602 1.28195 3.91406 2.06742L7.39354 5.54692V0.344727Z" fill="#0052B4"/>
<path d="M12.6094 19.6553C13.8889 19.3104 15.0669 18.7181 16.0889 17.9326L12.6094 14.4531V19.6553Z" fill="#0052B4"/>
<path d="M14.4531 12.6094L17.9326 16.0889C18.7181 15.0669 19.3104 13.8889 19.6553 12.6094H14.4531Z" fill="#0052B4"/>
<path d="M19.9154 8.69569H11.3044L11.3044 0.0846487C10.8774 0.0290625 10.4421 0 10 0C9.55787 0 9.12262 0.0290625 8.69569 0.0846487V8.69556L0.0846487 8.69563C0.0290625 9.12263 0 9.55794 0 10C0 10.4421 0.0290625 10.8774 0.0846487 11.3043H8.69556L8.69563 19.9154C9.12263 19.9709 9.55787 20 10 20C10.4421 20 10.8774 19.971 11.3043 19.9154V11.3044L19.9154 11.3044C19.9709 10.8774 20 10.4421 20 10C20 9.55794 19.9709 9.12262 19.9154 8.69569Z" fill="#D80027"/>
<path d="M12.6094 12.6094L17.0718 17.0718C17.277 16.8666 17.4728 16.6521 17.6596 16.4298L13.8392 12.6094H12.6094Z" fill="#D80027"/>
<path d="M7.39208 12.6094L2.92969 17.0716C3.13484 17.2769 3.34934 17.4727 3.57168 17.6594L7.39208 13.839V12.6094Z" fill="#D80027"/>
<path d="M7.39391 7.39116L2.93156 2.92871C2.72632 3.13387 2.53054 3.34836 2.34375 3.5707L6.16418 7.39116H7.39391Z" fill="#D80027"/>
<path d="M12.6094 7.39201L17.0718 2.92957C16.8666 2.72433 16.6521 2.52855 16.4298 2.3418L12.6094 6.16223V7.39201Z" fill="#D80027"/>
</g>
</g>
<defs>
<clipPath id="clip0_49013_161173">
<path d="M0 10C0 4.47715 4.47715 0 10 0V0C15.5228 0 20 4.47715 20 10V10C20 15.5228 15.5228 20 10 20V20C4.47715 20 0 15.5228 0 10V10Z" fill="white"/>
</clipPath>
</defs>
</svg>
