<svg width="20" height="20" viewBox="0 0 20 20" fill="none" xmlns="http://www.w3.org/2000/svg">
<g clip-path="url(#clip0_49013_161219)">
<mask id="mask0_49013_161219" style="mask-type:luminance" maskUnits="userSpaceOnUse" x="0" y="0" width="20" height="20">
<path d="M20 0H0V20H20V0Z" fill="white"/>
</mask>
<g mask="url(#mask0_49013_161219)">
<path d="M3.71507 17.7787H16.2755C16.2771 17.7775 16.2783 17.7765 16.2797 17.7754H3.71094C3.7122 17.7766 3.71381 17.7776 3.71507 17.7787Z" fill="#3757A6"/>
<path d="M13.4649 4.43116H18.3085C17.7436 3.59021 17.0537 2.84084 16.2663 2.20703H12.6719C12.9893 2.84861 13.2533 3.60224 13.4649 4.43116Z" fill="#EFECEC"/>
<path d="M14.0724 8.87647H19.934C19.8479 8.10516 19.6743 7.36041 19.4234 6.65234H13.8828C13.9781 7.37347 14.0412 8.12066 14.0724 8.87647Z" fill="#EFECEC"/>
<path d="M13.8828 13.3276H19.426C19.6761 12.6193 19.8489 11.8748 19.9337 11.1035H14.071C14.0401 11.8594 13.9776 12.6064 13.8828 13.3276Z" fill="#EFECEC"/>
<path d="M12.6719 17.7726H16.2782C17.0618 17.1385 17.7484 16.3888 18.3104 15.5488H13.4613C13.2507 16.3771 12.988 17.1306 12.6719 17.7726Z" fill="#EFECEC"/>
<path d="M12.3469 2.20346H16.2577C14.5432 0.823106 12.3651 -0.00488281 9.99237 -0.00488281C9.98194 -0.00488281 9.97137 -0.00424947 9.96094 -0.00424947C11.0958 0.00191507 11.6799 0.854225 12.3469 2.20346Z" fill="#3757A6"/>
<path d="M13.6163 6.6525H19.4237C19.1429 5.86049 18.7662 5.11428 18.3059 4.42871H13.1953C13.3729 5.12471 13.5133 5.87299 13.6163 6.6525Z" fill="#3757A6"/>
<path d="M19.9339 8.87402H13.7734C13.8042 9.61296 13.8046 10.3592 13.7741 11.0981H19.9356C19.9754 10.7351 19.9976 10.3673 19.9976 9.99384C19.9976 9.61521 19.9749 9.2419 19.9339 8.87402Z" fill="#3757A6"/>
<path d="M13.1406 15.5493H18.3114C18.7703 14.8631 19.1456 14.1169 19.4251 13.3252H13.5601C13.4574 14.1046 13.3174 14.853 13.1406 15.5493Z" fill="#3757A6"/>
<path d="M9.96094 19.995C9.97137 19.995 9.98162 19.9956 9.99206 19.9956C12.3716 19.9956 14.5556 19.163 16.2724 17.7754H12.3735C11.7059 19.1311 11.0989 19.9888 9.96094 19.995Z" fill="#3757A6"/>
<path d="M12.6626 2.20771C11.9955 0.858475 11.0951 0.00616454 9.96027 0C7.5999 0.00743125 5.43338 0.833225 3.72656 2.20771H12.6626Z" fill="#4166AF"/>
<path d="M12.666 2.20703H3.72974C2.94245 2.84079 2.25261 3.59017 1.6875 4.43112H13.4588C13.2474 3.6022 12.9834 2.84856 12.666 2.20703Z" fill="#EFEFEF"/>
<path d="M13.4595 4.43164H1.68821C1.22776 5.11722 0.851219 5.86342 0.570312 6.65543H13.8805C13.7773 5.87592 13.6368 5.12765 13.4595 4.43164Z" fill="#4166AF"/>
<path d="M0.565331 6.65234C0.314274 7.36041 0.140738 8.10516 0.0546875 8.87647H14.0651C14.034 8.12066 13.9707 7.37334 13.8755 6.65234H0.565331Z" fill="#EFEFEF"/>
<path d="M0 9.99841C0 10.3718 0.0222514 10.74 0.0623632 11.103H14.0753C14.1058 10.3641 14.1054 9.61791 14.0746 8.87891H0.0640944C0.0232226 9.24684 0 9.62009 0 9.99841Z" fill="#4166AF"/>
<path d="M0.562164 13.3276H13.8794C13.9742 12.6064 14.0367 11.8594 14.0675 11.1035H0.0546875C0.139176 11.8749 0.312078 12.6194 0.562164 13.3276Z" fill="#EFEFEF"/>
<path d="M1.67613 15.5513H13.4603C13.6371 14.855 13.7771 14.1065 13.8797 13.3271H0.5625C0.841971 14.1189 1.217 14.8651 1.67613 15.5513Z" fill="#4166AF"/>
<path d="M1.67969 15.5488C2.24163 16.3888 2.92801 17.1385 3.71196 17.7726H12.6744C12.9906 17.1306 13.2532 16.3771 13.4639 15.5488H1.67969Z" fill="#EFEFEF"/>
<path d="M9.96761 19.9998C11.1056 19.9936 12.0079 19.136 12.6755 17.7803H3.71875C5.4281 19.1617 7.60043 19.9924 9.96761 19.9998Z" fill="#4166AF"/>
<path d="M9.99207 -0.00488281C4.46963 -0.00488281 -0.00751694 4.47209 -0.0078125 9.995L0.0545507 11.0996H9.99232L9.99207 -0.00488281Z" fill="#3757A6"/>
<path d="M4.17143 1.86719C3.19532 2.56762 2.34947 3.43775 1.67969 4.43691H4.17143V1.86719Z" fill="#3757A6"/>
<path d="M0.569458 6.64551C0.196968 7.69345 -0.0078125 8.82101 -0.0078125 9.99651L0.0545507 11.1012H4.1709V6.64551H0.569458Z" fill="#3757A6"/>
<path d="M9.98906 4.43654L9.98881 -0.00488281C8.71425 -0.00488281 7.49606 0.23621 6.375 0.671062V4.43654H9.98906Z" fill="#3757A6"/>
<path d="M9.98887 6.64258H6.375V11.0984H9.98887V6.64258Z" fill="#3757A6"/>
<path d="M6.37895 4.43931V0.673828C5.58947 0.979991 4.84909 1.38309 4.17158 1.86942V4.43918H1.67985C1.22367 5.12037 0.849616 5.86087 0.570312 6.64657H4.17175V11.1022V11.1812H6.37914V11.1022V6.64669H9.9932V4.43931H6.37895Z" fill="#EFEFEF"/>
</g>
</g>
<defs>
<clipPath id="clip0_49013_161219">
<path d="M0 10C0 4.47715 4.47715 0 10 0V0C15.5228 0 20 4.47715 20 10V10C20 15.5228 15.5228 20 10 20V20C4.47715 20 0 15.5228 0 10V10Z" fill="white"/>
</clipPath>
</defs>
</svg>
