<svg width="20" height="20" viewBox="0 0 20 20" fill="none" xmlns="http://www.w3.org/2000/svg">
<g clip-path="url(#clip0_49013_161259)">
<mask id="mask0_49013_161259" style="mask-type:luminance" maskUnits="userSpaceOnUse" x="0" y="0" width="20" height="20">
<path d="M20 10C20 4.47715 15.5228 0 10 0C4.47715 0 0 4.47715 0 10C0 15.5228 4.47715 20 10 20C15.5228 20 20 15.5228 20 10Z" fill="white"/>
</mask>
<g mask="url(#mask0_49013_161259)">
<path d="M20 10C20 15.5229 15.5229 20 10 20C4.47715 20 0 15.5229 0 10C0 4.47715 4.47715 0 10 0C15.5229 0 20 4.47715 20 10Z" fill="#FF0000"/>
<path d="M21.875 10H-0.625V20.625H21.875V10Z" fill="white"/>
</g>
</g>
<defs>
<clipPath id="clip0_49013_161259">
<path d="M0 10C0 4.47715 4.47715 0 10 0V0C15.5228 0 20 4.47715 20 10V10C20 15.5228 15.5228 20 10 20V20C4.47715 20 0 15.5228 0 10V10Z" fill="white"/>
</clipPath>
</defs>
</svg>
